ply
format ascii 1.0
element vertex 256
comment vertices
property float x
property float y
property float z
end_header
-0.469918161630630493 2.46129512786865234 -0.562977135181427002
3.50760746002197266 6.626922607421875 1.44441413879394531
-4.29216861724853516 6.50711774826049805 1.26100015640258789
0.147556379437446594 7.12800025939941406 2.37475752830505371
1.72174108028411865 3.20620131492614746 0.828124403953552246
-1.48480594158172607 3.90365409851074219 0.660766839981079102
1.50342535972595215 3.09031558036804199 -0.812827587127685547
2.69474458694458008 5.38291645050048828 -0.23970302939414978
2.00666356086730957 7.50002813339233398 0.454796791076660156
-0.367942094802856445 2.41455650329589844 -0.584393858909606934
2.26168394088745117 6.65114974975585938 2.29164934158325195
-1.87399625778198242 3.62241506576538086 -0.936104297637939453
0.257379621267318726 3.55979299545288086 0.984041690826416016
-0.409606277942657471 2.26673793792724609 -0.733262419700622559
1.82906925678253174 3.03620338439941406 -0.576499640941619873
-0.531505107879638672 2.47350430488586426 -0.581355571746826172
0.587683200836181641 2.71089959144592285 -0.657844066619873047
-2.50752091407775879 3.83783054351806641 -0.19936564564704895
-0.768035650253295898 2.58526372909545898 -0.162124812602996826
1.00283384323120117 7.10297966003417969 2.30412483215332031
0.527690589427947998 2.97965145111083984 -0.122807979583740234
-0.446283608675003052 2.41112470626831055 -0.561630427837371826
1.18829643726348877 2.96618103981018066 -0.80535811185836792
2.01111626625061035 3.06070399284362793 -0.733575165271759033
-0.907720983028411865 2.51014995574951172 -0.459799587726593018
-0.756136834621429443 2.52780485153198242 -0.647283375263214111
-0.579826712608337402 2.40654873847961426 -0.616062164306640625
1.74966740608215332 3.2218782901763916 -0.188800036907196045
-0.485698699951171875 2.42618227005004883 -0.561756610870361328
1.52469205856323242 2.96422052383422852 -0.80022895336151123
-0.669261753559112549 7.12373542785644531 2.30636262893676758
1.23411190509796143 2.97453832626342773 -0.875818312168121338
-0.87708580493927002 3.67722821235656738 0.900020599365234375
2.70450973510742188 7.385894775390625 0.692890465259552002
1.15142571926116943 2.66586971282958984 -0.425845086574554443
-2.0629432201385498 3.74534225463867188 -0.707885861396789551
-0.412675201892852783 2.48747539520263672 -0.322158992290496826
-0.531973838806152344 2.44279575347900391 -0.5898398756980896
0.29375612735748291 2.70630097389221191 -0.552454710006713867
1.15224337577819824 3.3180239200592041 0.930366635322570801
-2.26706051826477051 3.46893143653869629 -0.207905352115631104
2.97546887397766113 5.35949611663818359 -0.00747847557067871094
1.7138359546661377 3.20774650573730469 0.00970095396041870117
-2.39375925064086914 3.12655806541442871 -0.393133044242858887
-0.461867570877075195 2.31705355644226074 -0.617808163166046143
1.55632472038269043 6.83598947525024414 2.27416682243347168
-0.763040542602539062 2.48656129837036133 -0.58531653881072998
-0.47853320837020874 2.42691230773925781 -0.603456497192382812
-0.632030308246612549 2.60253572463989258 -0.0992093682289123535
-0.519194602966308594 3.50374412536621094 0.629129767417907715
1.7825167179107666 3.03406691551208496 -0.528941988945007324
-0.431092917919158936 2.47777700424194336 -0.57623058557510376
-0.479286432266235352 2.40570163726806641 -0.590108513832092285
-1.65286421775817871 3.34853935241699219 -0.607422113418579102
0.577892839908599854 3.45277810096740723 0.726019740104675293
-0.359296560287475586 2.59001874923706055 -0.726470649242401123
-0.526862978935241699 2.45252227783203125 -0.659996271133422852
1.20929384231567383 2.93739843368530273 -0.462914764881134033
-0.6562957763671875 2.5095221996307373 -0.584244489669799805
1.58848321437835693 3.0409846305847168 -0.6943015456199646
1.46712565422058105 2.51900386810302734 -0.819639801979064941
3.04691553115844727 5.26821279525756836 -0.225882202386856079
1.71510457992553711 2.94090533256530762 -0.922998666763305664
-1.85167849063873291 2.84871673583984375 -0.546748220920562744
-0.372554361820220947 2.57171821594238281 -0.48863065242767334
-2.24972414970397949 4.03699779510498047 0.356445074081420898
-0.582388401031494141 2.50935745239257812 -0.672758340835571289
0.672991812229156494 7.01441764831542969 2.3450920581817627
-0.343998610973358154 3.15447306632995605 0.375176906585693359
-0.462280958890914917 2.45557212829589844 -0.586189568042755127
-0.435693919658660889 2.47626161575317383 -0.599654674530029297
-0.519528031349182129 2.48314285278320312 -0.579687714576721191
1.29593765735626221 2.98408937454223633 -0.851480722427368164
-0.479948073625564575 2.48343610763549805 -0.528317034244537354
1.53609490394592285 2.98702836036682129 -0.745920360088348389
-0.39812055230140686 2.378875732421875 -0.516974329948425293
-0.681145846843719482 2.56152009963989258 -0.631344914436340332
1.23148763179779053 3.09525704383850098 -0.783946990966796875
-0.793088197708129883 2.4721229076385498 -0.514257073402404785
-0.552993893623352051 2.46107316017150879 -0.268878549337387085
-0.522516965866088867 2.44364190101623535 -0.580779075622558594
-2.19040894508361816 3.52191853523254395 -0.848373055458068848
2.08545613288879395 3.33307242393493652 -0.246788129210472107
1.63623487949371338 3.04305839538574219 -0.905913949012756348
-0.436141252517700195 2.43135595321655273 -0.586804866790771484
1.15581357479095459 3.01592421531677246 -0.847421467304229736
1.61977088451385498 3.13938093185424805 -0.875468611717224121
-0.169840395450592041 2.50902891159057617 -0.748236119747161865
-0.570078611373901367 2.66277647018432617 -0.088538825511932373
-0.376540899276733398 2.58828115463256836 -0.611591160297393799
1.53717041015625 3.20719623565673828 0.542486310005187988
-0.655996322631835938 2.56354045867919922 -0.260912686586380005
-1.0888831615447998 3.77912998199462891 0.561283409595489502
0.154956936836242676 3.07775139808654785 0.107315003871917725
-1.50970804691314697 3.49878597259521484 -0.107681989669799805
-0.994074702262878418 3.63982462882995605 0.547195076942443848
1.14029562473297119 3.3134453296661377 0.42547270655632019
1.21220970153808594 2.79448175430297852 -0.795606851577758789
1.71813225746154785 3.13551115989685059 0.395517736673355103
-0.401633322238922119 2.4258418083190918 -0.57882159948348999
2.32019615173339844 7.4972071647644043 0.547235250473022461
-0.468991637229919434 2.45300579071044922 -0.605205059051513672
1.43166220188140869 3.1261296272277832 -0.864795148372650146
1.2981032133102417 2.95358109474182129 -0.839250802993774414
-0.404537677764892578 2.46970081329345703 -0.583380699157714844
1.39407706260681152 3.3929445743560791 -0.591984927654266357
-0.697133481502532959 2.5012505054473877 -0.601640999317169189
-0.439243882894515991 2.34647750854492188 -0.611902296543121338
-2.24058985710144043 3.46996736526489258 -0.551609277725219727
-2.68578100204467773 3.85747766494750977 -0.10001838207244873
1.15936815738677979 2.78637576103210449 -0.430755823850631714
1.86706137657165527 3.0239717960357666 -0.905596435070037842
1.81889235973358154 3.03042435646057129 -0.687430143356323242
-0.408413469791412354 2.4736473560333252 -0.450850337743759155
-0.686423242092132568 2.4634246826171875 -0.398217141628265381
-1.66232502460479736 2.74157619476318359 -0.597972691059112549
1.7646186351776123 3.07833170890808105 -0.816762983798980713
-0.533252537250518799 2.43001317977905273 -0.58552098274230957
1.1872246265411377 3.17900872230529785 -0.132316440343856812
-0.372769832611083984 2.41204690933227539 -0.507352828979492188
-0.136837780475616455 2.68158793449401855 -0.308677017688751221
1.71770358085632324 3.18603944778442383 -0.0124425292015075684
-0.554710090160369873 2.44585394859313965 -0.591965317726135254
1.52248382568359375 2.85771918296813965 -0.6050528883934021
-0.833899497985839844 2.43489694595336914 -0.581413626670837402
-0.601052820682525635 2.49852085113525391 -0.541424691677093506
2.13103961944580078 3.28373575210571289 -0.587593317031860352
-0.447590470314025879 2.44481611251831055 -0.604885101318359375
1.25881397724151611 3.00433826446533203 -0.875076413154602051
-0.429743975400924683 2.46526288986206055 -0.540951073169708252
1.65986204147338867 2.91718649864196777 -0.460994243621826172
-0.494136989116668701 2.47522401809692383 -0.64705955982208252
-0.756172895431518555 3.66844367980957031 0.870694458484649658
-1.72221136093139648 3.95147228240966797 0.441144645214080811
-0.446541249752044678 2.45853972434997559 -0.664427876472473145
2.90057086944580078 5.36734342575073242 -0.162432178854942322
0.940865695476531982 3.36339592933654785 0.739843487739562988
1.58326089382171631 2.99010491371154785 -0.510819137096405029
-0.560844659805297852 2.42745041847229004 -0.627515673637390137
-0.0145696625113487244 3.5273745059967041 0.812624931335449219
-0.491586983203887939 2.45539522171020508 -0.533949017524719238
1.78265714645385742 3.16306543350219727 -0.403286576271057129
-0.760599970817565918 3.55336546897888184 0.484327405691146851
-1.24512362480163574 2.83912515640258789 -0.538718700408935547
1.86618697643280029 3.28791403770446777 -0.358766078948974609
-2.57056713104248047 3.22751665115356445 -0.416786700487136841
-0.376385986804962158 2.30394983291625977 -0.73815542459487915
-0.446490943431854248 2.50267481803894043 -0.59263002872467041
0.346192508935928345 3.46645474433898926 0.805191874504089355
-1.60914790630340576 3.049957275390625 -0.655724287033081055
0.55591273307800293 2.72411966323852539 -0.478632032871246338
-0.864042878150939941 2.55365324020385742 -0.403448820114135742
-0.48783034086227417 2.35469365119934082 -0.6479339599609375
-1.28062450885772705 3.82685375213623047 0.831849336624145508
-0.500670671463012695 2.38425159454345703 -0.6080130934715271
-0.777888178825378418 2.51952934265136719 -0.117314755916595459
0.101012945175170898 2.71368718147277832 -0.763712465763092041
-0.646046102046966553 2.47949600219726562 -0.593912780284881592
1.21562159061431885 3.06457328796386719 -0.866135239601135254
1.74184632301330566 3.25541496276855469 -0.609060764312744141
0.626939117908477783 3.27900838851928711 0.231874048709869385
-1.5327141284942627 2.81260871887207031 -0.563933074474334717
-0.407306581735610962 2.41609787940979004 -0.593021035194396973
-0.574440181255340576 2.546844482421875 -0.241567522287368774
1.51624417304992676 2.98356819152832031 -0.848597884178161621
-0.115726053714752197 2.62158346176147461 -0.719372332096099854
-0.515433788299560547 2.21812629699707031 -0.69965672492980957
-0.402400493621826172 2.47015380859375 -0.565594613552093506
-0.516097187995910645 2.43709707260131836 -0.588874697685241699
-0.427403509616851807 2.41617965698242188 -0.588408172130584717
1.35725510120391846 2.99675536155700684 -0.849484682083129883
1.83703327178955078 3.14782071113586426 -0.287595510482788086
1.65190780162811279 3.02974820137023926 -0.903699934482574463
1.63149309158325195 3.06807971000671387 -0.908500254154205322
0.5035971999168396 2.71541142463684082 -0.427752017974853516
-0.24726712703704834 6.99083328247070312 2.35183429718017578
-0.697745144367218018 2.44912576675415039 -0.459009289741516113
1.71530330181121826 3.03594732284545898 -0.537404358386993408
1.10683751106262207 2.83115458488464355 -0.371197342872619629
-1.40759265422821045 3.73507881164550781 0.216729104518890381
1.24119865894317627 3.00796818733215332 -0.779963135719299316
1.58148276805877686 3.24596762657165527 0.862598538398742676
-0.440426528453826904 2.31937742233276367 -0.619419395923614502
-2.02763175964355469 3.18853425979614258 -0.468388676643371582
-0.556438148021697998 2.72515439987182617 -0.138695180416107178
2.67311954498291016 5.42758798599243164 -0.160173267126083374
-0.641389667987823486 2.55701065063476562 -0.652626395225524902
1.95609891414642334 3.49114012718200684 -0.308798849582672119
0.251523852348327637 2.62502884864807129 -0.788968503475189209
-0.535781919956207275 2.49171257019042969 -0.617457270622253418
1.16691207885742188 2.94786214828491211 -0.532269060611724854
1.23203170299530029 2.9860539436340332 -0.855335831642150879
-0.638620555400848389 2.54772424697875977 -0.662800371646881104
-0.501830458641052246 2.49172687530517578 -0.582537531852722168
1.56199157238006592 3.44069862365722656 -0.628464460372924805
1.39079785346984863 2.97778081893920898 -0.868306815624237061
1.6216130256652832 3.22437787055969238 0.425846695899963379
-0.398502886295318604 2.4566650390625 -0.670749962329864502
-0.394177556037902832 2.45115852355957031 -0.553289890289306641
-0.462310731410980225 3.26101398468017578 0.335010290145874023
-0.609433770179748535 2.45964884757995605 -0.568385303020477295
-0.156134545803070068 2.45751714706420898 -0.758634448051452637
1.3420720100402832 3.00161480903625488 -0.849008679389953613
-0.604128539562225342 2.55811882019042969 -0.248554021120071411
0.174586057662963867 2.92588210105895996 -0.218393683433532715
1.49534225463867188 2.9701380729675293 -0.730116486549377441
0.870637118816375732 3.41139674186706543 0.948859095573425293
-0.50030595064163208 2.48145723342895508 -0.596647500991821289
-0.396196633577346802 2.46801567077636719 -0.547186553478240967
-0.468949079513549805 2.42907261848449707 -0.631734371185302734
-0.369331777095794678 2.37314128875732422 -0.30273592472076416
-0.549544572830200195 2.45709896087646484 -0.568411827087402344
-1.0948251485824585 3.59062457084655762 0.33378225564956665
-2.25762104988098145 3.95248126983642578 0.0545576810836791992
-0.416522830724716187 2.47650718688964844 -0.569085896015167236
-0.468623459339141846 2.44085001945495605 -0.607118308544158936
1.44987034797668457 3.02638816833496094 -0.798101663589477539
0.357951641082763672 3.37984561920166016 0.583051204681396484
0.383760780096054077 7.03303098678588867 2.2924492359161377
-0.476753562688827515 2.44939994812011719 -0.590477705001831055
1.69794857501983643 3.01111412048339844 -0.8614920973777771
-0.459541916847229004 2.39989876747131348 -0.580984055995941162
-0.751742541790008545 2.59356927871704102 -0.215481758117675781
-0.465056866407394409 2.3992917537689209 -0.642647981643676758
0.888563930988311768 7.05367279052734375 2.33546566963195801
-0.0360813923180103302 3.59824705123901367 0.970156610012054443
-0.685413360595703125 2.54003334045410156 -0.296960026025772095
-0.489458024501800537 2.37939357757568359 -0.664768457412719727
0.061166226863861084 2.39412283897399902 -0.498639971017837524
-0.423020005226135254 2.44571495056152344 -0.603566110134124756
-0.885861814022064209 3.6848909854888916 0.6517486572265625
-0.563850998878479004 2.4770047664642334 -0.628073573112487793
1.42355549335479736 3.01461029052734375 -0.712814807891845703
1.66344749927520752 3.11276125907897949 0.0262185931205749512
-0.847040474414825439 3.64948248863220215 0.687180519104003906
-0.514446496963500977 2.39364743232727051 -0.582778215408325195
1.33042311668395996 3.27728629112243652 0.667789578437805176
-0.713092982769012451 2.47916340827941895 -0.548711478710174561
-0.73740684986114502 2.54779314994812012 -0.346682548522949219
-1.27176439762115479 2.5714869499206543 -0.579520523548126221
1.71416211128234863 2.9017488956451416 -0.610910475254058838
1.71065735816955566 2.98592638969421387 -0.77113807201385498
-0.970699548721313477 3.78363609313964844 0.765683412551879883
-0.566901504993438721 2.4798583984375 -0.295502841472625732
1.44080531597137451 3.26126837730407715 0.87727046012878418
-0.179387003183364868 3.01537609100341797 0.015679776668548584
-0.349763274192810059 2.28596091270446777 -0.705999076366424561
0.45327112078666687 3.52758979797363281 0.988083839416503906
-0.349207937717437744 2.49949431419372559 -0.747818589210510254
-0.542970001697540283 2.45177197456359863 -0.588845431804656982
-0.444894969463348389 2.42441797256469727 -0.548556745052337646
-1.79126930236816406 3.13133907318115234 -0.516854584217071533
0.841527938842773438 3.09267354011535645 -0.544768691062927246
-0.48863142728805542 2.41931056976318359 -0.615468740463256836
-2.03163266181945801 2.8188014030456543 -0.524631500244140625
2.98584485054016113 5.30970191955566406 -0.116892546415328979
