ply
format ascii 1.0
element vertex 256
comment vertices
property float x
property float y
property float z
end_header
0.367003142833709717 -0.0693647861480712891 -0.229489684104919434
-1.65925955772399902 7.99129772186279297 2.43210077285766602
-2.66549396514892578 4.31273221969604492 -0.612046718597412109
2.5666964054107666 7.23020076751708984 2.53103017807006836
-0.407584905624389648 0.721219182014465332 -0.429458349943161011
0.0352733135223388672 5.8288884162902832 2.54486846923828125
0.327908813953399658 3.2000422477722168 -0.637601852416992188
-1.16745877265930176 3.09386444091796875 -0.721821904182434082
-1.11272192001342773 2.93001365661621094 0.203233778476715088
0.565854012966156006 7.89969158172607422 2.55499076843261719
0.261943608522415161 3.35423159599304199 -0.583246707916259766
-1.93131387233734131 4.5612339973449707 1.20866751670837402
0.339705765247344971 3.33498430252075195 -0.469457477331161499
-1.61602616310119629 4.30546426773071289 -0.647660553455352783
2.14139389991760254 2.37802934646606445 -0.403454333543777466
2.22663426399230957 0.91606903076171875 -0.499078750610351562
0.603097259998321533 4.94619226455688477 -0.817035019397735596
1.1543959379196167 5.10718631744384766 2.4276735782623291
1.29261767864227295 6.7366023063659668 2.56879162788391113
-1.84888458251953125 6.45350933074951172 2.45944833755493164
-1.33974623680114746 4.42741870880126953 -0.608326196670532227
-0.316317260265350342 6.73765468597412109 2.47296643257141113
0.310552358627319336 3.3642430305480957 -0.489346057176589966
-0.664715111255645752 5.03852939605712891 1.16457819938659668
2.1790928840637207 2.12190818786621094 0.671570539474487305
0.307708323001861572 3.37591552734375 -0.482256919145584106
3.12260198593139648 6.4062652587890625 2.46430277824401855
1.58247792720794678 7.93107032775878906 2.54761052131652832
-2.9491114616394043 5.43792390823364258 -0.355476289987564087
0.306567728519439697 3.37283205986022949 -0.494678109884262085
1.23061597347259521 3.79453277587890625 1.3912508487701416
0.122989952564239502 3.61441159248352051 -0.33001476526260376
0.111718185245990753 5.07145214080810547 -0.301468968391418457
-1.62180769443511963 4.77329587936401367 -0.719661116600036621
-1.93259954452514648 2.93203520774841309 -0.489334017038345337
-1.70837831497192383 4.76237392425537109 -0.187172114849090576
-0.175214052200317383 2.66444635391235352 -0.457110673189163208
1.90945816040039062 2.86212468147277832 -0.644488811492919922
0.00933839753270149231 5.05727100372314453 -0.457020431756973267
-1.88356971740722656 2.78180074691772461 -0.663792133331298828
0.383742004632949829 3.39330935478210449 -0.632194995880126953
-0.581457674503326416 6.30040836334228516 2.42086076736450195
-1.4132232666015625 3.86144518852233887 -0.75430452823638916
1.82997536659240723 2.24683952331542969 -0.672635912895202637
0.479645758867263794 6.89982700347900391 2.28712153434753418
0.873927295207977295 5.88227081298828125 2.53748464584350586
0.276484191417694092 3.45198583602905273 -0.0756923109292984009
1.24788939952850342 0.424340724945068359 -0.239432156085968018
0.314469665288925171 3.35542917251586914 -0.470403164625167847
0.2643393874168396 3.41567635536193848 -0.376387089490890503
0.712535738945007324 1.43647289276123047 -0.8330344557762146
1.44716894626617432 2.89612340927124023 1.17135405540466309
-1.1133047342300415 7.12265443801879883 2.50464916229248047
0.317400872707366943 3.36995506286621094 -0.495026707649230957
-0.123290173709392548 7.80705499649047852 2.51512932777404785
1.34840607643127441 7.16548061370849609 2.41912317276000977
0.348877519369125366 3.33677053451538086 -0.529268741607666016
-0.407658636569976807 0.946838200092315674 -0.344462424516677856
0.298037618398666382 3.38460278511047363 -0.569581329822540283
0.322317302227020264 3.37727665901184082 -0.582878589630126953
-1.80180621147155762 4.39322757720947266 -0.640239834785461426
-1.49081778526306152 3.7165071964263916 -0.690823197364807129
0.30832439661026001 3.37965631484985352 -0.533631563186645508
-2.10599470138549805 4.59635019302368164 0.597427606582641602
0.31206628680229187 3.37110710144042969 -0.502127468585968018
0.342993199825286865 6.49462080001831055 2.54938936233520508
-1.14217531681060791 4.82786703109741211 0.972460508346557617
-2.01330900192260742 4.44970083236694336 -0.690244793891906738
-2.49995851516723633 6.43838119506835938 2.08298611640930176
0.315465152263641357 3.36459875106811523 -0.512724220752716064
-0.510745108127593994 3.92975234985351562 -0.396528422832489014
-1.478729248046875 4.20139026641845703 -0.0776826739311218262
0.304395139217376709 3.37378358840942383 -0.497665613889694214
0.138855218887329102 4.80531501770019531 -0.26480787992477417
-1.21607124805450439 4.73195028305053711 -0.769209027290344238
-1.56424438953399658 4.63834428787231445 -0.620053470134735107
-0.345762252807617188 3.73903942108154297 -0.620595932006835938
1.45044660568237305 -0.213242053985595703 -0.216400682926177979
0.488085627555847168 5.63038206100463867 2.52940964698791504
0.261989951133728027 3.46260809898376465 -0.316510707139968872
2.5747220516204834 6.65570068359375 2.46862578392028809
-0.906508803367614746 6.80055999755859375 2.58206033706665039
1.79239964485168457 2.3979189395904541 -0.483733266592025757
2.19203090667724609 1.09244132041931152 -0.0205264687538146973
1.35423874855041504 1.11300992965698242 -0.819493651390075684
-0.577134609222412109 0.87541663646697998 -0.416694313287734985
2.29332995414733887 0.408088922500610352 -0.36789780855178833
0.154362350702285767 7.23482990264892578 2.39578700065612793
-0.32620653510093689 2.28212451934814453 -0.297105640172958374
0.945685505867004395 3.03213810920715332 -0.582589805126190186
0.25010150671005249 3.33865070343017578 -0.589299619197845459
-0.168764829635620117 6.47231388092041016 2.50520658493041992
-1.94413721561431885 4.76737356185913086 -0.573587715625762939
-2.59426665306091309 3.58188533782958984 -0.680159270763397217
0.184512734413146973 3.55062317848205566 -0.561144053936004639
1.08873379230499268 7.84811782836914062 2.48525738716125488
0.363586604595184326 3.3206934928894043 -0.51485675573348999
0.3014945387840271 3.43789076805114746 -0.489486008882522583
-1.46628570556640625 4.5131525993347168 -0.705833494663238525
-0.367293000221252441 1.19183802604675293 -0.793166279792785645
0.899537444114685059 0.352274894714355469 -0.536464571952819824
0.31339225172996521 3.38852620124816895 -0.555519819259643555
0.288687169551849365 3.35928249359130859 -0.381128847599029541
-1.03775227069854736 2.26756954193115234 -0.804223597049713135
0.121150262653827667 3.48895406723022461 -0.184863194823265076
-0.278099328279495239 0.802530527114868164 -0.319937646389007568
1.01702570915222168 5.18279266357421875 0.240258336067199707
-2.81446933746337891 4.37477397918701172 -0.288514435291290283
-0.449505269527435303 7.39086580276489258 2.4182891845703125
0.319894790649414062 3.37556576728820801 -0.50261390209197998
1.95054590702056885 2.85697531700134277 -0.636721134185791016
1.21073281764984131 5.60666465759277344 2.53850245475769043
-0.681345939636230469 5.7682652473449707 2.46953773498535156
1.34377574920654297 6.91816949844360352 2.59312009811401367
0.524817824363708496 6.61184310913085938 2.49684953689575195
1.25261259078979492 6.07339239120483398 2.54280447959899902
0.30004417896270752 3.37741184234619141 -0.541159451007843018
-1.75387668609619141 6.71932792663574219 2.39566612243652344
0.319462388753890991 3.37157201766967773 -0.495460838079452515
0.053431287407875061 6.81772851943969727 2.42647147178649902
-1.74581468105316162 4.53965282440185547 -0.643725991249084473
0.267283260822296143 3.42037224769592285 -0.572530508041381836
0.390132725238800049 3.17389011383056641 -0.24647289514541626
-1.04053592681884766 4.47442483901977539 0.412749379873275757
2.08270597457885742 1.77728438377380371 0.19086158275604248
-0.189988106489181519 5.21733999252319336 1.09631979465484619
0.257648199796676636 3.38199496269226074 -0.582948148250579834
-0.285173773765563965 2.7436072826385498 -0.627240419387817383
0.308428198099136353 3.36918735504150391 -0.481907188892364502
0.473184049129486084 3.3293449878692627 -0.535237014293670654
0.320161670446395874 3.3776247501373291 -0.458696037530899048
-0.513932585716247559 4.72608804702758789 0.0150039196014404297
0.319121301174163818 3.36485815048217773 -0.522967636585235596
-1.07682347297668457 4.14585351943969727 -0.524688065052032471
-2.11103081703186035 6.80546045303344727 2.38018107414245605
0.94492650032043457 7.42166805267333984 2.24695634841918945
0.306936800479888916 3.37576460838317871 -0.508842766284942627
0.226500451564788818 5.10245847702026367 2.43001079559326172
0.320005416870117188 3.40311217308044434 -0.567485272884368896
0.777724504470825195 3.95661759376525879 -0.563264846801757812
-2.01951432228088379 4.54605913162231445 -0.200622379779815674
2.37786078453063965 0.806267023086547852 -0.26170051097869873
-0.356276601552963257 0.669352054595947266 -0.692710280418395996
-1.78192901611328125 4.68115377426147461 0.504186272621154785
-1.32492709159851074 4.57838630676269531 -0.626272261142730713
0.942615151405334473 2.36788177490234375 0.134010672569274902
0.643897116184234619 6.09654903411865234 2.54013395309448242
-1.65596544742584229 4.53731536865234375 -0.626040399074554443
0.159042209386825562 5.0978093147277832 0.105980187654495239
-1.45740902423858643 7.51414823532104492 1.99313974380493164
0.0770951434969902039 3.48952722549438477 -0.1885509192943573
0.301879614591598511 3.3689730167388916 -0.48794931173324585
0.144364744424819946 7.90949821472167969 2.43761587142944336
1.62303674221038818 -0.0998156070709228516 -0.228144347667694092
0.317563623189926147 3.32077789306640625 -0.529479861259460449
1.23631501197814941 6.96094131469726562 2.25396513938903809
0.318700492382049561 3.38055515289306641 -0.510778069496154785
0.288652032613754272 3.4039909839630127 -0.387931346893310547
-0.414980769157409668 6.59280014038085938 2.4823005199432373
1.82682859897613525 2.68146753311157227 0.890924394130706787
0.296658754348754883 3.36892271041870117 -0.516003727912902832
0.290394067764282227 3.37882423400878906 -0.573443233966827393
-0.0951629579067230225 1.79972600936889648 -0.142292320728302002
-1.04746174812316895 1.57097792625427246 -0.723655104637145996
0.325443744659423828 3.37147235870361328 -0.531181633472442627
-1.49884974956512451 2.13906216621398926 -0.723221242427825928
0.312083899974822998 3.36949467658996582 -0.49769178032875061
0.410439729690551758 3.31963610649108887 -0.60426253080368042
-2.31216549873352051 4.36993885040283203 -0.610164165496826172
-0.312237679958343506 0.850272595882415771 -0.410487055778503418
1.12925577163696289 -0.365574121475219727 -0.220582544803619385
1.42558705806732178 3.43363666534423828 1.18201768398284912
-0.428580641746520996 4.12457036972045898 -0.65122675895690918
-1.84107279777526855 4.72204875946044922 0.0689005479216575623
0.540827691555023193 3.20000576972961426 -0.584154069423675537
-1.58441436290740967 4.43968772888183594 -0.61497950553894043
2.45771574974060059 2.18251609802246094 -0.272555768489837646
-0.536548376083374023 4.65213775634765625 -0.413286775350570679
0.23725968599319458 3.48562002182006836 -0.329512953758239746
-1.40563225746154785 4.20007467269897461 -0.673731565475463867
1.44037699699401855 2.59641337394714355 0.0874106287956237793
-1.31321811676025391 4.69225502014160156 -0.682560920715332031
0.301702141761779785 3.3716590404510498 -0.574022471904754639
0.354020446538925171 3.33342909812927246 -0.508794724941253662
-2.11289405822753906 4.5852656364440918 -0.2174786776304245
0.304842531681060791 3.37725019454956055 -0.535008013248443604
0.905447065830230713 5.06788778305053711 -0.83972620964050293
-1.07422196865081787 6.79475593566894531 2.50771522521972656
-0.926480293273925781 2.6755225658416748 -0.639767169952392578
1.54011309146881104 7.38810968399047852 2.39981913566589355
0.298413097858428955 3.36895012855529785 -0.509187221527099609
-0.823669910430908203 3.28485608100891113 -0.572739779949188232
0.556911170482635498 5.74165105819702148 2.51169776916503906
1.82650184631347656 0.183471202850341797 -0.916150689125061035
-1.33036446571350098 4.72437429428100586 -0.62049633264541626
0.894710361957550049 0.0361323356628417969 -0.521918237209320068
-3.09904193878173828 1.8122478723526001 -0.0120272934436798096
0.314722061157226562 3.36779117584228516 -0.461063951253890991
-0.0506014823913574219 3.84928083419799805 -0.900146722793579102
-0.602614521980285645 4.15902376174926758 -0.415418386459350586
0.325124979019165039 3.34098172187805176 -0.503811359405517578
-0.583814144134521484 7.00242900848388672 2.4979100227355957
-0.200441628694534302 5.87993001937866211 2.49457645416259766
0.266511023044586182 3.35549092292785645 -0.438559949398040771
-0.369985431432723999 0.877162814140319824 -0.326194614171981812
-1.01892316341400146 6.95762348175048828 2.53583812713623047
-0.226526021957397461 4.39300346374511719 -0.516850113868713379
-0.587947607040405273 4.51012754440307617 0.219421565532684326
1.28848552703857422 8.13263607025146484 2.31196379661560059
-1.66743266582489014 4.65959692001342773 -0.727257788181304932
1.82153213024139404 2.31718587875366211 -0.630750119686126709
-0.4386100172996521 1.49711251258850098 -0.893582046031951904
0.88277202844619751 3.78859663009643555 1.62287533283233643
1.32536983489990234 6.86778545379638672 2.5344843864440918
0.298213571310043335 3.37171792984008789 -0.526805996894836426
0.313021004199981689 3.37131547927856445 -0.462853819131851196
1.16232883930206299 7.38782215118408203 2.2026221752166748
-1.54772865772247314 4.71319341659545898 1.17652761936187744
0.299891948699951172 3.36578178405761719 -0.553116679191589355
0.314476907253265381 3.45667409896850586 -0.483230352401733398
0.567475736141204834 5.48526430130004883 0.614946246147155762
2.15905857086181641 1.54832923412322998 0.238513767719268799
-2.14761877059936523 3.53015279769897461 -0.7107391357421875
2.16574573516845703 7.77929067611694336 2.4991905689239502
-1.21738159656524658 4.8258209228515625 1.03899908065795898
-0.977754831314086914 7.21870708465576172 2.47637271881103516
0.413186013698577881 3.35981130599975586 -0.623015105724334717
0.767050981521606445 6.64678287506103516 2.30371952056884766
0.161930769681930542 3.45722174644470215 -0.139308109879493713
0.321570426225662231 3.36639308929443359 -0.481097161769866943
1.30117940902709961 -0.638098239898681641 -0.700084924697875977
3.43527078628540039 -0.580376625061035156 -0.142344295978546143
0.308311343193054199 3.36274242401123047 -0.470315873622894287
0.203246146440505981 3.37933349609375 -0.591208398342132568
-0.240369230508804321 6.64812994003295898 2.47747230529785156
0.602724134922027588 3.20177555084228516 -0.024738408625125885
-0.0582876130938529968 3.28078794479370117 -0.677681267261505127
-1.70492351055145264 2.8477325439453125 -0.546099305152893066
-1.18571901321411133 2.60915303230285645 -0.462156385183334351
0.455763280391693115 5.80898094177246094 2.490753173828125
0.316450148820877075 3.37336063385009766 -0.478834956884384155
-2.78131103515625 4.54527187347412109 -0.182226210832595825
0.515640556812286377 7.39811086654663086 2.26748299598693848
0.0490675345063209534 5.11026096343994141 -0.4171866774559021
1.92026352882385254 2.86201786994934082 -0.63807976245880127
-0.920106172561645508 2.00736165046691895 -0.343377470970153809
2.09309864044189453 2.36807417869567871 -0.773851633071899414
-0.379941582679748535 5.98787307739257812 2.06973171234130859
1.28477060794830322 2.69130706787109375 0.700647234916687012
0.246755927801132202 6.48950910568237305 2.18269133567810059
0.307631164789199829 3.37722921371459961 -0.530649960041046143
-0.218468993902206421 5.02992439270019531 0.228258728981018066
-0.900097250938415527 3.77733206748962402 -0.718715429306030273
0.318732529878616333 3.37250566482543945 -0.531295537948608398
-1.71398365497589111 4.67894887924194336 -0.316442251205444336
0.24644799530506134 5.91784906387329102 2.52911233901977539
