ply
format ascii 1.0
element vertex 99
comment vertices
property float x
property float y
property float z
end_header
1.1287614107131958 4.11720085144042969 -0.609736740589141846
-0.0832076668739318848 3.17489051818847656 -0.697242140769958496
-1.686531662940979 4.03034687042236328 -0.779082715511322021
-0.257331818342208862 3.24803853034973145 -0.504571080207824707
1.06217789649963379 4.0386962890625 -0.887152254581451416
-0.240600079298019409 3.2408597469329834 -0.541964054107666016
-0.0723829567432403564 3.2873389720916748 -0.774810314178466797
-0.316610395908355713 3.27355289459228516 -0.554905414581298828
-0.221393078565597534 3.23798394203186035 -0.516880989074707031
-0.242536753416061401 3.23707270622253418 -0.571134626865386963
-0.22184339165687561 3.21826696395874023 -0.583486616611480713
-0.336755871772766113 3.15842151641845703 -0.320637941360473633
-0.251711130142211914 3.21580767631530762 -0.481025755405426025
-0.229043379426002502 3.24950504302978516 -0.579371392726898193
-1.64988434314727783 4.06530427932739258 -0.788159728050231934
-0.0936895459890365601 3.2002406120300293 -0.689644098281860352
1.01163125038146973 4.02326393127441406 -0.904116690158843994
-0.205036729574203491 3.22106289863586426 -0.587580442428588867
-0.202982619404792786 3.21961712837219238 -0.604490458965301514
-0.272023886442184448 3.23985481262207031 -0.462722152471542358
-1.60683906078338623 4.04581069946289062 -0.759492397308349609
-1.73306381702423096 4.01778411865234375 -0.791232407093048096
-1.67978906631469727 4.0068058967590332 -0.798970222473144531
-0.246166229248046875 3.24069309234619141 -0.568597137928009033
-0.562403500080108643 3.32685327529907227 -0.640838623046875
-0.258287429809570312 3.24154162406921387 -0.516777098178863525
-1.35521209239959717 3.91454172134399414 -0.741280794143676758
-0.222675621509552002 3.23478126525878906 -0.50240093469619751
-0.236699655652046204 3.24356627464294434 -0.567338705062866211
-0.2571677565574646 3.23728752136230469 -0.514767467975616455
-0.256567299365997314 3.24522686004638672 -0.53147357702255249
-0.256419599056243896 3.23955440521240234 -0.448033541440963745
-0.239456504583358765 3.23536372184753418 -0.554510056972503662
-0.237136855721473694 3.22715377807617188 -0.570036590099334717
-0.245616436004638672 3.24868941307067871 -0.498665153980255127
1.16048526763916016 4.12793397903442383 -0.607199370861053467
1.19510555267333984 4.12431001663208008 -0.813797295093536377
-0.250526279211044312 3.23593950271606445 -0.430675625801086426
-0.257624775171279907 3.23815798759460449 -0.509779870510101318
1.15404236316680908 4.03866481781005859 -0.892494559288024902
0.31656193733215332 4.12436103820800781 -0.935395359992980957
-0.261216431856155396 3.23675036430358887 -0.516916751861572266
-0.271538227796554565 3.25675082206726074 -0.391789704561233521
-0.118056945502758026 3.13698244094848633 -0.697069287300109863
1.14512121677398682 4.03265666961669922 -0.859387516975402832
-0.21750524640083313 3.19732475280761719 -0.621389269828796387
-0.262827068567276001 3.22528600692749023 -0.512271344661712646
-0.258313268423080444 3.2378544807434082 -0.508540868759155273
1.09666919708251953 4.04404163360595703 -0.907943248748779297
1.01515865325927734 4.02208232879638672 -0.902002096176147461
-1.59298765659332275 4.05233669281005859 -0.747121632099151611
-1.67185330390930176 4.06952619552612305 -0.78613734245300293
-0.211973235011100769 3.22131061553955078 -0.595180988311767578
-1.67289531230926514 4.07375288009643555 -0.796736240386962891
-0.505093038082122803 3.34900689125061035 -0.598636746406555176
-1.67683815956115723 4.05126714706420898 -0.760605692863464355
-0.252770453691482544 3.24040794372558594 -0.538507342338562012
-0.235107794404029846 3.23091220855712891 -0.547412872314453125
1.02842450141906738 4.03349685668945312 -0.896530270576477051
-0.235232830047607422 3.23978471755981445 -0.534224033355712891
-0.255871802568435669 3.24051880836486816 -0.506528317928314209
-0.241119921207427979 3.23906111717224121 -0.560102641582489014
-0.224362492561340332 3.23094058036804199 -0.50546717643737793
-1.50134873390197754 4.0234370231628418 -0.779140293598175049
-0.244095101952552795 3.23798966407775879 -0.455831706523895264
-0.237376466393470764 3.23042941093444824 -0.534721553325653076
-0.220780849456787109 3.24752688407897949 -0.597754299640655518
-0.236417427659034729 3.24454712867736816 -0.541383504867553711
1.02728056907653809 4.04692888259887695 -0.782852828502655029
-0.253068327903747559 3.23601198196411133 -0.520155251026153564
-0.251890480518341064 3.24910640716552734 -0.548079192638397217
-0.254438847303390503 3.24860239028930664 -0.548424363136291504
-0.247215256094932556 3.24201440811157227 -0.537108540534973145
-0.245673894882202148 3.23821306228637695 -0.580732226371765137
-0.251905143260955811 3.23487710952758789 -0.432017326354980469
-0.233075663447380066 3.2511591911315918 -0.587565004825592041
-1.66929972171783447 4.05814361572265625 -0.804606080055236816
1.20250117778778076 4.11916923522949219 -0.553715050220489502
-0.187560439109802246 3.23895454406738281 -0.630216538906097412
-0.24319121241569519 3.23182058334350586 -0.537403583526611328
-1.68635988235473633 4.04543495178222656 -0.758139133453369141
-0.230046495795249939 3.20489859580993652 -0.474743545055389404
-0.234223306179046631 3.23750090599060059 -0.547458648681640625
-0.252053141593933105 3.22099757194519043 -0.481322050094604492
-0.244041606783866882 3.25859880447387695 -0.387034296989440918
-1.65058279037475586 4.06848621368408203 -0.798174619674682617
-0.240215986967086792 3.24546074867248535 -0.56471484899520874
-0.259162425994873047 3.2328648567199707 -0.499361544847488403
-0.265781939029693604 3.22249531745910645 -0.431489735841751099
-0.237276703119277954 3.24583315849304199 -0.572465837001800537
1.29829502105712891 4.09368753433227539 -0.87904655933380127
-0.228073179721832275 3.22603368759155273 -0.544008553028106689
-0.222286790609359741 3.24359416961669922 -0.594273269176483154
-0.235241875052452087 3.23099994659423828 -0.56764376163482666
-0.227918282151222229 3.24417328834533691 -0.596994876861572266
-0.249876707792282104 3.25074243545532227 -0.550135791301727295
-1.71690917015075684 4.02761125564575195 -0.781979918479919434
-0.252770900726318359 3.24243283271789551 -0.449016958475112915
-0.251882880926132202 3.22442913055419922 -0.555298328399658203
