ply
format ascii 1.0
element vertex 256
comment vertices
property float x
property float y
property float z
end_header
-0.107474803924560547 2.58936119079589844 -0.585412144660949707
-3.38050508499145508 8.12132358551025391 2.11712908744812012
-0.518183410167694092 4.80769586563110352 1.51028919219970703
1.17291831970214844 2.30443692207336426 0.114934623241424561
-2.0007936954498291 5.87837600708007812 -0.525208413600921631
-0.0104757174849510193 3.80645585060119629 -0.598141312599182129
-2.68564605712890625 5.25465154647827148 1.18114376068115234
0.0367351174354553223 2.4438323974609375 -0.537209391593933105
-1.01529622077941895 6.47614192962646484 0.346995174884796143
0.585269391536712646 3.51626706123352051 1.05470538139343262
-2.31747961044311523 6.62698984146118164 1.79291903972625732
-1.8004227876663208 3.26162624359130859 -0.648215115070343018
0.128494486212730408 2.45429801940917969 -0.448960453271865845
0.0737814530730247498 2.47512960433959961 -0.372537463903427124
-0.87890392541885376 5.00186014175415039 -0.302994430065155029
-2.87323665618896484 5.25425624847412109 0.0706387311220169067
-0.0309934020042419434 2.6240537166595459 -0.327566593885421753
-1.48981618881225586 5.64506149291992188 1.39621496200561523
-0.580116152763366699 4.13590097427368164 0.276473283767700195
-1.99432051181793213 5.63309192657470703 0.278830736875534058
-0.011875152587890625 2.45025253295898438 -0.442327737808227539
-1.28551936149597168 5.07519960403442383 0.609228551387786865
-1.84648323059082031 2.97131586074829102 -0.655524015426635742
-0.0127448141574859619 2.43237614631652832 -0.471705257892608643
0.0494018793106079102 2.49219822883605957 -0.413975059986114502
-1.74083709716796875 5.49610996246337891 -0.265082985162734985
1.24289941787719727 2.92597579956054688 0.887458562850952148
0.00732633098959922791 4.15714693069458008 1.26461243629455566
-0.81472247838973999 4.50020217895507812 -0.520603418350219727
0.489863693714141846 2.65355587005615234 -0.537389218807220459
0.278241515159606934 2.45040273666381836 -0.473205387592315674
-0.239882022142410278 3.24579238891601562 -0.165689378976821899
-0.0407883524894714355 2.50237178802490234 -0.513471424579620361
-1.77684378623962402 5.46992015838623047 0.102013647556304932
-2.12125492095947266 5.75996494293212891 1.18688380718231201
-2.35430479049682617 5.69060611724853516 -0.145201176404953003
1.59545743465423584 2.18966960906982422 -0.566292524337768555
-0.740288853645324707 4.28387641906738281 -0.240452080965042114
0.130308911204338074 2.47540569305419922 -0.549021363258361816
0.0307248234748840332 2.49803638458251953 -0.471063971519470215
-1.80779683589935303 5.92269277572631836 0.679352462291717529
-2.68614625930786133 7.11082983016967773 1.78364574909210205
0.149999141693115234 2.38841462135314941 -0.294884622097015381
-2.5798795223236084 5.48602628707885742 0.584236741065979004
-1.85747718811035156 3.06601166725158691 -0.60290980339050293
-0.848257184028625488 4.55697393417358398 0.707581400871276855
0.0889412164688110352 3.14637637138366699 0.132977962493896484
1.04711496829986572 2.21191906929016113 -0.248259320855140686
-0.980300247669219971 5.26499700546264648 1.61202752590179443
-2.39430999755859375 5.21801853179931641 0.192587882280349731
-0.209236845374107361 3.73875737190246582 0.576920568943023682
-1.98281979560852051 6.18229007720947266 1.35286259651184082
0.111168026924133301 2.42123723030090332 -0.463190048933029175
-1.08734190464019775 6.07741308212280273 0.0159721672534942627
-3.04728174209594727 5.07370948791503906 0.406329333782196045
0.113027796149253845 2.42810940742492676 -0.387789338827133179
0.534862101078033447 2.88261890411376953 0.180012226104736328
-0.305642068386077881 4.11729764938354492 -0.349087417125701904
-1.54450547695159912 5.50350666046142578 0.78903573751449585
-1.22986161708831787 5.57564210891723633 -0.24405980110168457
-0.0309633612632751465 2.459014892578125 -0.424737483263015747
0.145214200019836426 2.47167682647705078 -0.429379045963287354
-1.97858738899230957 5.82405996322631836 0.0456900596618652344
-1.83099961280822754 2.97361516952514648 -0.599401116371154785
1.5781327486038208 2.30036687850952148 -0.552925169467926025
0.0829061269760131836 2.4160459041595459 -0.400101810693740845
-0.492522180080413818 4.34489250183105469 -0.43826785683631897
-1.86935508251190186 5.61212491989135742 -0.441487371921539307
-1.1070396900177002 4.96732139587402344 1.03891825675964355
-0.00322079658508300781 2.46677613258361816 -0.473231732845306396
-0.12981414794921875 2.65519857406616211 -0.579847097396850586
-1.17321920394897461 4.42038488388061523 0.181583285331726074
-0.1709175705909729 2.6035914421081543 -0.401974141597747803
0.0237258672714233398 2.39729905128479004 -0.4359169602394104
1.53759336471557617 2.2633659839630127 -0.563798904418945312
-1.83850860595703125 3.01842784881591797 -0.619744837284088135
0.820525467395782471 3.22638726234436035 0.77219003438949585
-2.3674461841583252 5.46550798416137695 0.148177891969680786
0.169354423880577087 2.4268791675567627 -0.457183241844177246
-0.358654022216796875 4.0933995246887207 -0.763467550277709961
0.0961514413356781006 2.48653936386108398 -0.375032335519790649
-2.45434188842773438 6.74498653411865234 1.42877209186553955
-2.59320616722106934 5.34530353546142578 -0.324507325887680054
-1.79164397716522217 2.91425824165344238 -0.635978400707244873
-0.144056379795074463 2.52227449417114258 -0.545021772384643555
-2.38734006881713867 5.6898188591003418 -0.0978397130966186523
-0.589210212230682373 3.99699831008911133 -0.126162111759185791
1.25332510471343994 2.58955478668212891 0.620238542556762695
-0.319449871778488159 4.49890327453613281 1.20563364028930664
-2.38948535919189453 5.51753711700439453 1.03231072425842285
0.266101032495498657 3.82339096069335938 1.14419770240783691
-1.94988667964935303 5.86476707458496094 0.771637320518493652
-0.296062499284744263 4.12031459808349609 0.751617550849914551
0.94041132926940918 2.41847634315490723 0.0546889901161193848
-2.34001445770263672 5.14671039581298828 -0.0724226087331771851
1.4913480281829834 2.34581589698791504 -0.59897923469543457
0.0894060134887695312 2.68300175666809082 -0.419270753860473633
-2.75487875938415527 5.36079692840576172 0.209787607192993164
-1.37108445167541504 5.29082393646240234 1.11832904815673828
0.089171484112739563 2.5081331729888916 -0.426977008581161499
0.110800057649612427 2.48894190788269043 -0.42252957820892334
-1.65449750423431396 5.69283723831176758 0.389510273933410645
-0.655880391597747803 3.73822999000549316 -0.331648170948028564
0.120203912258148193 2.47188043594360352 -0.427416980266571045
-0.396941959857940674 4.05529642105102539 0.0996236801147460938
0.0959499478340148926 2.34418249130249023 -0.471031337976455688
-1.77715659141540527 5.90980291366577148 1.624886155128479
-1.79665052890777588 3.15698504447937012 -0.621925294399261475
0.136052429676055908 2.41142082214355469 -0.439243793487548828
-2.721160888671875 5.22229862213134766 0.60095059871673584
-0.110177934169769287 2.60001754760742188 -0.342015445232391357
-1.85454916954040527 5.87635374069213867 1.15890622138977051
-0.00346505641937255859 2.47751045227050781 -0.36865234375
-0.302362889051437378 4.33533525466918945 -0.479584872722625732
0.66883397102355957 2.35099005699157715 -0.105617702007293701
0.0160529613494873047 2.47088146209716797 -0.385103493928909302
-2.19409751892089844 5.63566350936889648 -0.390169858932495117
0.0787340402603149414 2.46484041213989258 -0.410362064838409424
-1.83323478698730469 6.35631847381591797 1.83534789085388184
-2.31925368309020996 5.54509401321411133 0.700668215751647949
0.0229046940803527832 2.55093097686767578 -0.454455375671386719
-3.07055306434631348 4.95336008071899414 0.158607751131057739
0.420178651809692383 2.34073829650878906 -0.321628391742706299
0.0382916927337646484 2.44381475448608398 -0.45656973123550415
-1.30768275260925293 5.55014657974243164 1.68533706665039062
-1.98144471645355225 5.80113363265991211 -0.693465530872344971
-1.41014742851257324 5.33913755416870117 0.548102736473083496
0.151119440793991089 2.45062971115112305 -0.478399664163589478
-1.06402325630187988 4.80669450759887695 0.548429012298583984
0.396507084369659424 3.57083320617675781 0.675794363021850586
-1.83920371532440186 3.17049646377563477 -0.669843077659606934
-0.0358973145484924316 2.51794981956481934 -0.465896487236022949
0.0162919759750366211 2.55762100219726562 -0.22661590576171875
-2.76767754554748535 5.29227590560913086 -0.166078716516494751
-0.385434061288833618 3.49395442008972168 -0.166690409183502197
0.119049489498138428 3.05147743225097656 0.0469726920127868652
-1.39175474643707275 5.46142482757568359 -0.0125505030155181885
-1.07926833629608154 6.28845071792602539 0.220691293478012085
-1.86690795421600342 5.97105693817138672 1.14819502830505371
-0.654881834983825684 4.18065214157104492 -0.0488533973693847656
-2.07827520370483398 5.34785270690917969 -0.314490973949432373
0.0308350920677185059 2.51134753227233887 -0.52167046070098877
1.54591631889343262 2.3043830394744873 -0.580283284187316895
1.05846679210662842 2.76246309280395508 0.51584625244140625
0.182530611753463745 2.53127717971801758 -0.377300232648849487
-2.21793127059936523 6.50241661071777344 1.46610164642333984
-0.78917926549911499 4.77569818496704102 -0.197144269943237305
-1.85455191135406494 3.18030118942260742 -0.622438907623291016
-0.762637019157409668 5.02108478546142578 1.44732344150543213
-1.91062450408935547 5.83876609802246094 0.325103878974914551
-0.681670665740966797 4.80362272262573242 1.11920750141143799
-0.667672336101531982 4.31433200836181641 0.538060843944549561
-1.32662868499755859 5.28873443603515625 0.85886538028717041
0.0593808293342590332 2.40438961982727051 -0.46675264835357666
0.120221883058547974 2.44096183776855469 -0.508752584457397461
0.202416360378265381 2.37427234649658203 -0.487210750579833984
0.00784707069396972656 2.48689866065979004 -0.56079864501953125
-2.36094212532043457 5.50876569747924805 -0.164573058485984802
0.0252898335456848145 2.38466262817382812 -0.482111841440200806
0.0771230310201644897 2.45544743537902832 -0.421910762786865234
0.219122111797332764 2.50435423851013184 -0.444854199886322021
0.923626899719238281 2.98976469039916992 0.611106336116790771
0.0964075028896331787 2.48973965644836426 -0.423296272754669189
-1.05015790462493896 4.88177490234375 0.82088315486907959
0.0276961624622344971 3.97507381439208984 0.956384837627410889
-1.06509494781494141 5.45243024826049805 -0.278516918420791626
-0.159933239221572876 3.95734262466430664 -0.429552435874938965
0.0224195122718811035 3.05505990982055664 -0.132359206676483154
-0.423639893531799316 4.00723075866699219 0.426775217056274414
0.120263896882534027 2.52947402000427246 -0.418779104948043823
-0.370574593544006348 3.96131658554077148 -0.227086633443832397
-0.880680203437805176 4.54629182815551758 -0.296514749526977539
-0.0654578804969787598 2.58898806571960449 -0.371880829334259033
-1.76613008975982666 3.06623053550720215 -0.61797642707824707
-1.51200079917907715 5.78678417205810547 0.855351090431213379
0.301510095596313477 2.22637057304382324 -0.216794341802597046
0.0964052975177764893 2.45673704147338867 -0.365496963262557983
0.018188178539276123 2.43728351593017578 -0.486697971820831299
-2.38344383239746094 5.17340517044067383 0.0711781978607177734
-2.26143455505371094 5.50491142272949219 -0.168098300695419312
-2.40549206733703613 5.47564029693603516 -0.327246725559234619
-1.47428023815155029 5.67494297027587891 -0.0382528305053710938
0.166946828365325928 2.51403260231018066 -0.382206529378890991
1.00694966316223145 2.24778366088867188 -0.0475226640701293945
1.46774744987487793 2.28601312637329102 -0.462656706571578979
1.57667040824890137 2.32426738739013672 -0.629758477210998535
0.177256405353546143 2.37820196151733398 -0.424403399229049683
1.40147984027862549 2.26792120933532715 -0.67694401741027832
-1.78735446929931641 2.98834753036499023 -0.583232283592224121
0.131030306220054626 2.48379826545715332 -0.413183629512786865
-1.59251844882965088 5.54345321655273438 1.08061575889587402
1.59152603149414062 2.2797088623046875 -0.615767717361450195
-2.53355121612548828 5.36100292205810547 0.0537947416305541992
-1.97903192043304443 5.51509475708007812 -0.101671516895294189
0.0471965372562408447 2.49561715126037598 -0.492493927478790283
-0.55845189094543457 2.49978494644165039 -0.62001490592956543
-2.3352806568145752 6.81166172027587891 1.94176018238067627
-2.43642616271972656 5.45498943328857422 0.43558502197265625
1.48119139671325684 2.32831072807312012 -0.463953554630279541
-0.017322540283203125 2.49836993217468262 -0.392742425203323364
0.150755822658538818 2.48111701011657715 -0.437848865985870361
0.0403836965560913086 2.45573115348815918 -0.450677663087844849
-1.58781766891479492 2.94628405570983887 -0.547380387783050537
0.630252361297607422 3.40522980690002441 0.758732914924621582
-1.03938877582550049 4.37849617004394531 -0.107350289821624756
0.513545393943786621 3.05136346817016602 0.352594971656799316
-2.95377802848815918 5.066802978515625 0.769961357116699219
-1.02640926837921143 4.48924970626831055 0.480584919452667236
-1.17553997039794922 5.44041919708251953 1.44022345542907715
0.196011483669281006 2.45080804824829102 -0.437058389186859131
-2.06980419158935547 5.86026668548583984 -0.509196221828460693
-2.53913378715515137 5.3899683952331543 0.867267012596130371
-0.935306072235107422 6.37697887420654297 0.151164710521697998
1.55737173557281494 2.14849019050598145 -0.599862515926361084
-0.0369846224784851074 2.71167492866516113 -0.34881591796875
0.125700682401657104 2.51341629028320312 -0.406892448663711548
-0.202915430068969727 4.30186605453491211 1.08610701560974121
-1.90651226043701172 3.10937070846557617 -0.572508692741394043
0.404407590627670288 3.69814634323120117 0.971188187599182129
1.39548492431640625 2.45918893814086914 -0.590118229389190674
-2.15645575523376465 5.72339391708374023 0.958902478218078613
1.03718030452728271 3.10078239440917969 0.941132009029388428
0.101436197757720947 2.43950891494750977 -0.436493486166000366
1.32091140747070312 2.56777167320251465 0.406937539577484131
1.65726447105407715 2.26204752922058105 -0.628480970859527588
-0.0314645171165466309 3.07841157913208008 -0.349582970142364502
-2.38668966293334961 5.47396087646484375 0.718582034111022949
-1.74024009704589844 5.90752124786376953 0.331030964851379395
0.153895020484924316 2.54628992080688477 -0.133012592792510986
0.158059298992156982 2.45018982887268066 -0.495844990015029907
-0.0220717787742614746 3.60039949417114258 0.337828397750854492
-2.65445566177368164 6.92370176315307617 1.53488373756408691
-0.660953819751739502 3.94037222862243652 -0.310824871063232422
-0.74078369140625 4.08778047561645508 -0.437815397977828979
0.112946197390556335 2.54536795616149902 -0.365902364253997803
0.180728018283843994 2.59066057205200195 -0.472450733184814453
0.0982590913772583008 2.42601346969604492 -0.434291869401931763
-0.394332140684127808 4.10315704345703125 0.224647283554077148
-1.9506380558013916 5.79730033874511719 0.147131264209747314
-0.432196497917175293 3.59600210189819336 -0.117699205875396729
-1.79566788673400879 5.86436700820922852 1.41785359382629395
-1.80328130722045898 3.03294086456298828 -0.673747599124908447
0.102279394865036011 2.46777439117431641 -0.459660083055496216
-0.543861687183380127 4.61835241317749023 1.0957033634185791
-2.88425755500793457 5.20213127136230469 0.308251291513442993
0.150002479553222656 2.47684144973754883 -0.407233893871307373
0.00633889436721801758 2.45574855804443359 -0.487599968910217285
-1.17517280578613281 5.22309732437133789 1.29427003860473633
-2.6252293586730957 5.38602066040039062 -0.13838505744934082
-1.46741414070129395 5.52962350845336914 0.401394665241241455
-0.635877013206481934 4.31596231460571289 0.830244064331054688
-0.0042997896671295166 2.47838115692138672 -0.384414374828338623
1.32443904876708984 2.79396772384643555 0.790028929710388184
-0.165360406041145325 3.82697033882141113 -0.335165470838546753
0.150831013917922974 2.51853513717651367 -0.425345957279205322
0.150210335850715637 2.45639848709106445 -0.42750886082649231
