ply
format ascii 1.0
element vertex 218
comment vertices
property float x
property float y
property float z
end_header
-1.09730124473571777 1.82329380512237549 -0.39079207181930542
2.55469489097595215 8.03771495819091797 2.38297677040100098
-1.00850248336791992 5.05396270751953125 1.10317850112915039
0.751833140850067139 4.11056232452392578 -0.701267361640930176
1.77733683586120605 4.86556196212768555 0.956799685955047607
-0.515644252300262451 7.86363935470581055 2.44005012512207031
0.829999864101409912 2.50618553161621094 -0.824780464172363281
-1.03345000743865967 3.3169867992401123 0.320409595966339111
0.466291576623916626 4.48900127410888672 -0.510534167289733887
0.393713533878326416 2.6850731372833252 -0.678333759307861328
1.09527683258056641 6.78311395645141602 2.49566769599914551
4.64745998382568359 2.59383249282836914 -0.462087929248809814
-1.52504110336303711 5.26616716384887695 -0.183442234992980957
-0.600683331489562988 5.27239179611206055 -0.671119570732116699
1.00864756107330322 3.53823041915893555 -0.579098045825958252
2.86327433586120605 6.65725183486938477 2.30822324752807617
-0.733891069889068604 4.44120264053344727 -0.444031983613967896
1.02387857437133789 8.10031604766845703 2.42502164840698242
-1.05770576000213623 3.41918253898620605 -0.573393523693084717
2.22290468215942383 4.85765838623046875 -0.667996227741241455
0.563633322715759277 5.10119199752807617 1.18275630474090576
-1.38593590259552002 4.79096508026123047 0.467844486236572266
-1.01156079769134521 2.49923467636108398 -0.128579244017601013
1.02637255191802979 4.02261161804199219 -0.312478452920913696
1.13888943195343018 3.45170927047729492 -0.60916978120803833
0.846214234828948975 2.50053238868713379 -0.823642849922180176
-0.968154013156890869 5.16776275634765625 0.236139342188835144
0.366075277328491211 7.16273832321166992 2.39775466918945312
1.13627898693084717 4.09932804107666016 -0.489996552467346191
-0.451086372137069702 4.27344703674316406 -0.698119223117828369
2.744903564453125 4.40862512588500977 -0.366655051708221436
-0.891526877880096436 5.02798604965209961 -0.523100972175598145
3.86764144897460938 5.03948831558227539 -0.570440530776977539
-1.40173459053039551 5.153594970703125 0.160709202289581299
0.838112056255340576 2.52565169334411621 -0.79588240385055542
2.2483515739440918 7.1547999382019043 2.43938636779785156
0.686676442623138428 3.14212250709533691 -0.719541430473327637
-1.15808343887329102 3.31279921531677246 -0.508378148078918457
0.589365541934967041 4.38123273849487305 -0.657105088233947754
0.975799441337585449 3.55733466148376465 -0.639043450355529785
3.04050326347351074 4.8831329345703125 0.750974416732788086
-0.541380763053894043 4.51071071624755859 -0.574554920196533203
-0.317976325750350952 1.74859797954559326 -0.715368509292602539
1.04592561721801758 4.07581615447998047 -0.403314024209976196
0.830285072326660156 4.73992109298706055 -0.613214194774627686
1.80428457260131836 7.91331624984741211 2.45061540603637695
-0.180847316980361938 5.17657184600830078 1.06683158874511719
-0.915717601776123047 5.03409910202026367 0.0755054280161857605
0.829631328582763672 2.50986361503601074 -0.809446394443511963
-1.22538506984710693 4.05637311935424805 0.170980840921401978
2.96110868453979492 4.21249055862426758 -0.475221693515777588
-0.888854265213012695 3.09679007530212402 -0.283044874668121338
-0.964177489280700684 4.15554380416870117 -0.452159255743026733
1.4188077449798584 4.80894088745117188 0.288684725761413574
1.26543962955474854 7.25513219833374023 2.20063591003417969
0.986759185791015625 3.56577587127685547 -0.595124363899230957
-1.14569771289825439 4.37205982208251953 0.563874721527099609
1.11215066909790039 4.05903244018554688 -0.446965545415878296
0.907462835311889648 5.17434597015380859 -0.199874371290206909
-1.07626736164093018 4.98460626602172852 0.653239607810974121
-0.991876482963562012 2.07603216171264648 -0.306741446256637573
-0.8720245361328125 4.4725189208984375 -0.596587300300598145
2.50253582000732422 4.92370843887329102 -0.7614402174949646
0.841981410980224609 2.51220059394836426 -0.82398146390914917
-0.238884329795837402 4.51026391983032227 -0.590925693511962891
-0.915124833583831787 5.02474117279052734 -0.0931186005473136902
1.23196089267730713 -0.0541796684265136719 -0.811008214950561523
-0.979359030723571777 5.17536592483520508 -0.219486847519874573
-1.11726534366607666 3.79355120658874512 -0.547154843807220459
0.325877368450164795 6.8050994873046875 2.43642091751098633
1.16714608669281006 4.10765886306762695 -0.477290838956832886
2.20176482200622559 4.87653875350952148 0.92930150032043457
0.84505009651184082 2.47213315963745117 -0.847469568252563477
-0.490219831466674805 5.22211551666259766 0.562628269195556641
0.837360024452209473 2.49507975578308105 -0.834186017513275146
-0.739680051803588867 4.07041501998901367 -0.662094473838806152
-0.72402721643447876 5.14045619964599609 -0.338871419429779053
2.33663558959960938 4.29571247100830078 -0.392545193433761597
-0.975020468235015869 3.314910888671875 -0.558187723159790039
1.0256340503692627 3.49526786804199219 -0.638091921806335449
1.73560810089111328 6.9342041015625 2.56557607650756836
1.0768357515335083 4.07755184173583984 -0.435942500829696655
-2.03591442108154297 4.2318115234375 -0.443235695362091064
-0.349282026290893555 3.2410285472869873 -0.757383942604064941
0.514102458953857422 3.99602699279785156 -0.709137022495269775
-0.959278643131256104 3.47321701049804688 -0.611409425735473633
0.818932890892028809 2.50742888450622559 -0.815269112586975098
0.586485028266906738 4.35254621505737305 -0.654829502105712891
-0.590385615825653076 2.96689200401306152 -0.292902678251266479
0.793087422847747803 2.88970613479614258 -0.732360482215881348
-0.142494067549705505 4.89486169815063477 -0.760875403881072998
-1.6657414436340332 2.34844064712524414 -0.662385463714599609
-0.965449988842010498 5.04738616943359375 0.151847586035728455
3.21988391876220703 4.28046274185180664 0.0470580160617828369
0.824159979820251465 2.55488467216491699 -0.778349936008453369
0.850725054740905762 2.59641385078430176 -0.759989678859710693
0.907369732856750488 3.46517014503479004 -0.604495048522949219
1.11505794525146484 4.0564122200012207 -0.448032677173614502
2.93418788909912109 0.564605712890625 -0.780456781387329102
-1.09474802017211914 3.46595978736877441 -0.460448175668716431
-1.01246976852416992 3.24246335029602051 -0.49624285101890564
-1.20995509624481201 4.58382511138916016 0.74739450216293335
-0.611602604389190674 4.56746435165405273 -0.548952102661132812
-1.04066014289855957 4.80343055725097656 -0.662030696868896484
-1.11762988567352295 3.61102151870727539 0.358433336019515991
-1.07220685482025146 5.4115757942199707 -0.245090126991271973
0.838180124759674072 2.43416595458984375 -0.888679742813110352
0.838386774063110352 2.52515459060668945 -0.809573948383331299
0.924328863620758057 3.51697397232055664 -0.668591022491455078
-0.965415418148040771 5.06648778915405273 -0.119789302349090576
1.08651256561279297 4.09696769714355469 -0.414918988943099976
2.11452817916870117 6.45081567764282227 2.33792543411254883
-1.04147589206695557 4.16286849975585938 -0.322028577327728271
1.07347702980041504 4.06127405166625977 -0.352038949728012085
-1.15446817874908447 3.43234419822692871 -0.534491240978240967
0.340102344751358032 5.17484474182128906 0.758884847164154053
2.42456388473510742 4.89908742904663086 -0.363370597362518311
-1.07741189002990723 2.22317099571228027 -0.731280803680419922
-0.989135503768920898 3.58878111839294434 -0.58371657133102417
-1.05265569686889648 2.8561546802520752 -0.239761173725128174
1.08010411262512207 4.29150581359863281 -0.387193739414215088
-1.00207650661468506 1.87791991233825684 -0.25572851300239563
0.975694656372070312 3.40978598594665527 -0.633088529109954834
0.799696445465087891 3.51566576957702637 -0.677808165550231934
1.33601236343383789 4.5556492805480957 -0.0692099332809448242
0.999494194984436035 3.48900222778320312 -0.114792168140411377
-0.782238185405731201 4.45548200607299805 -0.640609025955200195
-0.22084420919418335 7.15516185760498047 2.37926578521728516
-0.82201850414276123 4.14500093460083008 -0.544256091117858887
-1.37909519672393799 3.7724006175994873 -0.633952856063842773
1.00513720512390137 3.57538104057312012 -0.61562114953994751
-1.04344832897186279 4.24264240264892578 -0.0620960965752601624
-0.806068539619445801 5.24663639068603516 0.404114753007888794
1.2659447193145752 8.10251331329345703 2.38830280303955078
0.837968170642852783 2.53059172630310059 -0.796111166477203369
2.84616780281066895 4.63413619995117188 0.0521565079689025879
-1.06738090515136719 4.19890499114990234 -0.383821874856948853
0.904392540454864502 3.4506525993347168 -0.594695806503295898
2.32898330688476562 4.70921564102172852 0.201677709817886353
0.993196487426757812 3.54821419715881348 -0.545490145683288574
0.618799567222595215 4.2899165153503418 -0.665051162242889404
3.86779570579528809 4.9898838996887207 0.239214926958084106
0.599057376384735107 7.0107417106628418 2.459228515625
-1.15647554397583008 4.77788400650024414 0.100517868995666504
3.92047619819641113 3.57834053039550781 -0.580044150352478027
-1.31396305561065674 1.81253635883331299 -0.350704193115234375
2.62656998634338379 6.98570537567138672 2.43050408363342285
0.844294309616088867 3.19133472442626953 -0.651781141757965088
-0.014208674430847168 1.13371372222900391 -0.789881765842437744
-2.32187366485595703 1.84287178516387939 -0.436020016670227051
0.80896228551864624 2.50862860679626465 -0.833647966384887695
2.05108332633972168 6.93361520767211914 2.54465460777282715
1.0995107889175415 4.06835365295410156 -0.389531612396240234
-1.19006192684173584 4.92702245712280273 0.349829912185668945
-0.644252777099609375 5.17108154296875 1.03651762008666992
-0.784475326538085938 5.11537599563598633 -0.353145182132720947
1.87716460227966309 2.8252251148223877 -0.435826361179351807
1.33368158340454102 0.946649074554443359 -0.965241312980651855
0.837324261665344238 2.50643706321716309 -0.828611493110656738
-0.796526193618774414 4.54919767379760742 -0.672887325286865234
0.84673619270324707 4.99274349212646484 0.996086061000823975
0.984924554824829102 3.41907739639282227 -0.65111154317855835
0.960837483406066895 3.55370378494262695 -0.614836454391479492
-0.264777839183807373 4.99665260314941406 -0.433650851249694824
1.02398526668548584 4.11751508712768555 -0.381349503993988037
0.833721518516540527 2.50740337371826172 -0.807322919368743896
-1.20335125923156738 4.23577547073364258 0.181694149971008301
-1.26747465133666992 3.80482721328735352 -0.545718133449554443
-1.79110050201416016 2.01553606986999512 -0.721582412719726562
0.821304202079772949 2.51874208450317383 -0.815742075443267822
0.419653981924057007 4.52922391891479492 -0.637333869934082031
0.319703161716461182 6.75853443145751953 2.4114539623260498
-0.698806583881378174 4.73893308639526367 -0.525665462017059326
-0.320965588092803955 5.06735944747924805 -0.668188512325286865
-1.18823480606079102 4.44514751434326172 0.45030173659324646
0.312091410160064697 3.80431008338928223 -0.672387897968292236
3.47257566452026367 4.92650270462036133 0.679137170314788818
1.05389547348022461 4.11359167098999023 -0.396671980619430542
1.45821297168731689 5.01100349426269531 0.849112927913665771
-1.04452085494995117 3.63084220886230469 -0.558522522449493408
0.837188005447387695 2.52940225601196289 -0.806363105773925781
3.63907170295715332 2.96395039558410645 -0.356217324733734131
1.10141646862030029 4.12436056137084961 -0.470879435539245605
0.835845530033111572 2.52841091156005859 -0.80770641565322876
0.840503096580505371 2.52387213706970215 -0.804494261741638184
0.6154022216796875 7.46809577941894531 2.44331812858581543
0.809758245944976807 7.22445058822631836 2.39107894897460938
-0.142696961760520935 4.1172027587890625 -0.729696094989776611
-1.12433445453643799 3.31658172607421875 -0.566380620002746582
-1.04229080677032471 4.73776483535766602 -0.264300882816314697
-0.343038797378540039 4.55957555770874023 -0.568734049797058105
1.09478867053985596 4.05840635299682617 -0.42024838924407959
-0.997111082077026367 5.20450544357299805 1.01303279399871826
-0.746442258358001709 3.0874326229095459 0.00146719813346862793
2.82839202880859375 4.69080638885498047 -0.458253353834152222
2.40482044219970703 4.96729326248168945 -0.777043819427490234
-1.07331240177154541 2.82501697540283203 -0.247875452041625977
-0.96140134334564209 5.05537652969360352 -0.114914797246456146
2.51755452156066895 4.7684941291809082 1.0004957914352417
2.13806653022766113 2.83891081809997559 -0.398311495780944824
0.822882890701293945 2.51005983352661133 -0.826581716537475586
0.889493167400360107 4.96479129791259766 0.25485914945602417
2.46528148651123047 4.82781410217285156 0.439642161130905151
0.836343765258789062 3.18898582458496094 -0.742201924324035645
1.17041993141174316 4.14680814743041992 -0.486530870199203491
3.19276142120361328 5.0764317512512207 0.226825535297393799
1.08302712440490723 4.02302932739257812 -0.428916960954666138
-0.414308160543441772 5.03964328765869141 0.879948854446411133
0.030385434627532959 3.48474240303039551 -0.674933254718780518
-1.2250664234161377 3.34830451011657715 -0.269800007343292236
0.838255226612091064 2.49979805946350098 -0.836307048797607422
-1.34949707984924316 5.26266717910766602 0.552328288555145264
-0.984185636043548584 3.30055332183837891 -0.602806508541107178
-0.619498908519744873 4.27908897399902344 -0.568716883659362793
3.05175447463989258 3.58085131645202637 -0.515729784965515137
2.84050154685974121 3.95499777793884277 -0.447193771600723267
3.29537773132324219 4.23543691635131836 -0.387392371892929077
0.983828902244567871 4.15886449813842773 -0.316549807786941528
