ply
format ascii 1.0
element vertex 118
comment vertices
property float x
property float y
property float z
end_header
-0.492116838693618774 2.4480435848236084 -0.561580240726470947
-0.476197510957717896 2.44598627090454102 -0.577366471290588379
-1.84389054775238037 3.60378050804138184 -1.0068279504776001
-0.483331471681594849 2.41937661170959473 -0.643873393535614014
-0.50731813907623291 2.45452880859375 -0.563178300857543945
-0.498874127864837646 2.45666813850402832 -0.563695013523101807
1.2768629789352417 2.97815155982971191 -0.875775694847106934
-0.770186841487884521 2.54326939582824707 -0.495135486125946045
-0.622632026672363281 2.50544929504394531 -0.572774112224578857
-0.532691240310668945 2.48105907440185547 -0.568559825420379639
-0.492876380681991577 2.46105265617370605 -0.554861366748809814
1.42924809455871582 2.96688532829284668 -0.858646035194396973
1.28021037578582764 2.96602082252502441 -0.89203190803527832
-0.481704115867614746 2.43576860427856445 -0.469647347927093506
-0.511932373046875 2.46012187004089355 -0.565384745597839355
-0.51512300968170166 2.4479985237121582 -0.581778049468994141
-0.615911483764648438 2.48595929145812988 -0.548030495643615723
-0.521448850631713867 2.46737456321716309 -0.578119933605194092
-0.496385931968688965 2.43053841590881348 -0.57873767614364624
-0.494523793458938599 2.46563839912414551 -0.565173327922821045
-0.436770409345626831 2.49291872978210449 -0.644313216209411621
-0.513477504253387451 2.47126126289367676 -0.585796117782592773
-0.547716438770294189 2.47998332977294922 -0.548612773418426514
-0.485394477844238281 2.45588254928588867 -0.556723952293395996
-0.533632755279541016 2.4722135066986084 -0.594184160232543945
-0.487478554248809814 2.44804286956787109 -0.572413027286529541
-0.491767048835754395 2.43491077423095703 -0.584282517433166504
-0.509271502494812012 2.45025825500488281 -0.56572800874710083
1.31101584434509277 2.98446846008300781 -0.871145308017730713
-0.5163726806640625 2.44633078575134277 -0.554307818412780762
-0.50273054838180542 2.42171740531921387 -0.540989995002746582
-0.55927199125289917 2.49103426933288574 -0.571092844009399414
1.28694939613342285 2.93736863136291504 -0.863306522369384766
-0.657983541488647461 2.49325680732727051 -0.522283196449279785
-0.533786892890930176 2.47269153594970703 -0.376085937023162842
-0.513484537601470947 2.46044445037841797 -0.563498198986053467
-0.497629761695861816 2.45293927192687988 -0.576558411121368408
1.30901038646697998 2.95353460311889648 -0.893099129199981689
-0.308320581912994385 2.47566127777099609 -0.693632721900939941
-0.573049426078796387 2.5507667064666748 -0.252762675285339355
-0.49173969030380249 2.4716486930847168 -0.602084517478942871
-0.628569960594177246 2.48538994789123535 -0.3707905113697052
1.28416883945465088 2.96400070190429688 -0.886718153953552246
-0.504297316074371338 2.44605016708374023 -0.578913092613220215
-0.519921660423278809 2.46060395240783691 -0.581863164901733398
1.3098447322845459 2.98832488059997559 -0.875127553939819336
-0.501817286014556885 2.43325948715209961 -0.5852242112159729
-0.561383664608001709 2.4834139347076416 -0.550736069679260254
-0.499707043170928955 2.45145153999328613 -0.579699993133544922
-0.509087860584259033 2.44403719902038574 -0.536701202392578125
-0.555611670017242432 2.46423244476318359 -0.475663721561431885
-0.513867855072021484 2.4618687629699707 -0.562967121601104736
-0.483252525329589844 2.41520500183105469 -0.542122244834899902
-0.51425778865814209 2.47176122665405273 -0.561277031898498535
-0.736210048198699951 2.48002004623413086 -0.554649114608764648
-0.515790104866027832 2.46466636657714844 -0.537290573120117188
-0.490561395883560181 2.4514622688293457 -0.580509185791015625
1.28487884998321533 2.97039675712585449 -0.875456392765045166
-0.502357363700866699 2.43169856071472168 -0.567747831344604492
-0.51595008373260498 2.46922969818115234 -0.587946951389312744
-0.479501992464065552 2.45442748069763184 -0.59768068790435791
-0.514856338500976562 2.47476983070373535 -0.571278572082519531
-0.521916866302490234 2.45650935173034668 -0.551949203014373779
-0.477216005325317383 2.43311810493469238 -0.658254146575927734
-0.486256539821624756 2.42380046844482422 -0.581771194934844971
-0.750495612621307373 2.54239273071289062 -0.477169603109359741
-0.492178767919540405 2.45453381538391113 -0.592448532581329346
-0.533622980117797852 2.47533297538757324 -0.575291335582733154
-0.534009814262390137 2.46823024749755859 -0.548169910907745361
1.28560340404510498 2.9424126148223877 -0.879207909107208252
-0.502864658832550049 2.45289492607116699 -0.581802070140838623
-0.549260556697845459 2.47327470779418945 -0.347154796123504639
1.41669321060180664 2.97972726821899414 -0.872525393962860107
-0.521168291568756104 2.38324189186096191 -0.626232802867889404
-0.502960383892059326 2.43373584747314453 -0.579919815063476562
-0.515062928199768066 2.46214056015014648 -0.567259728908538818
-0.500159025192260742 2.45678353309631348 -0.577469050884246826
1.29453635215759277 2.98735547065734863 -0.871114730834960938
-0.528322577476501465 2.48033905029296875 -0.497390210628509521
1.33706212043762207 2.97721052169799805 -0.869388103485107422
-0.514023303985595703 2.44553327560424805 -0.583023190498352051
-0.554347515106201172 2.49236655235290527 -0.587048768997192383
-0.509437382221221924 2.45974016189575195 -0.573540091514587402
1.2970508337020874 2.97319912910461426 -0.881873786449432373
-0.562652707099914551 2.49122095108032227 -0.591148316860198975
-0.511933386325836182 2.44644045829772949 -0.570961415767669678
1.29680252075195312 2.99265861511230469 -0.87794041633605957
-0.484941840171813965 2.44959807395935059 -0.612001478672027588
-0.506294906139373779 2.43438482284545898 -0.574725985527038574
-0.521962940692901611 2.47430682182312012 -0.540399432182312012
-0.263895601034164429 2.44061517715454102 -0.73182600736618042
1.29954016208648682 2.9825284481048584 -0.864329934120178223
-0.592795014381408691 2.4861295223236084 -0.36481398344039917
-0.511808276176452637 2.45158624649047852 -0.575327634811401367
-0.50553286075592041 2.43400144577026367 -0.574368417263031006
-0.483110696077346802 2.46152448654174805 -0.583126306533813477
-0.407284647226333618 2.43280696868896484 -0.425661236047744751
-0.507510542869567871 2.45606374740600586 -0.555265188217163086
-0.49944499135017395 2.43118810653686523 -0.579116284847259521
-0.48882707953453064 2.45939278602600098 -0.574029147624969482
1.34151744842529297 2.98799467086791992 -0.847925186157226562
-0.520232796669006348 2.4613490104675293 -0.575078070163726807
-0.495963186025619507 2.46053767204284668 -0.568334102630615234
-0.486396819353103638 2.46530604362487793 -0.587172031402587891
-0.676810562610626221 2.4777836799621582 -0.414700865745544434
-0.485876739025115967 2.45673441886901855 -0.596020042896270752
-0.497610330581665039 2.44682574272155762 -0.585509300231933594
-0.509083151817321777 2.46290278434753418 -0.573087811470031738
1.36924493312835693 2.96197628974914551 -0.831831634044647217
-0.522491335868835449 2.46986031532287598 -0.563553571701049805
-0.544648110866546631 2.47620511054992676 -0.527105093002319336
-0.763608396053314209 2.50499296188354492 -0.467613399028778076
-0.501487791538238525 2.42654561996459961 -0.430887043476104736
-0.459844797849655151 2.42728519439697266 -0.627305746078491211
-0.461297154426574707 2.46212959289550781 -0.654568016529083252
-0.509241819381713867 2.45781207084655762 -0.563482344150543213
-0.500260829925537109 2.45075106620788574 -0.561633944511413574
-0.530077993869781494 2.48256564140319824 -0.578396439552307129
