ply
format ascii 1.0
element vertex 225
comment vertices
property float x
property float y
property float z
end_header
1.45839691162109375 8.43141269683837891 0.538267135620117188
3.54980301856994629 4.76618099212646484 -0.155931040644645691
-2.35348248481750488 2.40479230880737305 -0.404912114143371582
2.73804473876953125 7.12315034866333008 -0.836457312107086182
0.847397089004516602 3.98757457733154297 0.371640533208847046
-1.69999313354492188 3.02611398696899414 -0.607719898223876953
4.38850784301757812 7.01941108703613281 -0.50817561149597168
-0.277827829122543335 2.94466972351074219 -0.397322326898574829
2.42611956596374512 3.35502457618713379 -0.814841508865356445
4.92266082763671875 9.11238670349121094 0.529311895370483398
0.139428779482841492 1.91169965267181396 -0.774362683296203613
2.79644203186035156 6.68748569488525391 1.00240135192871094
4.90595626831054688 5.84292984008789062 0.554142475128173828
1.20677304267883301 8.02570629119873047 -0.546914160251617432
3.12142109870910645 5.01048374176025391 -0.545258164405822754
-0.814406812191009521 3.68060731887817383 0.831975221633911133
0.363087177276611328 3.40998005867004395 -0.682722151279449463
-0.280813038349151611 2.92846250534057617 -0.400515198707580566
3.04903841018676758 2.74095821380615234 -0.169634222984313965
3.17500758171081543 5.40449762344360352 -0.298060774803161621
0.100040189921855927 1.92796921730041504 -0.773181617259979248
-0.285291761159896851 2.92643475532531738 -0.404909968376159668
-1.8059842586517334 3.59161138534545898 -0.727641940116882324
0.108455173671245575 1.87459647655487061 -0.798515796661376953
2.01257038116455078 7.46272611618041992 -0.704811215400695801
2.22685098648071289 6.60137033462524414 -0.115310847759246826
-0.275566250085830688 2.92790865898132324 -0.41061285138130188
-2.29738092422485352 3.2098236083984375 -0.534405350685119629
5.31920051574707031 7.10856914520263672 0.786131143569946289
2.73978447914123535 5.32585525512695312 -0.472039878368377686
-1.28637397289276123 2.87955999374389648 -0.650507450103759766
-0.204614877700805664 2.90096664428710938 -0.414859414100646973
3.35244870185852051 4.43193769454956055 -0.790636897087097168
-1.81296408176422119 3.5737760066986084 -0.728952944278717041
1.80914068222045898 7.67183256149291992 -0.625780165195465088
-0.104454584419727325 2.99388456344604492 -0.352118939161300659
2.35216760635375977 7.22259807586669922 -0.704871833324432373
-0.2840309739112854 2.92949366569519043 -0.40772777795791626
3.47914695739746094 2.80855083465576172 -0.484317779541015625
2.83858609199523926 5.07682514190673828 -0.250341504812240601
-0.106579624116420746 2.47096967697143555 -0.650270521640777588
-1.41428184509277344 3.64298748970031738 0.425252079963684082
-0.294297337532043457 2.93201732635498047 -0.396711349487304688
-0.267103642225265503 2.93127560615539551 -0.469560384750366211
-0.282580733299255371 2.93709516525268555 -0.368499726057052612
-1.77980411052703857 3.56486415863037109 -0.662888050079345703
0.840976595878601074 7.56645584106445312 -0.386283218860626221
3.1887366771697998 4.9226994514465332 -0.470826506614685059
0.144306391477584839 1.81371700763702393 -0.83167731761932373
0.0336826182901859283 1.76978933811187744 -0.860417664051055908
-0.291155815124511719 2.93601417541503906 -0.410273909568786621
2.04002571105957031 7.37787771224975586 -0.735925614833831787
2.80511713027954102 5.12458181381225586 -0.43691939115524292
-0.283848166465759277 2.92713642120361328 -0.400924533605575562
0.200602948665618896 3.93762350082397461 0.69122314453125
-1.65672683715820312 3.5771334171295166 -0.7210654616355896
-0.27710375189781189 2.92395353317260742 -0.426169008016586304
-0.245518073439598083 3.80035877227783203 0.667650282382965088
-0.290089309215545654 2.93559861183166504 -0.402764886617660522
-0.284766137599945068 2.9313960075378418 -0.404095172882080078
2.22769856452941895 7.62002706527709961 -0.423464834690093994
0.0709911808371543884 1.88658297061920166 -0.796100080013275146
0.071831628680229187 1.96655857563018799 -0.775672674179077148
3.43426609039306641 5.60896873474121094 -0.511681735515594482
5.08110523223876953 7.65370368957519531 1.31427836418151855
0.653553366661071777 2.39940738677978516 -0.603737294673919678
2.13604903221130371 7.78980398178100586 -0.609337925910949707
4.932891845703125 6.67125415802001953 0.444227695465087891
-1.23386704921722412 1.50001668930053711 -0.794088184833526611
-0.27753603458404541 2.94210553169250488 -0.378786206245422363
-0.286732614040374756 2.92784357070922852 -0.410440623760223389
-0.0455285906791687012 2.56142377853393555 -0.576907932758331299
0.436187207698822021 1.66142106056213379 -0.824211835861206055
-1.78800487518310547 3.5581357479095459 -0.653317868709564209
-0.288958251476287842 2.92781329154968262 -0.400479048490524292
1.95612192153930664 4.81175518035888672 -0.714371263980865479
1.34759914875030518 5.62765026092529297 0.194508373737335205
-0.295366525650024414 2.93008947372436523 -0.405542582273483276
-1.80488765239715576 3.60602545738220215 -0.745004534721374512
2.07262444496154785 7.45996809005737305 -0.750684022903442383
-0.267862141132354736 2.9266669750213623 -0.394414067268371582
2.77927207946777344 5.27297019958496094 -0.266624361276626587
0.37437736988067627 2.02117300033569336 -0.70952075719833374
-0.287900567054748535 2.94460010528564453 -0.38477027416229248
-0.296235978603363037 2.9353487491607666 -0.38836669921875
-0.938614726066589355 3.50096845626831055 -0.170650869607925415
1.16192376613616943 0.586201906204223633 -0.834004819393157959
-1.80281579494476318 3.60042834281921387 -0.739879310131072998
2.53748154640197754 3.94251847267150879 -0.822854995727539062
-1.81191515922546387 3.60925149917602539 -0.104922309517860413
-0.28296959400177002 2.92240619659423828 -0.428755998611450195
-1.81366193294525146 3.5248711109161377 -0.698492646217346191
2.5977330207824707 5.41573190689086914 -0.408192098140716553
2.76748967170715332 4.78041839599609375 -0.154504120349884033
2.85102152824401855 5.08424043655395508 -0.502909719944000244
-0.268843591213226318 2.93192696571350098 -0.432310163974761963
1.14117908477783203 1.42076528072357178 -0.592999160289764404
-0.274672359228134155 2.95792531967163086 -0.365673154592514038
3.07098913192749023 5.584991455078125 -0.144583389163017273
1.11404776573181152 7.96532201766967773 -0.409590989351272583
2.78596162796020508 5.09152889251708984 -0.312897443771362305
0.0382781699299812317 2.33117485046386719 -0.654350101947784424
2.43721628189086914 3.6448979377746582 -0.596207380294799805
-0.289652138948440552 2.9215998649597168 -0.414417803287506104
4.20834159851074219 2.18061065673828125 -0.658382296562194824
0.819914937019348145 7.44490385055541992 -0.14820563793182373
2.04810285568237305 7.64416646957397461 -0.638055145740509033
0.0771867558360099792 3.98392748832702637 -0.645609796047210693
-1.30869686603546143 3.03837394714355469 -0.576536476612091064
5.62180948257446289 6.92739725112915039 1.3929741382598877
-0.290978550910949707 2.95368075370788574 -0.383261144161224365
-0.287483096122741699 2.93612098693847656 -0.37897142767906189
0.868755817413330078 2.74797391891479492 -0.50170433521270752
1.92324542999267578 7.77440023422241211 -0.467865228652954102
2.98438096046447754 5.30119705200195312 -0.335903674364089966
0.313138455152511597 1.75691187381744385 -0.822241783142089844
0.08913373202085495 1.8868105411529541 -0.788188517093658447
2.90137386322021484 5.1125340461730957 -0.548934519290924072
3.2172703742980957 5.98355722427368164 0.365060269832611084
-1.81568562984466553 3.57751774787902832 -0.732748866081237793
-0.293030470609664917 2.91234803199768066 -0.440957397222518921
-0.280526041984558105 2.93176007270812988 -0.43471410870552063
2.95032525062561035 5.20138692855834961 -0.479133158922195435
2.08797597885131836 2.23129701614379883 -0.502229630947113037
2.0489342212677002 5.1959228515625 -0.574780285358428955
2.93718957901000977 5.29280424118041992 -0.247663557529449463
-0.284707337617874146 2.93393540382385254 -0.390550374984741211
2.14532256126403809 7.38200759887695312 -0.676809489727020264
2.51944684982299805 1.37900614738464355 -0.339877486228942871
-0.291901648044586182 2.93856549263000488 -0.395673453807830811
0.209334120154380798 1.78917968273162842 -0.815146565437316895
3.13889718055725098 5.06157016754150391 -0.456309080123901367
-0.283745437860488892 2.93668580055236816 -0.408211708068847656
1.69080603122711182 7.47214698791503906 0.300831913948059082
2.16325044631958008 8.19924831390380859 -0.589066445827484131
-0.287087768316268921 2.94543099403381348 -0.387165993452072144
0.140857040882110596 2.24041295051574707 -0.669866502285003662
-0.283643275499343872 2.94122624397277832 -0.386674374341964722
2.37346982955932617 4.46086454391479492 -0.57870018482208252
-0.282728731632232666 2.92365932464599609 -0.430138766765594482
-1.77215516567230225 3.59827780723571777 -0.78333669900894165
-1.20798110961914062 3.66621875762939453 0.668138861656188965
2.47817540168762207 5.32488059997558594 -0.561538159847259521
-0.285930514335632324 2.9341433048248291 -0.379911839962005615
0.0578203573822975159 1.86150884628295898 -0.811997890472412109
1.84859395027160645 4.90615558624267578 -0.216382145881652832
2.79906034469604492 4.93233108520507812 -0.238458290696144104
2.09502863883972168 2.89419960975646973 -0.267643988132476807
-0.271732807159423828 2.94027090072631836 -0.414149075746536255
-0.289337456226348877 2.92212009429931641 -0.41558372974395752
-0.282904893159866333 2.9196474552154541 -0.410738945007324219
-1.79344534873962402 3.56755471229553223 -0.72777479887008667
5.13326930999755859 7.26306486129760742 1.2644343376159668
-0.284167945384979248 2.92594623565673828 -0.407638490200042725
0.883804082870483398 4.75414371490478516 -0.511723995208740234
0.763063251972198486 3.51613616943359375 0.0926146805286407471
-1.76542139053344727 3.56247210502624512 -0.605148196220397949
-1.62708747386932373 3.60379290580749512 -0.189461946487426758
2.74848294258117676 5.15066909790039062 -0.303536474704742432
1.37141048908233643 5.86280202865600586 -1.03317797183990479
2.00458383560180664 7.32250833511352539 -0.799398601055145264
1.3007659912109375 7.32304191589355469 0.480570077896118164
-0.280491501092910767 2.93384599685668945 -0.401202797889709473
-1.5469132661819458 3.48681807518005371 0.0474764108657836914
0.970555901527404785 3.51218032836914062 -0.698473215103149414
3.52562618255615234 -0.21590423583984375 -0.965947151184082031
0.101818688213825226 2.30397462844848633 -0.71584630012512207
0.661162853240966797 3.96394538879394531 0.455083757638931274
0.421678751707077026 1.65430235862731934 -0.837197959423065186
-0.273547857999801636 2.9471900463104248 -0.368491232395172119
1.54031968116760254 2.0249783992767334 -0.763448119163513184
-0.239368349313735962 2.91316413879394531 -0.397329628467559814
-2.24893760681152344 3.18218469619750977 -0.433183133602142334
-0.368209928274154663 2.51510405540466309 -0.630457758903503418
-0.283777922391891479 2.93492007255554199 -0.399919241666793823
0.0081434100866317749 1.96834945678710938 -0.754886925220489502
0.0230515077710151672 1.8444666862487793 -0.817778587341308594
-0.284906595945358276 2.9343416690826416 -0.411223143339157104
2.09756064414978027 7.13268041610717773 -0.0847085416316986084
4.47960281372070312 5.55303859710693359 -0.394549369812011719
4.60359668731689453 6.51920986175537109 -0.198156118392944336
2.06642007827758789 7.33139753341674805 -0.749689102172851562
1.96062564849853516 7.56467342376708984 -0.735261917114257812
2.22548961639404297 7.29131317138671875 -0.773928940296173096
-0.90255129337310791 3.45376110076904297 0.563761591911315918
-0.284593284130096436 2.93103528022766113 -0.412528127431869507
1.92083775997161865 4.29861116409301758 -0.753110408782958984
-0.287340879440307617 2.93419051170349121 -0.398192048072814941
2.27741885185241699 7.52257823944091797 -0.754392385482788086
0.99149012565612793 2.88255763053894043 -0.633089303970336914
1.07208752632141113 7.56850099563598633 -0.707493305206298828
-0.291992992162704468 2.93348836898803711 -0.409111559391021729
-0.274439871311187744 2.93010568618774414 -0.451825737953186035
-0.290543496608734131 2.92724466323852539 -0.407744020223617554
-0.278657138347625732 2.92830038070678711 -0.389890700578689575
3.11566591262817383 3.2153627872467041 -0.555614113807678223
3.07844686508178711 6.88047170639038086 -0.96696549654006958
1.6384655237197876 7.50180149078369141 -0.174723654985427856
1.86275410652160645 3.57432770729064941 -0.573861956596374512
-0.287170469760894775 2.93848729133605957 -0.379191756248474121
2.83249640464782715 5.31254911422729492 -0.367106020450592041
1.63679707050323486 7.67725419998168945 -0.515538454055786133
-1.79879474639892578 3.57770133018493652 -0.711977005004882812
0.101281203329563141 1.87403285503387451 -0.802013099193572998
-0.0910021811723709106 2.20855164527893066 -0.701411068439483643
-0.28034016489982605 2.93351197242736816 -0.381963789463043213
-0.278046071529388428 2.92422986030578613 -0.404266148805618286
-0.298319637775421143 2.92898201942443848 -0.394021153450012207
0.0939353480935096741 2.01798725128173828 -0.744690835475921631
-2.32891416549682617 3.27498507499694824 -0.257748216390609741
2.26212573051452637 4.01077890396118164 -0.826906204223632812
-0.288780421018600464 2.92553615570068359 -0.413299679756164551
-0.278088748455047607 2.93022727966308594 -0.416587352752685547
2.7719414234161377 5.16139698028564453 -0.444438278675079346
3.85882329940795898 5.39972972869873047 -1.17716634273529053
2.1139979362487793 5.67783880233764648 0.556075215339660645
0.108448967337608337 1.89512336254119873 -0.788642048835754395
1.67896974086761475 2.98274660110473633 -0.531544208526611328
-0.474429130554199219 0.914319515228271484 -0.618206143379211426
-0.287970960140228271 2.92433571815490723 -0.417122900485992432
-0.292439639568328857 2.93203830718994141 -0.398926675319671631
-1.80335068702697754 3.57749176025390625 -0.733980476856231689
2.22226548194885254 6.8833155632019043 0.18357577919960022
-0.282103925943374634 2.92565488815307617 -0.426650792360305786
-0.291782528162002563 2.93829083442687988 -0.399538546800613403
