ply
format ascii 1.0
element vertex 256
comment vertices
property float x
property float y
property float z
end_header
-0.323727190494537354 2.72700023651123047 -0.517009377479553223
1.41878676414489746 8.65257549285888672 0.615937352180480957
3.15038633346557617 4.85655927658081055 -0.167727693915367126
-2.08458375930786133 3.65043783187866211 0.116444587707519531
2.41067814826965332 7.13037538528442383 -0.813693881034851074
0.564403772354125977 4.11154270172119141 0.546163558959960938
-1.56792140007019043 2.96058273315429688 -0.624158501625061035
1.99378466606140137 4.68969631195068359 2.36153912544250488
-0.314738363027572632 3.02386975288391113 -0.440430760383605957
1.7354588508605957 7.05155038833618164 -0.00822496414184570312
2.38640737533569336 6.42923927307128906 3.62931966781616211
0.247153341770172119 1.95638775825500488 -0.72881019115447998
1.97843170166015625 6.95472621917724609 1.23480129241943359
2.41237521171569824 3.26752877235412598 3.58685922622680664
-2.049468994140625 3.41528487205505371 -0.51577460765838623
1.67283141613006592 7.81644582748413086 -0.518262803554534912
3.01930952072143555 4.90463733673095703 -0.580386579036712646
-0.867492496967315674 3.92230820655822754 0.699176669120788574
0.384154289960861206 3.52449202537536621 -0.549773514270782471
-0.307609826326370239 2.91064167022705078 -0.467197418212890625
2.35189986228942871 4.66196966171264648 0.353215694427490234
3.056365966796875 5.41849422454833984 -0.301007091999053955
0.10066068172454834 1.94748544692993164 -0.680059492588043213
-0.373748600482940674 2.88268637657165527 -0.471536219120025635
-1.72317647933959961 3.56286001205444336 -0.70471644401550293
0.172942250967025757 1.86119222640991211 -0.750494599342346191
1.91445136070251465 7.44969081878662109 -0.659874081611633301
-0.0783526301383972168 3.07385849952697754 -0.141675412654876709
1.50481390953063965 7.47978305816650391 0.409923970699310303
0.0955078601837158203 3.10397028923034668 -0.658301711082458496
-0.186397731304168701 3.01076292991638184 -0.432232379913330078
-2.23566985130310059 3.25076723098754883 -0.43933066725730896
-0.598310649394989014 3.00370454788208008 -0.35202324390411377
2.72308158874511719 4.31117630004882812 3.94225931167602539
2.76456189155578613 5.12317180633544922 -0.527550637722015381
-1.19857454299926758 2.72585725784301758 -0.641813337802886963
-0.0293650366365909576 3.04197287559509277 -0.38177645206451416
2.70259785652160645 4.43691015243530273 -0.80515134334564209
-1.83711862564086914 3.50724244117736816 -0.684688806533813477
1.81374275684356689 7.61092519760131836 -0.589731812477111816
0.0157381296157836914 3.11543440818786621 -0.302544862031936646
2.26645874977111816 7.26026058197021484 -0.648027300834655762
-0.29919898509979248 2.90547323226928711 -0.48283347487449646
1.74080872535705566 6.82380771636962891 0.481742382049560547
2.75942015647888184 5.07313966751098633 -0.203515708446502686
-0.116561293601989746 2.41410350799560547 -0.635286867618560791
-1.56497502326965332 3.78273439407348633 0.507281243801116943
-0.280075401067733765 2.86576080322265625 -0.430099427700042725
-0.251909494400024414 2.91279196739196777 -0.571205973625183105
-0.222488224506378174 2.93172049522399902 -0.308088511228561401
-1.75455868244171143 3.6244959831237793 -0.577080130577087402
1.39015364646911621 7.60499000549316406 -0.298997700214385986
-2.17347550392150879 3.37160110473632812 -0.479655981063842773
3.01847386360168457 4.8013148307800293 -0.46745532751083374
0.18912041187286377 1.79030919075012207 -0.833953142166137695
-0.0406512580811977386 1.71360146999359131 -0.808993518352508545
-0.223008811473846436 2.89792037010192871 -0.458644658327102661
-1.68183434009552002 3.6831669807434082 -0.235406637191772461
1.92667496204376221 7.35570049285888672 -0.697079181671142578
2.76719331741333008 4.96028709411621094 -0.479386776685714722
-0.373589813709259033 2.8829345703125 -0.463886439800262451
0.11565668135881424 4.10527563095092773 0.662905573844909668
-1.46594703197479248 3.62604165077209473 -0.689475893974304199
-0.364895045757293701 2.8851010799407959 -0.517721414566040039
-0.337689399719238281 4.01796197891235352 0.65707927942276001
-0.224121794104576111 2.88802170753479004 -0.441849946975708008
-0.209861516952514648 2.8520500659942627 -0.450831860303878784
-0.0143265128135681152 2.79515743255615234 -0.42129218578338623
2.07392048835754395 7.66025495529174805 -0.340208172798156738
0.0326178818941116333 1.91543257236480713 -0.738567590713500977
0.0450097322463989258 2.03738832473754883 -0.773544549942016602
3.13041973114013672 5.21296882629394531 -0.531153619289398193
-1.94694006443023682 3.49246716499328613 -0.312674611806869507
2.43625426292419434 4.69441032409667969 4.56780672073364258
0.723807632923126221 2.40719890594482422 -0.619123399257659912
2.08131837844848633 7.71697044372558594 -0.589731097221374512
2.38624238967895508 3.95828771591186523 3.55436992645263672
-1.03340649604797363 1.66866016387939453 -0.778598666191101074
-0.200901180505752563 2.84198665618896484 -0.375902831554412842
-0.243253350257873535 2.81161808967590332 -0.4582957923412323
-0.0468498766422271729 2.50831794738769531 -0.548693180084228516
0.514791607856750488 1.77339696884155273 -0.76647794246673584
-1.69963860511779785 3.47352504730224609 -0.574928402900695801
-0.338098913431167603 2.90878891944885254 -0.455090790987014771
1.97815608978271484 4.7186436653137207 -0.736368954181671143
1.38834214210510254 7.32708597183227539 0.611477017402648926
-0.26417773962020874 2.8617253303527832 -0.449177026748657227
-1.7093346118927002 3.60112309455871582 -0.735961735248565674
2.00417017936706543 7.45782804489135742 -0.777121961116790771
-0.693142712116241455 3.06535077095031738 -0.564190030097961426
-0.395531773567199707 2.95020413398742676 -0.441357553005218506
2.71724510192871094 5.27663898468017578 -0.328114837408065796
-1.93965494632720947 3.25607061386108398 -0.556044101715087891
1.34640669822692871 6.91700601577758789 0.265297412872314453
-0.298189610242843628 2.91944980621337891 -0.404026657342910767
-0.258989691734313965 2.97358608245849609 -0.38651353120803833
-0.913943827152252197 3.58636665344238281 0.0136142373085021973
0.083446115255355835 3.85402584075927734 0.0548273324966430664
-1.72128260135650635 3.62563967704772949 -0.712803959846496582
2.24349498748779297 3.93846440315246582 -0.937221109867095947
-1.79685544967651367 3.57708883285522461 0.0193529129028320312
-0.340614289045333862 2.87688183784484863 -0.520468652248382568
-1.85745382308959961 3.42008829116821289 -0.606362700462341309
2.68076395988464355 5.49838352203369141 -0.489656686782836914
2.72027349472045898 5.2001347541809082 -0.0219666361808776855
2.78682208061218262 4.91750717163085938 -0.55564957857131958
-0.218038350343704224 2.95513820648193359 -0.50534975528717041
1.10877454280853271 1.44155216217041016 -0.593187630176544189
-0.386197209358215332 2.83636331558227539 -0.361163884401321411
2.98573398590087891 5.61418962478637695 -0.180505901575088501
1.63336968421936035 7.78623151779174805 -0.365476667881011963
2.7498772144317627 4.98172092437744141 -0.299046993255615234
-1.9640277624130249 3.52797150611877441 -0.520774424076080322
0.00999605655670166016 2.30359244346618652 -0.633699715137481689
-1.57241916656494141 3.5802004337310791 -0.326316237449645996
1.70206367969512939 6.99711990356445312 0.172581762075424194
-0.304225265979766846 2.85762739181518555 -0.49055132269859314
2.59622287750244141 4.77509784698486328 0.0151827335357666016
1.39900124073028564 7.54949426651000977 -0.0810016542673110962
1.99576973915100098 7.60522890090942383 -0.621928989887237549
0.176046580076217651 3.88588333129882812 -0.598350703716278076
-1.283424973487854 3.01848053932189941 -0.581479310989379883
3.00689983367919922 4.05887508392333984 4.58703422546386719
-0.273993313312530518 3.06132411956787109 -0.00986254215240478516
-0.191868573427200317 2.92339015007019043 -0.349494278430938721
-0.232313975691795349 2.8886713981628418 -0.374891936779022217
0.739979565143585205 2.93921375274658203 -0.394028395414352417
1.90581917762756348 7.73741006851196289 -0.440522819757461548
2.90867805480957031 5.03175830841064453 -0.363277405500411987
0.306864559650421143 1.73225545883178711 -0.754522264003753662
0.141470760107040405 1.9428027868270874 -0.775204598903656006
2.85548067092895508 4.94609308242797852 -0.596207737922668457
1.79300558567047119 6.91628408432006836 0.85475611686706543
-1.78829693794250488 3.62019205093383789 -0.68862992525100708
-0.324911177158355713 2.84147047996520996 -0.536764144897460938
-0.278397619724273682 2.9453892707824707 -0.525971412658691406
2.89998984336853027 4.99394369125366211 -0.528434216976165771
0.466165065765380859 3.99821710586547852 0.178631722927093506
2.02178239822387695 4.86767959594726562 -0.593775033950805664
2.90028214454650879 5.38010692596435547 -0.237725973129272461
-0.313044726848602295 2.88630080223083496 -0.435186654329299927
-2.19853043556213379 3.4078669548034668 -0.494467258453369141
2.12629866600036621 7.39937400817871094 -0.590791404247283936
1.6286931037902832 2.0484311580657959 0.173122286796569824
-0.247841984033584595 2.88397026062011719 -0.426214098930358887
0.228425383567810059 1.76330780982971191 -0.772305488586425781
3.0016181468963623 4.87948179244995117 -0.466993153095245361
-0.168546974658966064 3.03876781463623047 -0.403178930282592773
1.43870735168457031 7.79782295227050781 0.596213757991790771
-1.73803997039794922 3.66542673110961914 -0.33517378568649292
2.05565237998962402 7.93175649642944336 -0.581067800521850586
-0.307650595903396606 2.83786153793334961 -0.410733819007873535
0.205493628978729248 2.27519774436950684 -0.6607666015625
-0.298805981874465942 2.93870019912719727 -0.411159545183181763
2.22096443176269531 4.43482065200805664 -0.560236454010009766
-0.339128792285919189 2.88274765014648438 -0.52328336238861084
-1.67766749858856201 3.71958374977111816 -0.751986205577850342
-1.20492303371429443 3.88059377670288086 0.610984921455383301
2.00029897689819336 7.39853763580322266 -0.177760660648345947
-0.216346889734268188 2.88447809219360352 -0.3740958571434021
-2.06333494186401367 3.39517402648925781 -0.46023133397102356
-0.00342027842998504639 1.87755632400512695 -0.786120891571044922
1.4149172306060791 7.34398221969604492 0.430107772350311279
2.70836400985717773 5.11094236373901367 -0.148127228021621704
1.59820938110351562 6.86917972564697266 0.709351837635040283
-0.155464738607406616 3.0648808479309082 -0.409218013286590576
-0.286540746688842773 2.84449625015258789 -0.481840193271636963
-0.337219953536987305 2.84763669967651367 -0.485921204090118408
-1.86307883262634277 3.62175893783569336 -0.66244041919708252
2.47411799430847168 4.42116737365722656 4.45645046234130859
-0.291402727365493774 2.89165306091308594 -0.468273073434829712
1.60885500907897949 7.14633560180664062 0.131253361701965332
-0.0851793885231018066 4.01974725723266602 0.435877293348312378
-1.78563880920410156 3.6427619457244873 -0.482008665800094604
-1.77235555648803711 3.5779883861541748 -0.156103700399398804
-1.53329217433929443 3.59268808364868164 -0.0837221145629882812
2.71373605728149414 5.04478311538696289 -0.307316362857818604
1.28510940074920654 5.99679040908813477 -0.919751107692718506
1.8889763355255127 7.29888486862182617 -0.797677218914031982
1.37555229663848877 7.63617515563964844 0.580344319343566895
-0.277654588222503662 2.91808509826660156 -0.456946372985839844
-0.401247978210449219 3.16584944725036621 0.0201192498207092285
-1.82501912117004395 3.72147226333618164 0.284550964832305908
1.11596536636352539 3.31740903854370117 -0.704415798187255859
2.37040972709655762 4.70155143737792969 0.0211082100868225098
0.152708873152732849 2.31219768524169922 -0.752698957920074463
0.399197876453399658 4.11116600036621094 0.562151908874511719
0.463025271892547607 1.71652841567993164 -0.82679295539855957
-0.252615272998809814 3.05901050567626953 -0.28854292631149292
1.50034546852111816 2.14356231689453125 -0.648865222930908203
-1.46446990966796875 3.2788548469543457 -0.568436920642852783
-0.0774943828582763672 2.92849445343017578 -0.399932712316513062
-0.302072882652282715 3.10700297355651855 -0.101686179637908936
-0.450237751007080078 2.80296039581298828 -0.393672347068786621
-2.18683576583862305 3.20853042602539062 -0.347312331199645996
-0.440610229969024658 2.3893585205078125 -0.598920762538909912
-0.495949149131774902 2.93081045150756836 -0.517999768257141113
-0.264928430318832397 2.9220588207244873 -0.447530567646026611
-0.0718927383422851562 2.01270866394042969 -0.729501187801361084
-0.0424035489559173584 1.8077775239944458 -0.745501339435577393
-0.247964277863502502 2.91162562370300293 -0.473067224025726318
1.50773704051971436 7.59245920181274414 0.392295479774475098
-0.484934151172637939 2.79208612442016602 -0.531320810317993164
2.1305382251739502 3.32215452194213867 2.40961980819702148
2.12219762802124023 3.98540043830871582 2.81098175048828125
1.98267030715942383 7.30871963500976562 -0.731260359287261963
1.91163516044616699 7.55095481872558594 -0.740159034729003906
2.19979190826416016 7.28272581100463867 -0.743510127067565918
-0.563753426074981689 3.97804903984069824 0.625891208648681641
-2.03601622581481934 3.35648107528686523 -0.581281065940856934
-0.220246881246566772 2.95642805099487305 -0.466279655694961548
1.97516584396362305 4.3396763801574707 -0.794606328010559082
-0.248764693737030029 2.9371488094329834 -0.434351921081542969
2.23723077774047852 7.49808883666992188 -0.732574164867401123
0.87661510705947876 2.59392976760864258 -0.646188497543334961
1.64857208728790283 7.65729427337646484 -0.668798267841339111
-0.289060115814208984 2.81878042221069336 -0.45493239164352417
-0.704857468605041504 2.90773487091064453 -0.522998332977294922
-0.37496599555015564 2.93657684326171875 -0.566119194030761719
-0.285369277000427246 2.85096192359924316 -0.46399611234664917
-0.163547486066818237 2.85092782974243164 -0.415976494550704956
1.6965179443359375 6.89870262145996094 0.313139945268630981
2.53500175476074219 6.94905900955200195 -0.928727507591247559
1.59434831142425537 7.53365039825439453 -0.157061189413070679
1.89078807830810547 3.75455808639526367 -0.477837085723876953
-0.303240358829498291 2.90196061134338379 -0.381205826997756958
2.82609748840332031 5.10967779159545898 -0.424948304891586304
1.7654411792755127 7.66715717315673828 -0.463871926069259644
-1.78321242332458496 3.56169462203979492 -0.416686385869979858
-1.83844172954559326 3.58117818832397461 -0.638988971710205078
0.142415851354598999 1.8571019172668457 -0.745585083961486816
-0.104704380035400391 2.1787559986114502 -0.668213844299316406
-0.175946086645126343 2.86202383041381836 -0.374567985534667969
-0.136790752410888672 2.98530054092407227 -0.391593873500823975
-0.198315948247909546 2.98114585876464844 -0.385544836521148682
0.161335170269012451 2.07233190536499023 -0.745412290096282959
-2.20901608467102051 3.43436121940612793 -0.127931833267211914
2.16384100914001465 3.97962665557861328 -0.886283993721008301
-0.301199853420257568 2.8292381763458252 -0.473658561706542969
-0.0542426556348800659 2.60326790809631348 -0.584725260734558105
-0.32438775897026062 2.91849565505981445 -0.501662313938140869
2.74851775169372559 4.99444198608398438 -0.482829391956329346
1.81305778026580811 4.08842229843139648 0.996677279472351074
1.665130615234375 6.9375605583190918 0.975866138935089111
0.160604149103164673 1.94657754898071289 -0.778482675552368164
1.44174528121948242 6.96740198135375977 0.404996097087860107
-1.88046026229858398 3.43372488021850586 -0.518349587917327881
-0.277842015027999878 3.49395966529846191 0.0369367003440856934
-0.664154410362243652 2.94800376892089844 -0.503345787525177002
-0.295292258262634277 2.87993812561035156 -0.498963445425033569
-0.223337680101394653 2.9533390998840332 -0.42296987771987915
-1.83670186996459961 3.60672974586486816 -0.678375124931335449
-1.74497520923614502 3.57050609588623047 -0.34340435266494751
1.47363483905792236 8.43359661102294922 0.453896850347518921
-0.270348846912384033 2.91372251510620117 -0.509167492389678955
-0.24518488347530365 2.881927490234375 -0.435970813035964966
