ply
format ascii 1.0
element vertex 26
comment vertices
property float x
property float y
property float z
end_header
-1.09730124473571777 1.82329380512237549 -0.39079207181930542
2.22290468215942383 4.85765838623046875 -0.667996227741241455
1.02637255191802979 4.02261161804199219 -0.312478452920913696
1.13627898693084717 4.09932804107666016 -0.489996552467346191
1.04592561721801758 4.07581615447998047 -0.403314024209976196
1.11215066909790039 4.05903244018554688 -0.446965545415878296
-0.991876482963562012 2.07603216171264648 -0.306741446256637573
2.50253582000732422 4.92370843887329102 -0.7614402174949646
1.16714608669281006 4.10765886306762695 -0.477290838956832886
1.0768357515335083 4.07755184173583984 -0.435942500829696655
1.11505794525146484 4.0564122200012207 -0.448032677173614502
1.08651256561279297 4.09696769714355469 -0.414918988943099976
1.07347702980041504 4.06127405166625977 -0.352038949728012085
1.08010411262512207 4.29150581359863281 -0.387193739414215088
-1.00207650661468506 1.87791991233825684 -0.25572851300239563
-1.31396305561065674 1.81253635883331299 -0.350704193115234375
-2.32187366485595703 1.84287178516387939 -0.436020016670227051
1.0995107889175415 4.06835365295410156 -0.389531612396240234
1.02398526668548584 4.11751508712768555 -0.381349503993988037
1.05389547348022461 4.11359167098999023 -0.396671980619430542
1.10141646862030029 4.12436056137084961 -0.470879435539245605
1.09478867053985596 4.05840635299682617 -0.42024838924407959
2.40482044219970703 4.96729326248168945 -0.777043819427490234
1.17041993141174316 4.14680814743041992 -0.486530870199203491
1.08302712440490723 4.02302932739257812 -0.428916960954666138
0.983828902244567871 4.15886449813842773 -0.316549807786941528
