ply
format ascii 1.0
element vertex 76
comment vertices
property float x
property float y
property float z
end_header
-0.277827829122543335 2.94466972351074219 -0.397322326898574829
-0.280813038349151611 2.92846250534057617 -0.400515198707580566
-0.285291761159896851 2.92643475532531738 -0.404909968376159668
-1.8059842586517334 3.59161138534545898 -0.727641940116882324
-0.275566250085830688 2.92790865898132324 -0.41061285138130188
-0.204614877700805664 2.90096664428710938 -0.414859414100646973
-1.81296408176422119 3.5737760066986084 -0.728952944278717041
-0.104454584419727325 2.99388456344604492 -0.352118939161300659
-0.2840309739112854 2.92949366569519043 -0.40772777795791626
-0.294297337532043457 2.93201732635498047 -0.396711349487304688
-0.267103642225265503 2.93127560615539551 -0.469560384750366211
-0.282580733299255371 2.93709516525268555 -0.368499726057052612
-1.77980411052703857 3.56486415863037109 -0.662888050079345703
-0.291155815124511719 2.93601417541503906 -0.410273909568786621
-0.283848166465759277 2.92713642120361328 -0.400924533605575562
-1.65672683715820312 3.5771334171295166 -0.7210654616355896
-0.27710375189781189 2.92395353317260742 -0.426169008016586304
-0.290089309215545654 2.93559861183166504 -0.402764886617660522
-0.284766137599945068 2.9313960075378418 -0.404095172882080078
-0.27753603458404541 2.94210553169250488 -0.378786206245422363
-0.286732614040374756 2.92784357070922852 -0.410440623760223389
-1.78800487518310547 3.5581357479095459 -0.653317868709564209
-0.288958251476287842 2.92781329154968262 -0.400479048490524292
-0.295366525650024414 2.93008947372436523 -0.405542582273483276
-1.80488765239715576 3.60602545738220215 -0.745004534721374512
-0.267862141132354736 2.9266669750213623 -0.394414067268371582
-0.287900567054748535 2.94460010528564453 -0.38477027416229248
-0.296235978603363037 2.9353487491607666 -0.38836669921875
-1.80281579494476318 3.60042834281921387 -0.739879310131072998
-0.28296959400177002 2.92240619659423828 -0.428755998611450195
-1.81366193294525146 3.5248711109161377 -0.698492646217346191
-0.268843591213226318 2.93192696571350098 -0.432310163974761963
-0.274672359228134155 2.95792531967163086 -0.365673154592514038
-0.289652138948440552 2.9215998649597168 -0.414417803287506104
-0.290978550910949707 2.95368075370788574 -0.383261144161224365
-0.287483096122741699 2.93612098693847656 -0.37897142767906189
-1.81568562984466553 3.57751774787902832 -0.732748866081237793
-0.293030470609664917 2.91234803199768066 -0.440957397222518921
-0.280526041984558105 2.93176007270812988 -0.43471410870552063
-0.284707337617874146 2.93393540382385254 -0.390550374984741211
-0.291901648044586182 2.93856549263000488 -0.395673453807830811
-0.283745437860488892 2.93668580055236816 -0.408211708068847656
-0.287087768316268921 2.94543099403381348 -0.387165993452072144
-0.283643275499343872 2.94122624397277832 -0.386674374341964722
-0.282728731632232666 2.92365932464599609 -0.430138766765594482
-1.77215516567230225 3.59827780723571777 -0.78333669900894165
-0.285930514335632324 2.9341433048248291 -0.379911839962005615
-0.271732807159423828 2.94027090072631836 -0.414149075746536255
-0.289337456226348877 2.92212009429931641 -0.41558372974395752
-0.282904893159866333 2.9196474552154541 -0.410738945007324219
-1.79344534873962402 3.56755471229553223 -0.72777479887008667
-0.284167945384979248 2.92594623565673828 -0.407638490200042725
-1.76542139053344727 3.56247210502624512 -0.605148196220397949
-0.280491501092910767 2.93384599685668945 -0.401202797889709473
-0.273547857999801636 2.9471900463104248 -0.368491232395172119
-0.239368349313735962 2.91316413879394531 -0.397329628467559814
-0.283777922391891479 2.93492007255554199 -0.399919241666793823
-0.284906595945358276 2.9343416690826416 -0.411223143339157104
-0.284593284130096436 2.93103528022766113 -0.412528127431869507
-0.287340879440307617 2.93419051170349121 -0.398192048072814941
-0.291992992162704468 2.93348836898803711 -0.409111559391021729
-0.274439871311187744 2.93010568618774414 -0.451825737953186035
-0.290543496608734131 2.92724466323852539 -0.407744020223617554
-0.278657138347625732 2.92830038070678711 -0.389890700578689575
-0.287170469760894775 2.93848729133605957 -0.379191756248474121
-1.79879474639892578 3.57770133018493652 -0.711977005004882812
-0.28034016489982605 2.93351197242736816 -0.381963789463043213
-0.278046071529388428 2.92422986030578613 -0.404266148805618286
-0.298319637775421143 2.92898201942443848 -0.394021153450012207
-0.288780421018600464 2.92553615570068359 -0.413299679756164551
-0.278088748455047607 2.93022727966308594 -0.416587352752685547
-0.287970960140228271 2.92433571815490723 -0.417122900485992432
-0.292439639568328857 2.93203830718994141 -0.398926675319671631
-1.80335068702697754 3.57749176025390625 -0.733980476856231689
-0.282103925943374634 2.92565488815307617 -0.426650792360305786
-0.291782528162002563 2.93829083442687988 -0.399538546800613403
