ply
format ascii 1.0
element vertex 256
comment vertices
property float x
property float y
property float z
end_header
0.472359955310821533 3.67895841598510742 0.399631500244140625
-1.49879515171051025 7.94977664947509766 2.39244532585144043
-2.50425529479980469 4.31377410888671875 -0.585228204727172852
2.58623838424682617 7.29777860641479492 2.46210646629333496
-0.425397127866744995 0.781341195106506348 -0.358148157596588135
0.101967766880989075 6.00197792053222656 2.38896083831787109
0.377534031867980957 3.06415081024169922 -0.666101694107055664
-1.17596793174743652 4.80347776412963867 -0.308041691780090332
-1.29747438430786133 3.0086064338684082 0.184777796268463135
0.621108710765838623 7.92219829559326172 2.44449901580810547
0.182861030101776123 3.24548196792602539 -0.65912240743637085
-1.87090623378753662 4.75545406341552734 1.01860594749450684
0.405122309923171997 3.29888296127319336 -0.462695330381393433
-1.62332844734191895 4.24821949005126953 -0.692879438400268555
2.06991291046142578 2.38330411911010742 -0.326603829860687256
0.430709898471832275 5.15660381317138672 0.58669435977935791
0.758134424686431885 4.7720942497253418 -0.693092703819274902
1.13160669803619385 5.18109035491943359 2.36922812461853027
1.22182416915893555 6.86922788619995117 2.43950867652893066
-1.46010792255401611 6.78597927093505859 2.36349701881408691
-1.37343478202819824 4.39345312118530273 -0.599301934242248535
-0.232350140810012817 7.09858131408691406 2.37017631530761719
0.317164063453674316 3.44057321548461914 -0.491483569145202637
-0.669668674468994141 5.23060321807861328 1.00929033756256104
1.54956567287445068 2.89037919044494629 0.926438093185424805
0.156746566295623779 3.28518509864807129 -0.507004857063293457
3.01548099517822266 6.46645355224609375 2.48873305320739746
1.56196928024291992 8.08356380462646484 2.49157929420471191
-2.91756772994995117 5.37981986999511719 -0.349066883325576782
0.2777862548828125 3.35135197639465332 -0.514473080635070801
1.11257636547088623 4.19180679321289062 1.4669722318649292
0.105040907859802246 3.7006072998046875 -0.285222619771957397
0.153726041316986084 5.05365228652954102 -0.238809734582901001
-1.63531410694122314 4.73974943161010742 -0.741633951663970947
-1.85307157039642334 2.93603301048278809 -0.492890536785125732
-1.72760248184204102 4.76001119613647461 -0.105270057916641235
-1.31045806407928467 4.74917316436767578 0.150926142930984497
1.89214408397674561 2.89104080200195312 -0.555429637432098389
0.0319411233067512512 5.02672147750854492 -0.406379401683807373
-1.82792031764984131 2.77475094795227051 -0.738162755966186523
0.412245661020278931 3.39219379425048828 -0.71834564208984375
-0.573117256164550781 6.30593585968017578 2.40702986717224121
-1.14918816089630127 5.01073169708251953 -0.394125521183013916
1.81279957294464111 2.18362951278686523 -0.672408580780029297
0.435332447290420532 7.1668696403503418 2.3687283992767334
0.877933323383331299 6.05595207214355469 2.38733649253845215
0.41591346263885498 3.49740767478942871 0.0342914462089538574
0.520117998123168945 4.42504739761352539 0.73580634593963623
0.301743119955062866 3.42672228813171387 -0.452097862958908081
0.173681974411010742 3.42001891136169434 -0.26497417688369751
-0.244334489107131958 5.41547632217407227 0.290785610675811768
1.27581787109375 3.45718574523925781 1.28198802471160889
-1.16050350666046143 7.36047077178955078 2.39208650588989258
0.272013425827026367 3.45868110656738281 -0.501322925090789795
-0.148346975445747375 7.90078401565551758 2.40694952011108398
1.18514883518218994 7.44850254058837891 2.37152194976806641
0.396475851535797119 3.26787376403808594 -0.566022694110870361
-0.398013263940811157 0.994785189628601074 -0.289515018463134766
0.245681911706924438 3.38229966163635254 -0.645813047885894775
0.352176487445831299 3.32058358192443848 -0.658865869045257568
-1.77649211883544922 4.35713672637939453 -0.626834094524383545
-1.12593507766723633 5.05449295043945312 -0.294323742389678955
0.321825295686721802 3.41214537620544434 -0.564136683940887451
-2.13389706611633301 4.70132923126220703 0.586856961250305176
0.305935025215148926 3.44750261306762695 -0.517618477344512939
0.36362922191619873 6.64088344573974609 2.43193507194519043
-1.22724652290344238 5.02158927917480469 0.935961902141571045
-1.91757321357727051 4.46546840667724609 -0.768318295478820801
-1.78410089015960693 7.21921253204345703 2.28863096237182617
0.327301025390625 3.45604205131530762 -0.523653745651245117
-0.755952000617980957 5.16475009918212891 0.166789770126342773
-1.6621166467666626 4.60102701187133789 0.052684783935546875
0.326936721801757812 3.39279580116271973 -0.518991649150848389
0.0737481117248535156 5.02059030532836914 -0.12460625171661377
-1.19759774208068848 4.75222253799438477 -0.746558606624603271
-1.60114407539367676 4.66806840896606445 -0.522747695446014404
0.26220393180847168 4.72400474548339844 -0.40684172511100769
0.963472723960876465 3.30486202239990234 0.668582141399383545
0.524396419525146484 5.73923206329345703 2.40188908576965332
0.264727473258972168 3.39307069778442383 -0.210598528385162354
2.67545485496520996 6.89911699295043945 2.42248344421386719
-0.874141812324523926 6.95836687088012695 2.45551395416259766
1.8168257474899292 2.38078570365905762 -0.398634195327758789
0.896872282028198242 3.82165360450744629 0.865437984466552734
0.0533023476600646973 5.34718799591064453 0.117919087409973145
-0.508210539817810059 0.950983822345733643 -0.39774024486541748
1.48804020881652832 2.59879183769226074 0.233079671859741211
0.129187747836112976 7.47168159484863281 2.35190343856811523
0.136625826358795166 3.98182296752929688 0.0747690796852111816
1.07721424102783203 3.05197429656982422 -0.481067061424255371
0.127919554710388184 3.21912908554077148 -0.648133695125579834
-0.142818599939346313 6.56142234802246094 2.39605236053466797
-1.88966655731201172 4.75335216522216797 -0.504640102386474609
-2.3940272331237793 3.59994196891784668 -0.708911299705505371
0.102085888385772705 3.65619206428527832 -0.636262655258178711
1.1678389310836792 7.85801506042480469 2.45531082153320312
0.395046859979629517 3.1962580680847168 -0.560832679271697998
0.198398113250732422 3.54927515983581543 -0.495863944292068481
-1.5250546932220459 4.49647951126098633 -0.750792324542999268
-0.45067518949508667 4.85827255249023438 -0.147910118103027344
0.222659647464752197 4.55612611770629883 0.145036458969116211
0.306631296873092651 3.42055845260620117 -0.608318507671356201
0.324999809265136719 3.25710964202880859 -0.286991745233535767
-1.08656513690948486 2.36908507347106934 -0.707661628723144531
0.127920389175415039 3.54700660705566406 -0.108372688293457031
-0.282571703195571899 0.852497696876525879 -0.226697400212287903
0.271643608808517456 5.59962177276611328 0.782593786716461182
-2.65453767776489258 4.4047393798828125 -0.255198210477828979
-0.532865762710571289 7.58157014846801758 2.3795773983001709
0.244036734104156494 3.46514558792114258 -0.519351363182067871
1.99875104427337646 2.80340743064880371 -0.605063557624816895
1.14770591259002686 5.67342758178710938 2.41502618789672852
-0.543700814247131348 5.87315082550048828 2.33196496963500977
1.33155381679534912 7.13142585754394531 2.46381688117980957
0.678976476192474365 6.80560636520385742 2.41696476936340332
1.27342379093170166 6.15882015228271484 2.41867971420288086
0.148504555225372314 3.36293482780456543 -0.591150283813476562
-1.35269927978515625 7.14329433441162109 2.31599593162536621
0.253203094005584717 3.44915485382080078 -0.504270076751708984
-0.0172500014305114746 7.01941967010498047 2.38407182693481445
-1.25665569305419922 5.08051061630249023 -0.410148501396179199
0.0947691202163696289 3.45068073272705078 -0.645708203315734863
0.486342787742614746 3.1684572696685791 -0.192726790904998779
-1.42512965202331543 4.83233404159545898 0.547178030014038086
0.700841188430786133 4.34655141830444336 1.10533881187438965
-0.240028887987136841 5.43190765380859375 0.980911970138549805
0.136575758457183838 3.35690617561340332 -0.678179085254669189
-0.342337638139724731 2.67840290069580078 -0.569009900093078613
0.313691794872283936 3.29885697364807129 -0.497516423463821411
0.544846415519714355 3.36695647239685059 -0.527150392532348633
0.338150143623352051 3.49876737594604492 -0.455553144216537476
-0.887782692909240723 5.23398685455322266 0.42796933650970459
0.376974046230316162 3.35398983955383301 -0.545196175575256348
-0.937720000743865967 5.18890810012817383 -0.179644167423248291
-1.93652522563934326 6.85366535186767578 2.30403327941894531
0.668081700801849365 7.52121305465698242 2.34972643852233887
0.262454688549041748 3.34744715690612793 -0.540239512920379639
0.963705182075500488 5.52557945251464844 2.40591907501220703
0.319152176380157471 3.4582211971282959 -0.626269161701202393
0.784508109092712402 3.97659707069396973 -0.442451000213623047
-1.97368443012237549 4.54121541976928711 -0.196784377098083496
0.743628263473510742 4.01141595840454102 0.586509883403778076
-0.26586034893989563 4.83609771728515625 -0.0021864771842956543
-1.88714754581451416 4.75124025344848633 0.528423666954040527
-1.32556378841400146 4.57436943054199219 -0.61526644229888916
0.320067107677459717 4.85506868362426758 0.80145418643951416
0.628898143768310547 6.25387716293334961 2.4057772159576416
-1.65560579299926758 4.57395267486572266 -0.616879105567932129
-0.441092818975448608 5.36698484420776367 0.594145655632019043
-1.60915637016296387 7.44366455078125 2.25543665885925293
0.0704668760299682617 3.55945014953613281 -0.133500874042510986
0.353650748729705811 3.40126180648803711 -0.493952333927154541
0.209853410720825195 7.92119026184082031 2.42712998390197754
1.05229520797729492 3.01344823837280273 0.53368675708770752
0.326773345470428467 3.1612694263458252 -0.579264700412750244
0.809171676635742188 7.18277883529663086 2.36098885536193848
0.261866509914398193 3.49406123161315918 -0.533983409404754639
0.238303780555725098 3.44469165802001953 -0.303388684988021851
-0.265958487987518311 6.88944816589355469 2.37563347816467285
1.39293372631072998 3.15924382209777832 1.0985105037689209
0.312044680118560791 3.35407829284667969 -0.541510581970214844
0.228008776903152466 3.35204172134399414 -0.654581129550933838
0.319230914115905762 3.41307973861694336 0.202763020992279053
-1.22811388969421387 4.74272918701171875 -0.204652875661849976
0.393466949462890625 3.37891077995300293 -0.550504922866821289
-1.26415097713470459 4.66509580612182617 -0.303268969058990479
0.312531530857086182 3.45650696754455566 -0.506532371044158936
0.452864885330200195 3.26626300811767578 -0.658149182796478271
-2.22184348106384277 4.30855798721313477 -0.597119510173797607
-0.328080058097839355 0.912431418895721436 -0.348739802837371826
0.721282362937927246 3.58157920837402344 0.673401534557342529
1.1505126953125 3.86977529525756836 1.34740209579467773
-0.546092092990875244 4.05237054824829102 -0.662005782127380371
-1.92699015140533447 4.73537731170654297 0.174073398113250732
0.59093397855758667 3.10927557945251465 -0.623087584972381592
-1.6274641752243042 4.44692897796630859 -0.634011030197143555
1.97477173805236816 2.52013587951660156 -0.0112566947937011719
-0.206651687622070312 4.86893987655639648 -0.33915334939956665
0.156541585922241211 3.50279021263122559 -0.239094287157058716
-1.3696589469909668 4.13986301422119141 -0.708204269409179688
0.832567930221557617 4.10708141326904297 0.891026914119720459
-1.2943655252456665 4.71432304382324219 -0.604664802551269531
0.274787813425064087 3.31895923614501953 -0.651640832424163818
0.410544037818908691 3.27699494361877441 -0.534333348274230957
-2.07857418060302734 4.60641574859619141 -0.211403191089630127
0.31803324818611145 3.38526821136474609 -0.568530261516571045
0.870430111885070801 4.8187718391418457 -0.695649623870849609
-1.19197571277618408 6.94217634201049805 2.43144989013671875
-0.775534391403198242 2.47771859169006348 -0.696117281913757324
1.344673752784729 7.53814601898193359 2.4050757884979248
0.312950879335403442 3.36833024024963379 -0.52798992395401001
-0.096589207649230957 5.07753419876098633 -0.103621065616607666
0.609186351299285889 5.91293954849243164 2.38653278350830078
0.124536424875259399 5.11425542831420898 0.122955083847045898
-1.29400491714477539 4.70823431015014648 -0.504878759384155273
0.325393140316009521 4.27233505249023438 0.217309117317199707
-1.52432644367218018 2.90822768211364746 0.203324735164642334
0.230392694473266602 3.33690881729125977 -0.4766368567943573
-0.796341121196746826 5.25990200042724609 -0.393042534589767456
-0.217781245708465576 4.56088924407958984 -0.271336466073989868
0.350218296051025391 3.20920228958129883 -0.542667508125305176
-0.647698104381561279 7.1755061149597168 2.3999636173248291
-0.262560874223709106 5.91025924682617188 2.39371395111083984
0.0780404806137084961 3.22133874893188477 -0.423559337854385376
-0.362575352191925049 0.928605616092681885 -0.251635521650314331
-1.04406833648681641 7.15852928161621094 2.42109179496765137
-0.793816983699798584 5.22871112823486328 -0.153482735157012939
-1.25992465019226074 4.88355493545532227 0.483434408903121948
0.880164623260498047 7.97272014617919922 2.4480125904083252
-1.68363213539123535 4.63875150680541992 -0.753716230392456055
1.79712843894958496 2.29435563087463379 -0.60602039098739624
-0.450433731079101562 5.24439239501953125 0.0954800248146057129
1.00744390487670898 4.46152734756469727 1.5263056755065918
1.20989394187927246 7.06135702133178711 2.40890836715698242
0.287808001041412354 3.35295844078063965 -0.56178969144821167
0.358345359563827515 3.47478914260864258 -0.461817651987075806
0.955906569957733154 7.65996503829956055 2.36421918869018555
-1.5716630220413208 4.89263057708740234 1.01078569889068604
0.280870199203491211 3.3089139461517334 -0.609574198722839355
0.287804603576660156 3.63760685920715332 -0.465670317411422729
-0.0404672473669052124 5.53439712524414062 0.888356268405914307
1.1933445930480957 3.43205356597900391 0.918282032012939453
-1.30302214622497559 4.87409067153930664 -0.338320791721343994
1.64020013809204102 7.83239126205444336 2.4778900146484375
-0.919860720634460449 5.17230653762817383 0.938024699687957764
-0.682306885719299316 7.68820571899414062 2.36853194236755371
0.46270453929901123 3.33408904075622559 -0.689992964267730713
0.437852323055267334 6.91378498077392578 2.37777042388916016
0.23085939884185791 3.48929476737976074 -0.0480224788188934326
0.23914724588394165 3.41259121894836426 -0.479658365249633789
0.0723376870155334473 4.84712314605712891 0.0948720574378967285
1.51317572593688965 2.80602335929870605 0.64749068021774292
0.334733486175537109 3.45242881774902344 -0.478092163801193237
0.041183173656463623 3.34007930755615234 -0.675513803958892822
-0.170941919088363647 6.89288663864135742 2.3820183277130127
0.714001893997192383 3.31830525398254395 0.0990231037139892578
-0.130279660224914551 3.14807367324829102 -0.655226171016693115
-1.69831216335296631 2.83345580101013184 -0.562839865684509277
-0.995316445827484131 4.99617481231689453 0.182211548089981079
0.288488864898681641 5.83475971221923828 2.38710117340087891
0.22535473108291626 3.35620808601379395 -0.487482011318206787
-2.35156440734863281 4.56074285507202148 -0.127407118678092957
0.382756441831588745 7.4821319580078125 2.33778810501098633
0.105539306998252869 5.05469369888305664 -0.360114157199859619
1.91823697090148926 2.85774660110473633 -0.562133133411407471
-1.53757107257843018 4.57871580123901367 0.233800053596496582
-0.0247571170330047607 5.40146017074584961 0.320647716522216797
-1.39483654499053955 7.74036788940429688 2.32804083824157715
1.10315048694610596 3.63012146949768066 1.0731433629989624
0.56136089563369751 7.69937038421630859 2.33794999122619629
0.32246476411819458 3.41748356819152832 -0.557983279228210449
-0.668474793434143066 5.26495504379272461 0.540233373641967773
-0.875417530536651611 3.7229616641998291 -0.702718913555145264
0.34786573052406311 3.40648674964904785 -0.55761253833770752
-1.69791150093078613 4.67081022262573242 -0.258271306753158569
0.21998085081577301 6.05363750457763672 2.39094758033752441
