ply
format ascii 1.0
element vertex 205
comment vertices
property float x
property float y
property float z
end_header
2.32451391220092773 -0.503075361251831055 -0.811559319496154785
-1.40397024154663086 7.7813262939453125 -0.971305608749389648
0.356277257204055786 6.98110866546630859 2.38263440132141113
-1.45500004291534424 1.84785830974578857 -0.660907208919525146
-1.08520030975341797 3.30643463134765625 1.1124730110168457
2.38513946533203125 6.45842075347900391 2.20931053161621094
0.270496487617492676 2.53093957901000977 -0.48418012261390686
-2.08484244346618652 2.85630893707275391 -0.587016820907592773
2.31201338768005371 3.44976663589477539 -0.79343867301940918
0.273182600736618042 2.5686333179473877 -0.433512389659881592
0.638227880001068115 3.29590463638305664 1.11072635650634766
-0.724207758903503418 2.47870063781738281 -0.468036830425262451
0.25795060396194458 2.56075716018676758 -0.44069322943687439
-0.179766952991485596 2.8139185905456543 -0.603703975677490234
1.5715181827545166 6.62215852737426758 2.39953780174255371
-0.137712240219116211 1.11617577075958252 -0.668976724147796631
0.0255274325609207153 2.33482527732849121 -0.473819643259048462
0.282518148422241211 2.54607415199279785 -0.392379015684127808
0.273101657629013062 2.54902434349060059 -0.452528327703475952
3.20507669448852539 3.25409269332885742 -0.58807671070098877
1.3323676586151123 3.21818733215332031 0.956605792045593262
-1.98760139942169189 3.17629194259643555 1.02442145347595215
0.2750072181224823 2.48349261283874512 -0.555582821369171143
-1.41881728172302246 3.3645474910736084 -0.558001399040222168
-0.31011664867401123 3.30011200904846191 1.17785310745239258
0.279812276363372803 2.55921316146850586 -0.453769326210021973
0.20101502537727356 2.48859691619873047 -0.456683993339538574
2.18773961067199707 3.35837125778198242 -0.716943740844726562
0.323342025279998779 2.50943493843078613 -0.496070295572280884
0.266979366540908813 2.53928947448730469 -0.448862761259078979
0.268531709909439087 2.55852460861206055 -0.447472423315048218
-2.04453754425048828 2.04907464981079102 -0.533404350280761719
0.271825492382049561 2.54907512664794922 -0.444746106863021851
-0.342345684766769409 -0.357566118240356445 -0.842519879341125488
-1.31444883346557617 3.32151341438293457 -0.527909457683563232
-0.347374439239501953 -0.604250431060791016 -0.816856920719146729
1.46939635276794434 3.33987951278686523 -0.0769931301474571228
-1.31148922443389893 3.31738924980163574 -0.586438894271850586
2.2092595100402832 3.29728889465332031 0.865139186382293701
2.30441117286682129 3.64949250221252441 -0.549546241760253906
1.32203841209411621 2.31130385398864746 -0.129208266735076904
-0.292363762855529785 2.49654769897460938 -0.615316331386566162
0.79437178373336792 2.63646626472473145 -0.503008246421813965
0.277943789958953857 2.52263736724853516 -0.509437501430511475
3.18908071517944336 2.2931978702545166 -0.587265133857727051
-2.16721487045288086 2.66014885902404785 -0.630248546600341797
0.281225919723510742 2.56114959716796875 -0.409475445747375488
0.266366869211196899 2.53436017036437988 -0.471364200115203857
1.56342005729675293 3.21914315223693848 -0.914852261543273926
2.25307035446166992 3.49308490753173828 -0.745185613632202148
-0.843122243881225586 2.62154293060302734 0.2859305739402771
-1.79154932498931885 2.80848097801208496 -0.0816281139850616455
0.257856249809265137 2.55001735687255859 -0.366874635219573975
0.263949930667877197 3.28694629669189453 0.75998455286026001
0.274333655834197998 2.55393147468566895 -0.451653927564620972
0.224339008331298828 2.53126025199890137 -0.470720916986465454
-0.194850713014602661 3.38838577270507812 0.345286637544631958
0.321865051984786987 2.52394986152648926 -0.489846229553222656
0.265469014644622803 2.55597257614135742 -0.463529288768768311
2.19309115409851074 2.19091892242431641 -0.166032493114471436
1.69441413879394531 6.84123849868774414 2.21303701400756836
0.258663207292556763 2.5579676628112793 -0.434802412986755371
1.60379374027252197 3.36817407608032227 -0.316956996917724609
1.04154884815216064 3.25399613380432129 1.11890804767608643
-2.98241734504699707 2.39877057075500488 0.248766839504241943
0.261740297079086304 2.52692723274230957 -0.456061750650405884
0.275027930736541748 2.55852484703063965 -0.441162616014480591
0.269773602485656738 2.55467629432678223 -0.458819031715393066
-1.30862724781036377 3.30214810371398926 -0.316753923892974854
0.278145313262939453 2.52683615684509277 -0.380327522754669189
-1.52672111988067627 3.27006268501281738 -0.405008316040039062
0.281253337860107422 2.53897905349731445 -0.472121775150299072
0.273954033851623535 2.55474090576171875 -0.459579259157180786
-0.248005568981170654 1.04512083530426025 -0.716441750526428223
-2.02282619476318359 3.01783084869384766 -0.657771885395050049
0.276125341653823853 2.55750370025634766 -0.427176058292388916
-0.209444940090179443 3.053985595703125 0.166442006826400757
-0.0610579326748847961 1.08592617511749268 -0.683290719985961914
3.70955419540405273 1.6701122522354126 -0.108975857496261597
1.40757763385772705 3.33247828483581543 -0.325726866722106934
-0.530292391777038574 1.11108088493347168 -0.435127973556518555
2.13902997970581055 3.37416815757751465 -0.781066954135894775
0.263520181179046631 2.52343320846557617 -0.461943864822387695
2.60387229919433594 3.56728506088256836 -0.692183852195739746
0.276763260364532471 2.5450904369354248 -0.428872853517532349
0.449238866567611694 1.3507688045501709 -0.629455745220184326
0.271528720855712891 2.53947782516479492 -0.444373965263366699
1.73645448684692383 2.14910554885864258 -0.218316614627838135
-0.210382372140884399 3.11274409294128418 -0.447527080774307251
-1.62500619888305664 2.45494651794433594 -0.538788437843322754
0.349632531404495239 1.00179481506347656 -0.569314539432525635
-0.479388058185577393 2.8302619457244873 -0.623276591300964355
-1.07291162014007568 2.75626325607299805 -0.594331979751586914
0.272596985101699829 2.53741931915283203 -0.484899789094924927
0.236097380518913269 2.52347135543823242 -0.395973384380340576
0.743977129459381104 -0.0887219905853271484 -0.577922284603118896
0.257064491510391235 2.49712276458740234 -0.505564451217651367
2.28135061264038086 3.37950825691223145 -0.71282196044921875
-0.254194915294647217 -0.131482839584350586 -0.710752189159393311
-0.473615795373916626 2.02192831039428711 0.0181837081909179688
1.50725531578063965 3.32331061363220215 -0.0395414829254150391
0.577357232570648193 3.12180519104003906 0.504295051097869873
0.0247886031866073608 1.88489425182342529 -0.615188479423522949
0.282532006502151489 2.57460355758666992 -0.433149009943008423
0.270409941673278809 2.52485561370849609 -0.490526825189590454
-0.812849521636962891 2.64317536354064941 -0.495709925889968872
0.271373063325881958 2.5479743480682373 -0.448968708515167236
0.220110267400741577 2.5093226432800293 -0.316105842590332031
0.27516704797744751 2.54668903350830078 -0.457214832305908203
3.77861976623535156 -0.0655655860900878906 -0.695778965950012207
0.069922320544719696 1.82428383827209473 -0.59321439266204834
0.270031988620758057 2.55695772171020508 -0.44823908805847168
1.5526130199432373 3.43821215629577637 -0.289149820804595947
0.276915043592453003 2.56135129928588867 -0.445697039365768433
1.82992184162139893 3.26700663566589355 0.868965506553649902
-1.53467714786529541 3.28411674499511719 0.446185380220413208
2.8932039737701416 3.51100945472717285 -0.692636966705322266
0.2763691246509552 2.52385711669921875 -0.459303855895996094
0.262987256050109863 2.52536177635192871 -0.469542026519775391
2.88933396339416504 2.06527447700500488 -0.181543827056884766
0.282729685306549072 3.2870323657989502 1.11823809146881104
-2.05363106727600098 2.4836735725402832 -0.625041425228118896
-3.63769102096557617 0.089599609375 -0.753591179847717285
0.267110586166381836 2.54192137718200684 -0.45383375883102417
2.57786202430725098 2.97698307037353516 -0.627402186393737793
0.270661443471908569 2.5489962100982666 -0.438212603330612183
-1.55484771728515625 3.24487471580505371 1.00115621089935303
0.263312458992004395 2.54639744758605957 -0.43942686915397644
0.26702544093132019 2.5379488468170166 -0.462045788764953613
-0.124580271542072296 1.07955443859100342 -0.633425712585449219
-0.612407863140106201 3.25724935531616211 1.18320941925048828
-1.63033545017242432 3.06846737861633301 1.06154048442840576
-0.798202157020568848 1.93004107475280762 -0.412904441356658936
0.270839691162109375 2.55809330940246582 -0.450707107782363892
0.271898210048675537 2.54049801826477051 -0.479183316230773926
0.271645933389663696 2.51416397094726562 -0.499819666147232056
0.0298866778612136841 3.30743932723999023 1.16501498222351074
-1.50752854347229004 3.2732691764831543 -0.470413267612457275
-1.46863448619842529 3.17237162590026855 -0.467476785182952881
-0.735516667366027832 3.37359333038330078 1.02599263191223145
0.224246889352798462 2.51848912239074707 -0.349517405033111572
0.262904822826385498 2.56260299682617188 -0.444045543670654297
0.366238117218017578 2.50890827178955078 -0.486247241497039795
0.258126020431518555 2.55303049087524414 -0.395366668701171875
-0.369568765163421631 2.30897998809814453 0.089954078197479248
0.266524523496627808 2.55736088752746582 -0.436882853507995605
0.395637601613998413 2.49045133590698242 -0.490425020456314087
-2.3152916431427002 2.81717991828918457 -0.64438784122467041
2.21938204765319824 1.9668266773223877 -0.710119485855102539
-2.45241689682006836 2.87179946899414062 -0.514197587966918945
-1.89559435844421387 3.22529196739196777 0.538931787014007568
-0.675034463405609131 1.56529068946838379 -0.672301769256591797
0.265223056077957153 2.5622401237487793 -0.447976827621459961
0.238830864429473877 2.48688936233520508 -0.52004706859588623
1.83283460140228271 2.87152671813964844 0.206945359706878662
0.277657181024551392 2.53524923324584961 -0.490662932395935059
2.07762479782104492 1.26558184623718262 -0.72323143482208252
0.999184966087341309 3.09749865531921387 0.767809629440307617
0.500815629959106445 2.04692506790161133 -0.539626896381378174
0.965226292610168457 2.7977299690246582 0.0791895389556884766
0.147531941533088684 2.53731656074523926 -0.307219713926315308
0.267236143350601196 2.52332353591918945 -0.476619154214859009
2.14552497863769531 0.56167912483215332 -0.504613518714904785
3.15495944023132324 2.83135080337524414 -0.611180424690246582
-2.30158615112304688 -0.07566070556640625 -0.40267258882522583
0.273551136255264282 2.53579545021057129 -0.452762186527252197
0.27880173921585083 2.5522913932800293 -0.466803014278411865
0.268088966608047485 2.54617762565612793 -0.449493438005447388
2.23062992095947266 3.71960854530334473 -0.579644083976745605
0.275216400623321533 2.5517432689666748 -0.467048764228820801
0.272456645965576172 2.54478764533996582 -0.468867868185043335
0.263265103101730347 2.54443645477294922 -0.390905559062957764
1.54892480373382568 3.37468791007995605 -0.191162958741188049
0.27582859992980957 2.56828474998474121 -0.420956999063491821
0.278374969959259033 2.53916788101196289 -0.47134891152381897
0.227639928460121155 2.53667044639587402 -0.384519338607788086
-2.57144856452941895 0.0804197788238525391 -0.626450896263122559
0.89891660213470459 3.29071784019470215 0.754874289035797119
-0.301331222057342529 2.60905933380126953 -0.628422439098358154
0.277585387229919434 2.52166891098022461 -0.470101267099380493
0.292010098695755005 2.53360080718994141 -0.396610051393508911
0.263960450887680054 2.55575275421142578 -0.446375668048858643
0.261004418134689331 2.54529285430908203 -0.439838230609893799
1.86926591396331787 0.405157566070556641 -0.386144846677780151
-1.67932212352752686 2.29252719879150391 -0.350123465061187744
-0.0250764265656471252 1.73038589954376221 -0.0298274755477905273
0.293613284826278687 2.57490968704223633 -0.414585918188095093
0.276303976774215698 -0.464336633682250977 -0.513233363628387451
0.336795687675476074 1.35724639892578125 -0.644739747047424316
-0.272061377763748169 2.92212557792663574 -0.579629421234130859
0.285870730876922607 2.55629158020019531 -0.473166078329086304
-0.237284541130065918 3.3874361515045166 0.77177727222442627
0.413229465484619141 3.25972604751586914 0.930405139923095703
-0.277083277702331543 2.89586925506591797 -0.292930513620376587
1.99758005142211914 3.18480300903320312 -0.599802494049072266
2.04762744903564453 3.72386503219604492 -0.663546144962310791
0.271648705005645752 2.54911470413208008 -0.43672412633895874
0.290876686573028564 2.51939034461975098 -0.414620280265808105
-0.242630317807197571 1.11817121505737305 -0.721802949905395508
0.323113024234771729 2.05706882476806641 -0.379713714122772217
0.69712376594543457 2.37944531440734863 0.0888885259628295898
0.267529070377349854 2.54640698432922363 -0.457033723592758179
0.27115178108215332 2.56099700927734375 -0.431616216897964478
0.806553006172180176 3.28733253479003906 1.10161066055297852
2.27971172332763672 3.28223943710327148 0.50792992115020752
