ply
format ascii 1.0
element vertex 256
comment vertices
property float x
property float y
property float z
end_header
1.99338424205780029 3.40175914764404297 0.106971979141235352
-3.7710871696472168 5.53340482711791992 1.87441921234130859
0.738200664520263672 6.97408723831176758 2.46414923667907715
-1.22541189193725586 1.95202827453613281 -0.673505246639251709
-0.981882750988006592 3.52062034606933594 0.903017640113830566
2.80549931526184082 6.54590177536010742 2.26236677169799805
0.264813125133514404 2.45232295989990234 -0.510883212089538574
-1.94013118743896484 2.89038586616516113 -0.551452875137329102
2.31475949287414551 3.46886301040649414 -0.720747649669647217
0.334103584289550781 2.64685773849487305 -0.410782307386398315
0.603019118309020996 3.55008196830749512 0.975340723991394043
-1.83795201778411865 3.14808964729309082 -0.232368975877761841
-0.753782749176025391 2.61605119705200195 -0.338241428136825562
1.4522475004196167 3.68157052993774414 -0.737670361995697021
0.30148652195930481 2.59759283065795898 -0.411571502685546875
-0.270876407623291016 2.77918720245361328 -0.633488118648529053
1.81319212913513184 6.76861047744750977 2.3676598072052002
-0.114660859107971191 1.20772266387939453 -0.65400850772857666
-0.20544084906578064 3.22513937950134277 -0.0117698311805725098
0.354439795017242432 2.53600430488586426 -0.338380277156829834
0.303546249866485596 2.51815128326416016 -0.442065119743347168
2.76929521560668945 3.44811415672302246 -0.417085349559783936
1.4334566593170166 3.51894569396972656 0.863747000694274902
-1.83703851699829102 3.44498038291931152 0.829729557037353516
0.266030490398406982 2.4091036319732666 -0.618706345558166504
-1.44905853271484375 3.31980776786804199 -0.588284671306610107
-1.28965377807617188 3.40081906318664551 -0.0422853529453277588
1.55061721801757812 3.52504086494445801 -0.3057079017162323
-1.68654417991638184 3.34137201309204102 -0.250664740800857544
-0.195688486099243164 3.53466415405273438 0.965765655040740967
0.263670235872268677 2.61625432968139648 -0.455951154232025146
-0.252347350120544434 2.76060056686401367 -0.534163773059844971
0.0229363739490509033 2.47157716751098633 -0.492119014263153076
2.16260671615600586 3.44697475433349609 -0.549562633037567139
0.375687241554260254 2.42413210868835449 -0.527405858039855957
0.131674259901046753 2.29119777679443359 -0.562537610530853271
0.203049436211585999 2.45869016647338867 -0.450467467308044434
0.276898354291915894 2.56979179382324219 -0.429761230945587158
-1.84695494174957275 2.08366036415100098 -0.585012555122375488
0.297394514083862305 2.51355218887329102 -0.427658557891845703
-0.725844740867614746 3.27669835090637207 -0.0228876471519470215
-1.24479103088378906 3.32318758964538574 -0.458129703998565674
0.466834068298339844 3.31995439529418945 0.0868354439735412598
1.56003355979919434 3.27720499038696289 0.0184991955757141113
-1.23896622657775879 3.18924832344055176 -0.63550567626953125
2.13265442848205566 3.5233757495880127 0.791903138160705566
2.31783580780029297 3.65574979782104492 -0.368944942951202393
0.920097768306732178 3.5471799373626709 0.542569100856781006
-0.357680797576904297 2.55148553848266602 -0.589199721813201904
-1.61066627502441406 3.05442357063293457 -0.317350625991821289
0.892208218574523926 2.86609697341918945 -0.341467916965484619
0.108006298542022705 2.93886470794677734 -0.549417853355407715
0.247229337692260742 2.46041679382324219 -0.563861727714538574
-0.237433701753616333 2.79176616668701172 -0.370932191610336304
2.5864262580871582 3.3777155876159668 -0.226806074380874634
-1.91384601593017578 2.75698113441467285 -0.65225374698638916
-0.954765200614929199 3.09260821342468262 -0.317644178867340088
0.182333946228027344 2.61675167083740234 -0.403991997241973877
0.261222481727600098 2.45458626747131348 -0.483772069215774536
1.47616100311279297 3.18819427490234375 -0.834003925323486328
2.24542427062988281 3.53490090370178223 -0.602788925170898438
-1.38650476932525635 3.44606733322143555 0.613008499145507812
-1.66188895702362061 3.34593367576599121 0.237078428268432617
0.23594328761100769 2.4956817626953125 -0.294117450714111328
0.170455783605575562 3.47194266319274902 0.773658871650695801
0.234234929084777832 2.55029988288879395 -0.451153427362442017
0.0881353020668029785 2.54527044296264648 -0.525716006755828857
-0.557256698608398438 3.52618622779846191 0.632462620735168457
0.397866427898406982 2.48017120361328125 -0.5109139084815979
-0.981093049049377441 3.24952173233032227 -0.454016447067260742
0.320403516292572021 2.58615636825561523 -0.462157160043716431
1.76100242137908936 3.50473856925964355 0.438494741916656494
2.20083975791931152 6.90620231628417969 2.2847597599029541
0.306168407201766968 2.59565329551696777 -0.399158716201782227
-1.67325699329376221 3.23966312408447266 -0.314070820808410645
1.72977340221405029 3.32136201858520508 -0.248172342777252197
1.95789158344268799 3.41080260276794434 -0.610264599323272705
0.959253430366516113 3.5362095832824707 0.991449832916259766
-2.06876850128173828 3.3370659351348877 0.481039226055145264
0.180421561002731323 2.43016147613525391 -0.470729082822799683
0.240988641977310181 2.5849921703338623 -0.428455442190170288
0.279676854610443115 2.54379558563232422 -0.453945338726043701
-1.2604137659072876 3.3169255256652832 -0.197884470224380493
0.327491521835327148 2.46776914596557617 -0.330894201993942261
-1.53973591327667236 3.27198958396911621 -0.304327636957168579
0.323217421770095825 2.50795960426330566 -0.48304218053817749
0.268826395273208618 2.56371927261352539 -0.460312008857727051
-0.313823521137237549 1.05759549140930176 -0.711171925067901611
-1.82640910148620605 2.98396182060241699 -0.695942282676696777
0.225411325693130493 2.6690363883972168 -0.433479607105255127
-0.186475425958633423 3.53046727180480957 0.548232197761535645
0.0108742415904998779 1.11740541458129883 -0.680856168270111084
2.33629179000854492 3.42887115478515625 0.356992781162261963
1.44486868381500244 3.25574731826782227 -0.223290473222732544
-1.12471902370452881 3.3635399341583252 0.155043423175811768
-1.38708603382110596 3.13542771339416504 -0.141395866870880127
2.12415218353271484 3.42586088180541992 -0.635195255279541016
0.155811235308647156 2.44810175895690918 -0.488025307655334473
-0.121113955974578857 2.81173825263977051 -0.609341144561767578
2.53526067733764648 3.5892488956451416 -0.546670675277709961
0.167104125022888184 2.5089566707611084 -0.417956709861755371
0.601068079471588135 2.62056255340576172 -0.37121155858039856
-0.0932818502187728882 2.42504119873046875 -0.264192044734954834
1.59171879291534424 3.56057906150817871 -0.387254774570465088
0.491322726011276245 1.38127338886260986 -0.633525490760803223
0.323130369186401367 2.49361634254455566 -0.431545346975326538
1.29237580299377441 3.53227138519287109 0.517776727676391602
-0.273855596780776978 3.27234768867492676 -0.163158953189849854
1.20470237731933594 3.38779354095458984 -0.615122854709625244
-1.47745847702026367 2.44189167022705078 -0.59939199686050415
-1.41798090934753418 3.0200188159942627 -0.607827544212341309
0.82164376974105835 3.30399155616760254 -0.034499824047088623
-0.546893179416656494 2.76878619194030762 -0.654518842697143555
-1.05968999862670898 2.71293807029724121 -0.634052872657775879
0.289477825164794922 2.49204492568969727 -0.507582783699035645
0.0361700654029846191 2.52283191680908203 -0.415397942066192627
0.0864377841353416443 3.32870674133300781 0.315666496753692627
-0.259646773338317871 2.6194605827331543 -0.510869324207305908
0.217004001140594482 2.41420912742614746 -0.56124502420425415
0.11849057674407959 2.86955356597900391 -0.562666952610015869
2.24062013626098633 3.46552181243896484 -0.539185285568237305
0.657485365867614746 3.34339594841003418 0.176298141479492188
-0.922713577747344971 3.43217873573303223 0.603247642517089844
1.58277368545532227 3.27688884735107422 0.0564808547496795654
0.571734368801116943 3.49878501892089844 0.6541709303855896
1.57754266262054443 3.32484674453735352 -0.30829891562461853
-0.12679678201675415 1.82508993148803711 -0.602642297744750977
0.347013086080551147 2.66469573974609375 -0.410868436098098755
0.275672078132629395 2.43654489517211914 -0.522425055503845215
-0.819551646709442139 2.70880293846130371 -0.395915627479553223
0.236663848161697388 2.54339957237243652 -0.44367179274559021
1.77611207962036133 3.4625084400177002 -0.579114675521850586
-1.41423165798187256 2.88179683685302734 -0.436971515417098999
0.148229911923408508 2.50471878051757812 -0.185088276863098145
0.236410215497016907 2.54877471923828125 -0.463994681835174561
2.39913415908813477 3.33020782470703125 -0.0622771978378295898
0.0248032808303833008 1.76803910732269287 -0.55171436071395874
-1.92190468311309814 3.26575517654418945 -0.323823273181915283
0.258621454238891602 2.56068849563598633 -0.436620473861694336
1.57165837287902832 3.44483232498168945 -0.208441704511642456
0.260998338460922241 2.61891412734985352 -0.436083525419235229
1.84982264041900635 3.52322626113891602 0.736276686191558838
-1.66704285144805908 3.44060492515563965 0.571043610572814941
2.71153616905212402 3.55217647552490234 -0.547417163848876953
-0.916584253311157227 3.07550454139709473 -0.336397290229797363
0.292395442724227905 2.43674826622009277 -0.465206444263458252
0.2221202552318573 2.42239022254943848 -0.489664018154144287
2.03043842315673828 3.48280143737792969 0.364330291748046875
0.337292283773422241 3.53332686424255371 0.959622859954833984
-1.93412494659423828 2.6407928466796875 -0.605491399765014648
-2.1010899543762207 3.26682543754577637 0.126097142696380615
0.224710524082183838 2.48017525672912598 -0.455994307994842529
2.55762720108032227 3.38947010040283203 -0.424135714769363403
0.220649957656860352 2.53647851943969727 -0.423074603080749512
-1.55389571189880371 3.42015600204467773 0.794378161430358887
0.228004395961761475 2.49588465690612793 -0.420458734035491943
0.229456394910812378 2.46597933769226074 -0.472076117992401123
-0.131926432251930237 1.12873959541320801 -0.598812282085418701
-0.468832910060882568 3.54969382286071777 0.993641495704650879
-1.26402795314788818 3.47697782516479492 0.889876246452331543
-0.410779118537902832 3.35925984382629395 0.268687903881072998
0.34929889440536499 2.60473108291625977 -0.436994373798370361
0.165835052728652954 2.5399024486541748 -0.5204315185546875
1.11664342880249023 3.38935518264770508 -0.578792810440063477
0.272881746292114258 2.41158080101013184 -0.540786147117614746
0.100200340151786804 3.53769755363464355 0.973468780517578125
-1.5557854175567627 3.33620452880859375 -0.035251230001449585
-1.57477593421936035 3.25847125053405762 -0.393266379833221436
1.57001149654388428 3.45396566390991211 -0.289403140544891357
-1.50115799903869629 3.14103317260742188 -0.372434645891189575
-0.734675943851470947 3.5369257926940918 0.915891528129577637
0.0491204932332038879 2.39976048469543457 -0.296124100685119629
0.294262230396270752 2.61479926109313965 -0.424940109252929688
0.629287540912628174 2.57493305206298828 -0.35787200927734375
-1.39222180843353271 3.25718283653259277 0.166686803102493286
-0.945745229721069336 3.04504871368408203 -0.493386983871459961
-1.00308263301849365 3.24584627151489258 -0.441054284572601318
0.473918139934539795 2.50869607925415039 -0.49496304988861084
0.210707873106002808 2.48070430755615234 -0.335844993591308594
-1.6889338493347168 3.01002740859985352 -0.582762360572814941
-1.12743282318115234 3.45389103889465332 0.605895757675170898
-0.941614925861358643 2.86096286773681641 -0.520948469638824463
0.290139377117156982 2.54955697059631348 -0.406574010848999023
0.496860384941101074 2.4694218635559082 -0.509864747524261475
-2.01058602333068848 2.89044404029846191 -0.65568840503692627
2.29947996139526367 3.36843228340148926 -0.286714911460876465
-1.93284690380096436 3.17989778518676758 -0.30362585186958313
-1.86060667037963867 3.38601922988891602 0.560271739959716797
-0.499585449695587158 3.19489884376525879 -0.240881204605102539
0.298247933387756348 2.61877703666687012 -0.434986710548400879
0.209405705332756042 2.37954831123352051 -0.577449381351470947
1.51817893981933594 3.50156450271606445 0.618553340435028076
0.237979590892791748 2.50123763084411621 -0.533614635467529297
-0.116235807538032532 2.46063041687011719 -0.385176718235015869
1.98193061351776123 3.32924342155456543 -0.114652156829833984
1.21447420120239258 3.54076290130615234 0.841641604900360107
0.548896729946136475 2.03277945518493652 -0.487023860216140747
0.274598956108093262 3.49532461166381836 0.597912430763244629
0.0706958696246147156 2.50764775276184082 -0.179386168718338013
0.256522655487060547 2.41975736618041992 -0.498726546764373779
1.74274241924285889 3.37608623504638672 0.296598941087722778
2.68634700775146484 3.42195630073547363 -0.376708537340164185
-1.32074904441833496 3.30261468887329102 0.181909501552581787
0.147287845611572266 2.49700546264648438 -0.477077066898345947
1.59305274486541748 3.60721683502197266 -0.50874561071395874
-1.49732887744903564 3.05588483810424805 -0.650467813014984131
0.00948578119277954102 2.59190249443054199 -0.568892955780029297
-1.1294475793838501 3.29543209075927734 0.0289762616157531738
0.266782701015472412 2.57257890701293945 -0.479526817798614502
0.228654354810714722 2.50829482078552246 -0.445166677236557007
2.26433730125427246 3.67220950126647949 -0.412248730659484863
0.263465434312820435 2.54779911041259766 -0.477886766195297241
-1.6307520866394043 3.12366604804992676 -0.251880645751953125
0.264020979404449463 2.53246092796325684 -0.481643944978713989
0.097301974892616272 2.53164911270141602 -0.386045873165130615
1.60351252555847168 3.31059408187866211 -0.127320170402526855
0.262224972248077393 2.65510749816894531 -0.40645986795425415
0.203969031572341919 2.51113343238830566 -0.500571191310882568
0.0190553665161132812 2.53936338424682617 -0.39697110652923584
-0.689288079738616943 3.41598176956176758 0.334872186183929443
0.782204866409301758 3.54926657676696777 0.780029237270355225
-0.359106183052062988 2.62548470497131348 -0.64105457067489624
0.295436382293701172 2.4307255744934082 -0.486079782247543335
0.389111906290054321 2.50746250152587891 -0.355078399181365967
0.329116165637969971 2.5983879566192627 -0.425546705722808838
0.233288541436195374 2.48598289489746094 -0.419404059648513794
1.61672556400299072 3.34868502616882324 0.384127765893936157
-1.90365290641784668 3.3875117301940918 0.278576254844665527
-1.65131759643554688 3.30735230445861816 -0.242739692330360413
-0.0023479759693145752 2.45769977569580078 -0.291921138763427734
0.0115924710407853127 3.44244170188903809 0.555992484092712402
0.343373686075210571 2.66203451156616211 -0.363285154104232788
1.70958876609802246 3.41176438331604004 -0.476677268743515015
1.84774875640869141 3.46446990966796875 -0.709495306015014648
-0.935975909233093262 3.12193393707275391 -0.421877235174179077
0.585723996162414551 3.18214249610900879 0.107462048530578613
-0.18621981143951416 2.48994064331054688 -0.418025702238082886
0.325416803359985352 1.3450016975402832 -0.635284125804901123
-0.351135730743408203 2.86681342124938965 -0.608200788497924805
0.273932754993438721 2.62373447418212891 -0.499574363231658936
-0.31726759672164917 3.54628515243530273 0.754783868789672852
0.421945035457611084 3.48625898361206055 0.813107013702392578
-0.206631451845169067 3.36514401435852051 0.177394509315490723
2.06385016441345215 3.38814759254455566 -0.379096418619155884
2.12352848052978516 3.65482997894287109 -0.549517929553985596
0.299126029014587402 2.51451325416564941 -0.412402927875518799
0.411027461290359497 2.49697232246398926 -0.381978809833526611
-0.30140569806098938 1.18880307674407959 -0.728250861167907715
0.60176926851272583 3.06956386566162109 -0.103549778461456299
0.621746063232421875 3.42484498023986816 0.55787581205368042
0.254225075244903564 2.52189183235168457 -0.455297887325286865
-1.19528889656066895 3.59785723686218262 0.014198005199432373
1.52517187595367432 3.54587316513061523 -0.259696543216705322
0.24271121621131897 2.59038877487182617 -0.4048423171043396
0.751097798347473145 3.53574371337890625 0.974606752395629883
1.98829150199890137 3.49056053161621094 0.586136460304260254
