ply
format ascii 1.0
element vertex 58
comment vertices
property float x
property float y
property float z
end_header
0.261943608522415161 3.35423159599304199 -0.583246707916259766
0.339705765247344971 3.33498430252075195 -0.469457477331161499
0.310552358627319336 3.3642430305480957 -0.489346057176589966
0.307708323001861572 3.37591552734375 -0.482256919145584106
0.306567728519439697 3.37283205986022949 -0.494678109884262085
0.383742004632949829 3.39330935478210449 -0.632194995880126953
0.314469665288925171 3.35542917251586914 -0.470403164625167847
0.2643393874168396 3.41567635536193848 -0.376387089490890503
0.317400872707366943 3.36995506286621094 -0.495026707649230957
0.348877519369125366 3.33677053451538086 -0.529268741607666016
0.298037618398666382 3.38460278511047363 -0.569581329822540283
0.322317302227020264 3.37727665901184082 -0.582878589630126953
0.30832439661026001 3.37965631484985352 -0.533631563186645508
0.31206628680229187 3.37110710144042969 -0.502127468585968018
0.315465152263641357 3.36459875106811523 -0.512724220752716064
0.304395139217376709 3.37378358840942383 -0.497665613889694214
0.261989951133728027 3.46260809898376465 -0.316510707139968872
0.25010150671005249 3.33865070343017578 -0.589299619197845459
0.363586604595184326 3.3206934928894043 -0.51485675573348999
0.3014945387840271 3.43789076805114746 -0.489486008882522583
0.31339225172996521 3.38852620124816895 -0.555519819259643555
0.288687169551849365 3.35928249359130859 -0.381128847599029541
0.319894790649414062 3.37556576728820801 -0.50261390209197998
0.30004417896270752 3.37741184234619141 -0.541159451007843018
0.319462388753890991 3.37157201766967773 -0.495460838079452515
0.267283260822296143 3.42037224769592285 -0.572530508041381836
0.257648199796676636 3.38199496269226074 -0.582948148250579834
0.308428198099136353 3.36918735504150391 -0.481907188892364502
0.473184049129486084 3.3293449878692627 -0.535237014293670654
0.320161670446395874 3.3776247501373291 -0.458696037530899048
0.319121301174163818 3.36485815048217773 -0.522967636585235596
0.306936800479888916 3.37576460838317871 -0.508842766284942627
0.320005416870117188 3.40311217308044434 -0.567485272884368896
0.301879614591598511 3.3689730167388916 -0.48794931173324585
0.317563623189926147 3.32077789306640625 -0.529479861259460449
0.318700492382049561 3.38055515289306641 -0.510778069496154785
0.288652032613754272 3.4039909839630127 -0.387931346893310547
0.296658754348754883 3.36892271041870117 -0.516003727912902832
0.290394067764282227 3.37882423400878906 -0.573443233966827393
0.325443744659423828 3.37147235870361328 -0.531181633472442627
0.312083899974822998 3.36949467658996582 -0.49769178032875061
0.410439729690551758 3.31963610649108887 -0.60426253080368042
0.301702141761779785 3.3716590404510498 -0.574022471904754639
0.354020446538925171 3.33342909812927246 -0.508794724941253662
0.304842531681060791 3.37725019454956055 -0.535008013248443604
0.298413097858428955 3.36895012855529785 -0.509187221527099609
0.314722061157226562 3.36779117584228516 -0.461063951253890991
0.325124979019165039 3.34098172187805176 -0.503811359405517578
0.266511023044586182 3.35549092292785645 -0.438559949398040771
0.298213571310043335 3.37171792984008789 -0.526805996894836426
0.313021004199981689 3.37131547927856445 -0.462853819131851196
0.299891948699951172 3.36578178405761719 -0.553116679191589355
0.413186013698577881 3.35981130599975586 -0.623015105724334717
0.321570426225662231 3.36639308929443359 -0.481097161769866943
0.308311343193054199 3.36274242401123047 -0.470315873622894287
0.316450148820877075 3.37336063385009766 -0.478834956884384155
0.307631164789199829 3.37722921371459961 -0.530649960041046143
0.318732529878616333 3.37250566482543945 -0.531295537948608398
