ply
format ascii 1.0
element vertex 256
comment vertices
property float x
property float y
property float z
end_header
0.830927252769470215 3.40069937705993652 -0.583640396595001221
2.91076922416687012 7.98234033584594727 2.08921909332275391
-4.63869619369506836 6.45703983306884766 0.587514698505401611
5.97047901153564453 9.04410362243652344 -0.955857157707214355
-0.442805349826812744 6.11254501342773438 2.42079281806945801
-1.9483494758605957 3.26586580276489258 1.09354567527770996
0.959390103816986084 3.76567935943603516 -0.493691325187683105
-1.23007512092590332 3.52994871139526367 -0.647767484188079834
-2.69704294204711914 6.78110027313232422 2.35436630249023438
-1.77842950820922852 7.76714801788330078 -0.15456312894821167
1.67872405052185059 5.63338136672973633 2.27797508239746094
1.0586700439453125 3.26588273048400879 -0.335180401802062988
1.07115447521209717 7.18859767913818359 2.1396031379699707
0.84563744068145752 3.46554780006408691 -0.36854138970375061
-0.855648815631866455 7.60641908645629883 2.31035995483398438
1.01952087879180908 4.45693159103393555 -0.664395332336425781
0.141535192728042603 4.05031490325927734 1.00629281997680664
0.880283355712890625 3.41979360580444336 -0.542932689189910889
2.71009445190429688 6.43034934997558594 2.07491683959960938
4.00142765045166016 1.51456952095031738 -0.293273866176605225
-1.13945508003234863 3.60847878456115723 -0.637615025043487549
-1.49704241752624512 2.0856013298034668 -1.12854862213134766
0.969451427459716797 3.40044951438903809 -0.585193395614624023
2.03789687156677246 4.82831001281738281 -0.780514240264892578
-1.08795464038848877 3.62476110458374023 -0.609013676643371582
0.755320370197296143 6.23540878295898438 2.50373077392578125
-1.21910750865936279 3.21276140213012695 0.0833023786544799805
-0.214647859334945679 6.90662908554077148 2.33462190628051758
-1.63737499713897705 6.86799240112304688 2.34808611869812012
0.936726272106170654 3.41987013816833496 -0.592344880104064941
0.851795375347137451 3.43417954444885254 -0.398701757192611694
0.846899569034576416 3.42484521865844727 -0.389997363090515137
1.96587145328521729 7.84857606887817383 2.17926216125488281
0.84247511625289917 3.44713020324707031 -0.42237505316734314
0.962320566177368164 4.3190302848815918 1.09682762622833252
2.07459068298339844 4.56529855728149414 -0.541367173194885254
-3.05039262771606445 1.79647040367126465 -0.617494821548461914
2.50557136535644531 5.92504072189331055 1.73714995384216309
1.32856345176696777 6.52027225494384766 2.16014862060546875
0.826477468013763428 5.62563562393188477 2.36117148399353027
0.880723237991333008 3.41190147399902344 -0.519254088401794434
1.15651893615722656 3.64678168296813965 -0.624381899833679199
0.206466630101203918 7.7546687126159668 2.24918794631958008
0.842364311218261719 3.43805527687072754 -0.40866696834564209
0.518167555332183838 2.63777399063110352 -0.477327108383178711
-1.04951536655426025 2.86013913154602051 -0.678730487823486328
-0.887573361396789551 3.76091933250427246 -0.633431613445281982
-1.17567777633666992 3.60912084579467773 -0.627421081066131592
0.824856877326965332 3.43454790115356445 -0.51778566837310791
0.0395290590822696686 5.7512359619140625 2.29839682579040527
-0.778968453407287598 6.79522466659545898 2.39956831932067871
0.894995331764221191 3.43090605735778809 -0.512154579162597656
-1.50142240524291992 3.540618896484375 0.0647664666175842285
-1.51603758335113525 3.93500065803527832 -0.531481444835662842
2.21962141990661621 4.12597990036010742 0.104810982942581177
1.48002564907073975 4.34085512161254883 -0.681529343128204346
2.39774394035339355 7.002716064453125 1.75082981586456299
0.566473960876464844 7.67669296264648438 2.08680009841918945
-1.2997748851776123 3.57791972160339355 1.07012438774108887
1.99189221858978271 4.44928550720214844 1.38384568691253662
-0.889555931091308594 3.74349761009216309 -0.584079563617706299
0.226560533046722412 6.64654970169067383 2.26427221298217773
0.796756148338317871 3.33746433258056641 -0.579905569553375244
0.888667702674865723 3.42507100105285645 -0.44144141674041748
-2.103912353515625 7.05588436126708984 2.29933476448059082
-0.417009145021438599 3.87598419189453125 1.08685052394866943
0.86937558650970459 3.4269711971282959 -0.481906980276107788
0.885474801063537598 3.44735980033874512 -0.514325499534606934
-1.71889114379882812 3.38993525505065918 -0.769752323627471924
0.836526930332183838 3.4269874095916748 -0.42185819149017334
0.0645156055688858032 6.2916722297668457 2.42127895355224609
0.706238269805908203 1.0563809871673584 -0.613264739513397217
-0.294281035661697388 7.92206621170043945 2.35519266128540039
0.847998142242431641 3.4384315013885498 -0.434872627258300781
1.31450915336608887 6.07307291030883789 2.40443038940429688
-1.19693624973297119 3.62567877769470215 -0.365334272384643555
0.867872834205627441 3.43220424652099609 -0.46576923131942749
0.858930706977844238 3.44566917419433594 -0.458539694547653198
-1.32160329818725586 7.37384939193725586 2.28918051719665527
-3.40205693244934082 6.70543813705444336 2.11540341377258301
-0.3840751051902771 7.54327058792114258 2.22429466247558594
2.54245400428771973 7.69835710525512695 1.98486220836639404
-0.802401363849639893 3.69046545028686523 -0.616980910301208496
0.869881212711334229 3.43141055107116699 -0.471061736345291138
3.31911182403564453 0.980842351913452148 -0.818884313106536865
-0.806793570518493652 3.71193647384643555 -0.67450481653213501
0.834240913391113281 3.46568489074707031 -0.345890313386917114
-1.21216893196105957 3.2909238338470459 -0.693991243839263916
1.54010987281799316 7.26487350463867188 2.09645366668701172
0.928066790103912354 2.50893926620483398 -0.739711165428161621
0.895220816135406494 3.42798328399658203 -0.552736461162567139
0.54330599308013916 7.32426309585571289 2.27219176292419434
0.884543836116790771 6.34229850769042969 2.0139918327331543
0.897519946098327637 3.44200706481933594 -0.514232516288757324
-0.353907227516174316 1.61796116828918457 -0.164373427629470825
-0.498615562915802002 6.50321245193481445 2.4474184513092041
-2.05325794219970703 6.60998678207397461 2.36323070526123047
-1.14135658740997314 3.59479665756225586 -0.585984170436859131
0.47043919563293457 3.49962043762207031 -0.635912656784057617
0.868861556053161621 3.44028425216674805 -0.453299045562744141
2.23984718322753906 6.43770027160644531 3.58790159225463867
1.95299446582794189 4.62103033065795898 -0.844453096389770508
-3.52360391616821289 1.85092532634735107 -0.387106239795684814
1.90518271923065186 4.42133283615112305 -0.603220045566558838
-0.762273490428924561 3.74454855918884277 -0.250060319900512695
1.62336599826812744 6.99474287033081055 2.01342558860778809
1.8777083158493042 6.32393312454223633 2.20791077613830566
1.89876508712768555 4.61145257949829102 -0.665510177612304688
0.895938217639923096 3.40182948112487793 -0.561461448669433594
-0.868620514869689941 3.68040609359741211 1.05516219139099121
0.878640592098236084 3.43513321876525879 -0.433302491903305054
-1.12965619564056396 3.6120452880859375 -0.632096290588378906
1.79300141334533691 4.66344976425170898 -0.788972318172454834
1.78087925910949707 0.423713207244873047 -1.02567839622497559
2.48283195495605469 7.06263351440429688 2.19681000709533691
-1.04025065898895264 7.09717321395874023 2.25791072845458984
-0.799437046051025391 3.80282735824584961 -0.681325376033782959
0.848141074180603027 3.45005130767822266 -0.416490674018859863
-1.06813931465148926 3.69800209999084473 -0.569383740425109863
0.846181273460388184 3.4187004566192627 -0.347318470478057861
-1.12633180618286133 3.62557363510131836 -0.581392645835876465
-1.03149950504302979 3.61944341659545898 -0.61854320764541626
0.882990896701812744 3.44380736351013184 -0.447353512048721313
-1.33384895324707031 6.64007997512817383 2.35468602180480957
-0.386575818061828613 3.62154054641723633 -0.676525354385375977
0.858129262924194336 3.364410400390625 -0.572824418544769287
0.875007033348083496 3.43448495864868164 -0.407123059034347534
-1.0892406702041626 3.67180252075195312 -0.673137247562408447
2.16643142700195312 6.33193111419677734 2.00092792510986328
0.955952763557434082 3.40218877792358398 -0.537944495677947998
-1.59186136722564697 3.50207018852233887 0.683812201023101807
-1.15254271030426025 3.62128019332885742 -0.515040040016174316
0.932745814323425293 2.06087350845336914 -0.689931154251098633
0.557834982872009277 4.19443845748901367 1.16023266315460205
-1.38462483882904053 2.81218528747558594 -0.721494793891906738
0.86674267053604126 3.4211268424987793 -0.478532522916793823
0.00356847047805786133 -1.31693840026855469 -0.645241081714630127
-2.84660887718200684 6.68390178680419922 2.25636005401611328
1.36682713031768799 5.53977441787719727 2.35580706596374512
-0.568488597869873047 3.19710683822631836 -0.704992949962615967
0.897433221340179443 5.99003028869628906 2.35679912567138672
1.46873593330383301 4.05113077163696289 0.584823548793792725
-1.1336359977722168 3.6111147403717041 -0.515456438064575195
1.26607716083526611 3.71525001525878906 -0.666756689548492432
2.1736907958984375 0.440598487854003906 -0.8953094482421875
0.870200216770172119 3.45369577407836914 -0.439850658178329468
-0.0752783194184303284 7.45463943481445312 2.28516411781311035
0.403511732816696167 3.26282620429992676 -0.702946484088897705
1.22860324382781982 7.75265693664550781 2.0881807804107666
0.864916741847991943 3.42087745666503906 -0.467970430850982666
0.891213357448577881 3.40773320198059082 -0.435097754001617432
0.0576857328414916992 5.4459075927734375 2.37535333633422852
-1.58403182029724121 3.46736788749694824 0.0817751884460449219
0.871813952922821045 3.41833233833312988 -0.491667807102203369
0.899000227451324463 3.3683319091796875 -0.587805807590484619
0.870198428630828857 3.43367099761962891 -0.455451875925064087
-0.0137732625007629395 6.2929534912109375 2.24480700492858887
0.891435682773590088 3.41680645942687988 -0.460877507925033569
-0.74321436882019043 3.76103448867797852 -0.633403658866882324
0.853603243827819824 3.44982504844665527 -0.426557034254074097
-0.414513230323791504 6.90735435485839844 2.35999774932861328
-1.03601646423339844 3.66669750213623047 -0.625778555870056152
0.0130157917737960815 6.09466838836669922 2.33634352684020996
0.140906691551208496 5.5436859130859375 2.10016632080078125
0.89704662561416626 3.42347192764282227 -0.459722548723220825
0.875627756118774414 3.44392585754394531 -0.451589435338973999
-0.128511130809783936 6.7255859375 2.38822793960571289
-1.29468202590942383 3.55237793922424316 -0.364616066217422485
0.901804089546203613 3.44236922264099121 -0.495959371328353882
1.37093627452850342 4.39627313613891602 0.921787559986114502
0.49225914478302002 7.44967365264892578 2.22596931457519531
0.92201387882232666 3.4238135814666748 -0.534147083759307861
3.02654027938842773 4.56514549255371094 1.06404566764831543
0.901800572872161865 6.70277023315429688 2.01191854476928711
0.86108553409576416 3.44806265830993652 -0.476781308650970459
0.792775154113769531 6.28551197052001953 2.28305625915527344
2.42980766296386719 6.41162633895874023 2.26753425598144531
-1.20194435119628906 3.62417411804199219 -0.619863033294677734
2.7088320255279541 3.55891108512878418 0.10496985912322998
-1.61777746677398682 6.805206298828125 2.29832601547241211
0.875703155994415283 3.43092083930969238 -0.407651215791702271
0.841132581233978271 3.43066215515136719 -0.415793180465698242
1.97393786907196045 5.08654975891113281 1.82757914066314697
0.858008384704589844 3.38747620582580566 -0.599071025848388672
1.61274564266204834 4.27053070068359375 -0.642165303230285645
2.43757152557373047 7.02637052536010742 2.25957942008972168
0.847356796264648438 3.4486234188079834 -0.420541256666183472
1.0666203498840332 2.73203587532043457 -0.430404156446456909
-1.16300523281097412 3.5424652099609375 -0.701563417911529541
0.935702800750732422 3.47340178489685059 -0.554950058460235596
-0.104534529149532318 3.30043983459472656 -0.345552563667297363
1.8681492805480957 3.03325653076171875 -0.398353278636932373
-1.06128406524658203 3.6137239933013916 0.68653637170791626
0.862643301486968994 3.4596254825592041 -0.422518908977508545
-1.14805364608764648 3.60242938995361328 -0.620178103446960449
-1.00238680839538574 3.33405518531799316 -0.738949477672576904
0.813004136085510254 3.39707493782043457 -0.593823134899139404
0.778011322021484375 6.88168764114379883 2.10323596000671387
2.25438666343688965 6.98586940765380859 1.9822843074798584
0.935798287391662598 3.3765408992767334 -0.329932749271392822
-1.13247394561767578 3.61149430274963379 -0.628748238086700439
-1.78610682487487793 2.83448696136474609 -0.787620365619659424
0.219741195440292358 3.49280619621276855 -0.514965593814849854
-1.00393712520599365 3.74159884452819824 -0.430928289890289307
2.13204073905944824 7.56361627578735352 2.02981352806091309
0.894340634346008301 3.42411160469055176 -0.508238613605499268
0.340749889612197876 6.90318965911865234 2.1269533634185791
-0.850453078746795654 3.79229402542114258 -0.679607272148132324
-1.31817364692687988 7.33341646194458008 2.02710652351379395
1.70681452751159668 4.71951770782470703 -0.898236453533172607
2.00996780395507812 3.13391447067260742 0.428725838661193848
-0.685903370380401611 6.74125242233276367 2.37299180030822754
0.838111996650695801 3.45382142066955566 -0.403542816638946533
3.41896438598632812 1.73023366928100586 -0.676671028137207031
-1.7337421178817749 3.4425811767578125 1.1679842472076416
0.849210739135742188 3.43389654159545898 -0.430828332901000977
1.62343490123748779 6.82174587249755859 1.87652683258056641
0.315570831298828125 3.81854152679443359 0.182009488344192505
-0.796539425849914551 3.73768901824951172 -0.644859611988067627
2.0192105770111084 5.84853649139404297 0.941329002380371094
0.866605639457702637 3.43117475509643555 -0.467243969440460205
0.839974343776702881 3.4577641487121582 -0.416212022304534912
-0.184984505176544189 2.13926935195922852 -0.742222309112548828
1.73223888874053955 3.28414821624755859 -0.627781987190246582
-0.461913734674453735 7.13629817962646484 2.21558046340942383
-0.251826763153076172 6.35653400421142578 2.38676619529724121
0.895041048526763916 3.43382453918457031 -0.515889525413513184
-2.59778189659118652 3.31859135627746582 -0.566052913665771484
-1.44660425186157227 3.49527120590209961 0.136666357517242432
-1.65221977233886719 3.38804173469543457 -0.416055917739868164
1.34912312030792236 6.75858211517333984 2.11139798164367676
-0.526210427284240723 3.76701569557189941 0.964349031448364258
0.842783212661743164 3.44243717193603516 -0.430879592895507812
0.91088104248046875 6.57923316955566406 2.1797029972076416
-1.58018994331359863 3.65342903137207031 -0.567848086357116699
0.851344764232635498 3.4393165111541748 -0.428431302309036255
-1.18035292625427246 3.58988666534423828 -0.570025801658630371
-2.44830989837646484 6.81290102005004883 2.33734631538391113
0.870240926742553711 3.44684243202209473 -0.494346141815185547
0.906713426113128662 3.38787007331848145 -0.571908473968505859
0.861135423183441162 3.44750547409057617 -0.444021999835968018
0.872730255126953125 3.449493408203125 -0.444095611572265625
1.64639103412628174 4.40162563323974609 -0.618216395378112793
0.86335986852645874 3.42912530899047852 -0.52173691987991333
2.0343620777130127 5.37623786926269531 0.102905750274658203
1.77518844604492188 4.04389572143554688 -0.6376190185546875
-1.08442878723144531 3.63031101226806641 -0.626618564128875732
-1.31439709663391113 3.61730408668518066 -0.644373834133148193
-1.01848685741424561 3.71329879760742188 -0.461285889148712158
0.848152816295623779 3.45522022247314453 -0.386605620384216309
0.874139487743377686 3.43905234336853027 -0.455743879079818726
0.84233248233795166 3.44383478164672852 -0.429954737424850464
0.821799397468566895 3.4236147403717041 -0.539858758449554443
-1.05285298824310303 3.66458010673522949 -0.632752954959869385
0.113451845943927765 3.21152544021606445 -0.654741525650024414
0.994519233703613281 3.42850589752197266 -0.480647951364517212
