ply
format ascii 1.0
element vertex 256
comment vertices
property float x
property float y
property float z
end_header
1.1287614107131958 4.11720085144042969 -0.609736740589141846
-2.09329771995544434 7.88444089889526367 2.29404997825622559
3.15627622604370117 7.83941268920898438 2.33760738372802734
-3.93843650817871094 3.37369656562805176 -0.0588228106498718262
-0.605764329433441162 2.81124401092529297 -0.754732787609100342
0.527745306491851807 5.72044610977172852 2.37915420532226562
3.17256331443786621 6.72851467132568359 -0.206005081534385681
-0.801724374294281006 4.04579734802246094 1.14352130889892578
-0.0832076668739318848 3.17489051818847656 -0.697242140769958496
-1.686531662940979 4.03034687042236328 -0.779082715511322021
2.89096689224243164 4.21226167678833008 0.564245104789733887
0.620050787925720215 8.00385093688964844 2.29886913299560547
1.97919285297393799 4.05213832855224609 -0.825346291065216064
2.78351831436157227 6.19959831237792969 2.27730417251586914
-0.257331818342208862 3.24803853034973145 -0.504571080207824707
-0.981931209564208984 6.35607767105102539 2.4461209774017334
0.727714180946350098 4.03075361251831055 1.01884853839874268
2.00650835037231445 7.03915691375732422 2.2339775562286377
-1.70638608932495117 4.15395450592041016 -0.430145353078842163
-0.0200910270214080811 4.7024540901184082 -0.418464720249176025
2.00519919395446777 4.03177022933959961 -0.804285287857055664
1.06217789649963379 4.0386962890625 -0.887152254581451416
-0.543694794178009033 7.44474506378173828 2.34969162940979004
-0.240600079298019409 3.2408597469329834 -0.541964054107666016
-1.93031978607177734 4.10677909851074219 1.07579195499420166
-2.05043363571166992 6.87984991073608398 2.43397021293640137
1.7157752513885498 5.48538064956665039 2.3713982105255127
-0.0723829567432403564 3.2873389720916748 -0.774810314178466797
1.96676135063171387 4.03506040573120117 0.238641321659088135
-0.316610395908355713 3.27355289459228516 -0.554905414581298828
-0.221393078565597534 3.23798394203186035 -0.516880989074707031
0.412340283393859863 6.84678936004638672 2.38845014572143555
1.78175806999206543 7.90531206130981445 2.30472946166992188
-2.3533012866973877 3.94527101516723633 -0.622982561588287354
-0.242536753416061401 3.23707270622253418 -0.571134626865386963
2.36724472045898438 3.11050558090209961 -0.868401110172271729
-0.22184339165687561 3.21826696395874023 -0.583486616611480713
2.9468390941619873 6.97148227691650391 2.20687603950500488
3.29913234710693359 6.58118724822998047 0.608484923839569092
-0.336755871772766113 3.15842151641845703 -0.320637941360473633
-0.251711130142211914 3.21580767631530762 -0.481025755405426025
1.99067568778991699 4.07113075256347656 -0.827100515365600586
-0.229043379426002502 3.24950504302978516 -0.579371392726898193
1.30676567554473877 6.28410005569458008 2.39134407043457031
-0.14945298433303833 6.37790584564208984 2.49404788017272949
-0.103062659502029419 4.17970514297485352 0.777377724647521973
-1.33095502853393555 7.09817028045654297 2.30512547492980957
-1.64988434314727783 4.06530427932739258 -0.788159728050231934
2.16086125373840332 3.9366455078125 -0.818377196788787842
-0.26564103364944458 2.15377616882324219 -0.449186772108078003
0.946379244327545166 7.36689949035644531 2.18058085441589355
-0.0936895459890365601 3.2002406120300293 -0.689644098281860352
-2.71807956695556641 2.86496996879577637 -0.452551573514938354
1.43279659748077393 4.15234136581420898 -0.863702297210693359
2.0178370475769043 3.91889691352844238 -0.394229650497436523
-1.32360744476318359 4.1846003532409668 0.492217898368835449
1.01163125038146973 4.02326393127441406 -0.904116690158843994
-0.205036729574203491 3.22106289863586426 -0.587580442428588867
1.9954150915145874 6.40999221801757812 2.36693429946899414
-0.202982619404792786 3.21961712837219238 -0.604490458965301514
-0.272023886442184448 3.23985481262207031 -0.462722152471542358
1.15367114543914795 7.25664234161376953 2.35128045082092285
-2.66656827926635742 3.0118567943572998 -0.728144466876983643
2.50577616691589355 3.19723749160766602 -0.0994482040405273438
-1.60683906078338623 4.04581069946289062 -0.759492397308349609
1.93917727470397949 3.96804261207580566 -0.866986930370330811
-0.0517862141132354736 7.66987991333007812 2.29578852653503418
-0.787175893783569336 6.9058070182800293 2.45131754875183105
-3.20821309089660645 3.75939631462097168 -0.326557159423828125
-0.899409949779510498 8.05967617034912109 2.37572169303894043
1.27856457233428955 4.01407480239868164 1.03556334972381592
-1.71559667587280273 7.61120176315307617 2.35365700721740723
-0.215697571635246277 2.17536067962646484 -0.667498290538787842
-1.73306381702423096 4.01778411865234375 -0.791232407093048096
-0.0815265700221061707 6.91395950317382812 2.40611076354980469
-1.67978906631469727 4.0068058967590332 -0.798970222473144531
-0.246166229248046875 3.24069309234619141 -0.568597137928009033
-0.562403500080108643 3.32685327529907227 -0.640838623046875
-0.258287429809570312 3.24154162406921387 -0.516777098178863525
0.362506628036499023 7.22265481948852539 2.24545669555664062
2.19029879570007324 6.03534603118896484 2.25653553009033203
-1.35521209239959717 3.91454172134399414 -0.741280794143676758
0.420169651508331299 6.38901042938232422 2.46400165557861328
-1.02663648128509521 3.75774288177490234 -0.479286700487136841
2.59056425094604492 7.40997982025146484 2.23084497451782227
-0.222675621509552002 3.23478126525878906 -0.50240093469619751
-2.59229063987731934 4.03509426116943359 0.970349252223968506
1.00461339950561523 6.77010059356689453 2.3295743465423584
-0.236699655652046204 3.24356627464294434 -0.567338705062866211
1.21341264247894287 2.49223923683166504 -0.841999471187591553
-0.2571677565574646 3.23728752136230469 -0.514767467975616455
2.32442331314086914 4.17864036560058594 0.780551314353942871
-0.256567299365997314 3.24522686004638672 -0.53147357702255249
-1.76505374908447266 6.73714733123779297 2.39479327201843262
-0.256419599056243896 3.23955440521240234 -0.448033541440963745
1.07654166221618652 5.73840999603271484 2.37300372123718262
1.94149112701416016 4.01320028305053711 -0.837211072444915771
-0.239456504583358765 3.23536372184753418 -0.554510056972503662
1.86811733245849609 4.08498811721801758 -0.0791265740990638733
-0.237136855721473694 3.22715377807617188 -0.570036590099334717
-0.245616436004638672 3.24868941307067871 -0.498665153980255127
1.16048526763916016 4.12793397903442383 -0.607199370861053467
1.19510555267333984 4.12431001663208008 -0.813797295093536377
-0.250526279211044312 3.23593950271606445 -0.430675625801086426
-1.06097841262817383 4.14874649047851562 0.364164203405380249
-0.257624775171279907 3.23815798759460449 -0.509779870510101318
1.15404236316680908 4.03866481781005859 -0.892494559288024902
0.31656193733215332 4.12436103820800781 -0.935395359992980957
-0.261216431856155396 3.23675036430358887 -0.516916751861572266
2.03492832183837891 3.99312734603881836 -0.821907699108123779
2.65382957458496094 7.49200057983398438 1.97115302085876465
-0.271538227796554565 3.25675082206726074 -0.391789704561233521
-2.01354598999023438 3.97277522087097168 -0.655851960182189941
1.98695778846740723 4.04498481750488281 -0.813507080078125
2.32594156265258789 6.71833086013793945 2.40201306343078613
1.01318573951721191 6.1467132568359375 2.21739339828491211
-0.118056945502758026 3.13698244094848633 -0.697069287300109863
0.206643223762512207 4.05475139617919922 1.12961673736572266
-1.66241085529327393 4.15246200561523438 0.302543908357620239
-0.762839734554290771 7.28175115585327148 2.36913895606994629
1.59476447105407715 6.70457315444946289 2.41171479225158691
0.962298154830932617 3.18222999572753906 -0.580834865570068359
1.14512121677398682 4.03265666961669922 -0.859387516975402832
-0.21750524640083313 3.19732475280761719 -0.621389269828796387
-0.575178623199462891 6.63701820373535156 2.45276021957397461
2.9346163272857666 6.5323796272277832 2.31286525726318359
-0.262827068567276001 3.22528600692749023 -0.512271344661712646
-0.258313268423080444 3.2378544807434082 -0.508540868759155273
2.96690034866333008 7.49141836166381836 2.25145149230957031
-0.343598455190658569 4.02401018142700195 1.18452107906341553
1.09666919708251953 4.04404163360595703 -0.907943248748779297
1.01515865325927734 4.02208232879638672 -0.902002096176147461
0.104947924613952637 6.65857791900634766 2.42937278747558594
-0.144810795783996582 1.62230515480041504 -0.612766504287719727
-1.59298765659332275 4.05233669281005859 -0.747121632099151611
0.194184258580207825 7.28905534744262695 2.37532949447631836
-0.856740415096282959 3.59998297691345215 -0.684704363346099854
0.75155794620513916 7.05274200439453125 2.02299952507019043
2.5744931697845459 7.15600156784057617 2.04802370071411133
1.85035204887390137 4.00944042205810547 -0.846902310848236084
1.26808404922485352 7.10612201690673828 2.30637478828430176
-3.86209607124328613 2.54852056503295898 -0.42177426815032959
-1.16639506816864014 4.11326932907104492 1.04603612422943115
-1.50833940505981445 4.16163825988769531 0.967077195644378662
-1.67185330390930176 4.06952619552612305 -0.78613734245300293
1.79392695426940918 4.06133365631103516 0.901397824287414551
1.15540778636932373 3.92473292350769043 0.389834851026535034
0.183373376727104187 3.96225643157958984 -0.879907965660095215
-2.20500802993774414 3.86545300483703613 -0.744812309741973877
-0.211973235011100769 3.22131061553955078 -0.595180988311767578
-2.60262489318847656 3.89914298057556152 0.202508091926574707
1.94102108478546143 4.02339744567871094 -0.836885213851928711
1.7429649829864502 3.58923745155334473 -0.0536337196826934814
-1.67289531230926514 4.07375288009643555 -0.796736240386962891
-0.505093038082122803 3.34900689125061035 -0.598636746406555176
-2.09533262252807617 6.98660182952880859 2.38752436637878418
-1.67683815956115723 4.05126714706420898 -0.760605692863464355
1.18916773796081543 4.06438922882080078 -0.436722159385681152
2.21834874153137207 4.07213306427001953 -0.761177301406860352
-2.0304114818572998 4.13601016998291016 0.526184141635894775
2.2652897834777832 3.95320582389831543 -0.494284451007843018
-2.44488334655761719 3.96291494369506836 -0.480370014905929565
-0.252770453691482544 3.24040794372558594 -0.538507342338562012
-0.235107794404029846 3.23091220855712891 -0.547412872314453125
1.89813888072967529 4.03982830047607422 -0.850421428680419922
1.02842450141906738 4.03349685668945312 -0.896530270576477051
-0.0460520610213279724 7.91748666763305664 2.24852705001831055
3.08440923690795898 3.94652628898620605 0.0606508553028106689
1.92702901363372803 4.02350521087646484 -0.846605181694030762
-0.235232830047607422 3.23978471755981445 -0.534224033355712891
-0.255871802568435669 3.24051880836486816 -0.506528317928314209
-0.241119921207427979 3.23906111717224121 -0.560102641582489014
0.499137550592422485 4.15893030166625977 0.695648312568664551
-0.224362492561340332 3.23094058036804199 -0.50546717643737793
1.95368266105651855 7.90009164810180664 2.09472894668579102
-1.50134873390197754 4.0234370231628418 -0.779140293598175049
-0.244095101952552795 3.23798966407775879 -0.455831706523895264
0.710765659809112549 7.01984834671020508 2.28790736198425293
-0.237376466393470764 3.23042941093444824 -0.534721553325653076
-0.220780849456787109 3.24752688407897949 -0.597754299640655518
-0.236417427659034729 3.24454712867736816 -0.541383504867553711
1.84450423717498779 3.86272478103637695 -0.888891756534576416
-0.0691634416580200195 5.95135974884033203 2.20866274833679199
1.02728056907653809 4.04692888259887695 -0.782852828502655029
-1.42529392242431641 6.6240997314453125 2.36104869842529297
2.02486705780029297 7.41300868988037109 2.20789980888366699
0.121150150895118713 2.98075556755065918 -0.771061182022094727
-0.253068327903747559 3.23601198196411133 -0.520155251026153564
-0.822072267532348633 3.35817980766296387 -0.468337863683700562
-0.251890480518341064 3.24910640716552734 -0.548079192638397217
2.16720771789550781 4.02068519592285156 -0.765767216682434082
0.463538467884063721 6.00444507598876953 2.43585443496704102
0.0924807339906692505 3.27872514724731445 -0.252269923686981201
-0.394458889961242676 6.71347141265869141 2.4851078987121582
1.92699003219604492 4.01150655746459961 -0.0356901399791240692
2.34822678565979004 3.94498729705810547 0.393607884645462036
-0.0442703366279602051 6.87598514556884766 2.38478517532348633
-0.361071765422821045 7.04972314834594727 2.4325556755065918
-0.254438847303390503 3.24860239028930664 -0.548424363136291504
-0.247215256094932556 3.24201440811157227 -0.537108540534973145
-1.16753244400024414 3.61518573760986328 -0.751918673515319824
-0.6097298264503479 6.68126106262207031 1.9861454963684082
-0.245673894882202148 3.23821306228637695 -0.580732226371765137
1.26591777801513672 6.94689702987670898 2.22849154472351074
2.6903531551361084 4.12386560440063477 0.342469096183776855
-0.711731672286987305 6.84240484237670898 2.4591820240020752
2.00318789482116699 4.01111555099487305 -0.837422847747802734
-0.251905143260955811 3.23487710952758789 -0.432017326354980469
0.244101285934448242 3.56105947494506836 -0.821864545345306396
-0.856775164604187012 3.51601648330688477 -0.498515486717224121
-1.9961313009262085 3.97921562194824219 -0.613211572170257568
-0.233075663447380066 3.2511591911315918 -0.587565004825592041
-1.65053308010101318 7.71213769912719727 2.38589644432067871
1.9430692195892334 3.9916684627532959 -0.851479709148406982
-1.66929972171783447 4.05814361572265625 -0.804606080055236816
1.20250117778778076 4.11916923522949219 -0.553715050220489502
-0.187560439109802246 3.23895454406738281 -0.630216538906097412
-0.0714714899659156799 2.73967742919921875 -0.372601479291915894
-0.772927165031433105 3.45289897918701172 -0.666941583156585693
-0.24319121241569519 3.23182058334350586 -0.537403583526611328
-1.68635988235473633 4.04543495178222656 -0.758139133453369141
1.87751352787017822 4.03266334533691406 -0.839751780033111572
-0.230046495795249939 3.20489859580993652 -0.474743545055389404
0.114299558103084564 6.21104526519775391 2.42170834541320801
-0.234223306179046631 3.23750090599060059 -0.547458648681640625
-0.252053141593933105 3.22099757194519043 -0.481322050094604492
-0.244041606783866882 3.25859880447387695 -0.387034296989440918
-1.65058279037475586 4.06848621368408203 -0.798174619674682617
-2.27913641929626465 3.51936650276184082 -0.664007663726806641
-0.240215986967086792 3.24546074867248535 -0.56471484899520874
-1.65389335155487061 4.16177797317504883 -0.104906648397445679
-0.259162425994873047 3.2328648567199707 -0.499361544847488403
-0.265781939029693604 3.22249531745910645 -0.431489735841751099
2.01652050018310547 4.02623796463012695 -0.815696775913238525
2.98239564895629883 7.39903879165649414 1.99740588665008545
-0.237276703119277954 3.24583315849304199 -0.572465837001800537
1.97163486480712891 4.02095746994018555 -0.838666975498199463
1.39040005207061768 2.15409755706787109 -0.778457462787628174
1.74696481227874756 6.40287637710571289 2.42742562294006348
0.83988875150680542 5.8086543083190918 2.38536763191223145
1.29829502105712891 4.09368753433227539 -0.87904655933380127
-0.228073179721832275 3.22603368759155273 -0.544008553028106689
0.236895322799682617 2.11289215087890625 -0.516980171203613281
-0.222286790609359741 3.24359416961669922 -0.594273269176483154
1.14890313148498535 4.05374288558959961 -0.462949961423873901
0.869486331939697266 7.58461713790893555 2.26458930969238281
-0.235241875052452087 3.23099994659423828 -0.56764376163482666
-0.227918282151222229 3.24417328834533691 -0.596994876861572266
-0.516686618328094482 7.66739177703857422 2.31320905685424805
-0.0346752181649208069 4.02584505081176758 1.12468791007995605
-0.249876707792282104 3.25074243545532227 -0.550135791301727295
2.61300420761108398 6.58808708190917969 2.21461963653564453
-1.71690917015075684 4.02761125564575195 -0.781979918479919434
-0.252770900726318359 3.24243283271789551 -0.449016958475112915
-0.251882880926132202 3.22442913055419922 -0.555298328399658203
3.19909286499023438 8.30200958251953125 2.07566261291503906
