ply
format ascii 1.0
element vertex 29
comment vertices
property float x
property float y
property float z
end_header
1.06450545787811279 3.96383929252624512 -0.466447770595550537
1.26208102703094482 3.97887134552001953 -0.543263852596282959
1.02637255191802979 4.02261161804199219 -0.312478452920913696
1.17187237739562988 4.0836644172668457 -0.507204294204711914
1.13627898693084717 4.09932804107666016 -0.489996552467346191
1.16773319244384766 4.07172870635986328 -0.477954566478729248
1.04592561721801758 4.07581615447998047 -0.403314024209976196
1.11215066909790039 4.05903244018554688 -0.446965545415878296
1.16696763038635254 4.13941812515258789 -0.515439808368682861
0.976139843463897705 4.05109071731567383 -0.545554816722869873
1.16714608669281006 4.10765886306762695 -0.477290838956832886
1.13963830471038818 4.05315876007080078 -0.474816739559173584
1.0768357515335083 4.07755184173583984 -0.435942500829696655
1.11505794525146484 4.0564122200012207 -0.448032677173614502
1.16969537734985352 4.04676198959350586 -0.492514163255691528
1.08651256561279297 4.09696769714355469 -0.414918988943099976
1.07347702980041504 4.06127405166625977 -0.352038949728012085
1.21154618263244629 4.1257624626159668 -0.545459151268005371
1.19146311283111572 4.06374311447143555 -0.544919371604919434
1.1731269359588623 4.10290813446044922 -0.497762799263000488
1.0995107889175415 4.06835365295410156 -0.389531612396240234
1.125907301902771 4.07536792755126953 -0.474312335252761841
1.23209929466247559 4.09509992599487305 -0.534622371196746826
1.05389547348022461 4.11359167098999023 -0.396671980619430542
1.10141646862030029 4.12436056137084961 -0.470879435539245605
1.09478867053985596 4.05840635299682617 -0.42024838924407959
0.962376952171325684 3.92201852798461914 -0.499555140733718872
1.17041993141174316 4.14680814743041992 -0.486530870199203491
1.08302712440490723 4.02302932739257812 -0.428916960954666138
