ply
format ascii 1.0
element vertex 92
comment vertices
property float x
property float y
property float z
end_header
0.00558894872665405273 2.52880120277404785 -0.531132221221923828
0.0763238072395324707 2.48882961273193359 -0.479179024696350098
0.072277851402759552 2.4931488037109375 -0.429164379835128784
0.0729052349925041199 2.47338628768920898 -0.391824543476104736
0.0992760062217712402 2.47300338745117188 -0.371559232473373413
0.0800185650587081909 2.48245716094970703 -0.416498243808746338
0.0773138776421546936 2.48552489280700684 -0.434451699256896973
0.0791955366730690002 2.47649765014648438 -0.405560106039047241
0.152627438306808472 2.44769811630249023 -0.475142061710357666
0.0796876251697540283 2.48969841003417969 -0.460556745529174805
1.55449831485748291 2.29228043556213379 -0.600167453289031982
0.0913638696074485779 2.50491499900817871 -0.482826977968215942
0.0812795907258987427 2.48645853996276855 -0.43852531909942627
0.0586024895310401917 2.4727330207824707 -0.361802816390991211
0.0744888633489608765 2.49115610122680664 -0.433987230062484741
0.0596933029592037201 2.48993349075317383 -0.399553775787353516
0.0779261738061904907 2.47330451011657715 -0.407424181699752808
0.0670916736125946045 2.49243402481079102 -0.42200133204460144
1.57303917407989502 2.26053810119628906 -0.622114896774291992
0.0702320709824562073 2.49175143241882324 -0.398676753044128418
0.0778725817799568176 2.4838099479675293 -0.436867207288742065
0.00858491659164428711 2.56591629981994629 -0.529594659805297852
0.0272362977266311646 2.51263284683227539 -0.404536187648773193
0.0753924176096916199 2.49274754524230957 -0.414773374795913696
1.56440699100494385 2.27699112892150879 -0.636412382125854492
0.071753479540348053 2.48833131790161133 -0.440790295600891113
0.0674611032009124756 2.47380709648132324 -0.397100150585174561
0.0393802225589752197 2.48034930229187012 -0.480623930692672729
1.58026266098022461 2.24313759803771973 -0.664299130439758301
0.0820162445306777954 2.50850582122802734 -0.428632378578186035
0.0769034475088119507 2.48297357559204102 -0.417646467685699463
0.0711818486452102661 2.4878389835357666 -0.416543781757354736
0.0710688754916191101 2.48991847038269043 -0.417643487453460693
0.0708388984203338623 2.49527502059936523 -0.436374068260192871
0.0646341517567634583 2.49574899673461914 -0.424151450395584106
0.0904679149389266968 2.46452736854553223 -0.368752658367156982
0.0795015245676040649 2.46080255508422852 -0.381952941417694092
0.0825869813561439514 2.4732511043548584 -0.388498067855834961
0.0712601840496063232 2.48531317710876465 -0.404943883419036865
0.0865038409829139709 2.48218512535095215 -0.43528178334236145
0.255672454833984375 2.39251255989074707 -0.421778112649917603
0.0781178176403045654 2.4872586727142334 -0.425794214010238647
0.0782075896859169006 2.49697136878967285 -0.4481925368309021
0.0835677981376647949 2.48090815544128418 -0.436339795589447021
0.0628965198993682861 2.47263717651367188 -0.352377474308013916
0.0832420811057090759 2.4969933032989502 -0.470714598894119263
1.55935859680175781 2.26444911956787109 -0.648038506507873535
0.0563436597585678101 2.47606110572814941 -0.420831918716430664
0.0752771049737930298 2.49377155303955078 -0.435275554656982422
0.0785735622048377991 2.49268460273742676 -0.460628807544708252
0.103892184793949127 2.48374128341674805 -0.456104099750518799
0.0763472467660903931 2.50356221199035645 -0.491783231496810913
0.0745332315564155579 2.4893803596496582 -0.442510306835174561
0.0722359046339988708 2.48893570899963379 -0.410371005535125732
0.0874323099851608276 2.48205351829528809 -0.452883720397949219
0.0731989741325378418 2.48576903343200684 -0.415276944637298584
-0.249908685684204102 3.95573592185974121 -0.528796911239624023
0.0717939436435699463 2.47897672653198242 -0.419951200485229492
0.0979929566383361816 2.47123503684997559 -0.390608251094818115
0.0613261386752128601 2.478363037109375 -0.393767714500427246
0.0769457072019577026 2.48795056343078613 -0.444704592227935791
0.0547602921724319458 2.47565436363220215 -0.417107105255126953
1.58453190326690674 2.29074835777282715 -0.615778803825378418
1.55143392086029053 2.25926399230957031 -0.662672638893127441
0.0720017403364181519 2.48442387580871582 -0.41362801194190979
1.57701241970062256 2.20734477043151855 -0.7014656662940979
0.0668837130069732666 2.48630785942077637 -0.413649082183837891
1.55252552032470703 2.27015924453735352 -0.647760987281799316
0.0817341580986976624 2.49218559265136719 -0.451600044965744019
1.5952073335647583 2.26051735877990723 -0.614844441413879395
0.0840108990669250488 2.46400737762451172 -0.39471784234046936
0.0694159418344497681 2.49270939826965332 -0.427606880664825439
0.0784332677721977234 2.48539209365844727 -0.422262668609619141
0.0753053575754165649 2.48468947410583496 -0.433673650026321411
1.53519153594970703 2.27073860168457031 -0.629303693771362305
0.0744022578001022339 2.54977226257324219 -0.383955061435699463
0.070690542459487915 2.47776317596435547 -0.412857472896575928
1.59438717365264893 2.25807023048400879 -0.644130408763885498
0.0696309506893157959 2.4942626953125 -0.420569807291030884
1.54674303531646729 2.28183221817016602 -0.623543083667755127
0.032031036913394928 2.50463223457336426 -0.294222354888916016
0.0866901129484176636 2.49355125427246094 -0.461022496223449707
0.0720625892281532288 2.4625093936920166 -0.402830630540847778
0.0986190512776374817 2.48655796051025391 -0.459869295358657837
0.0707624033093452454 2.48928928375244141 -0.41682472825050354
0.0757170990109443665 2.49321460723876953 -0.433742672204971313
0.0609764233231544495 2.48744821548461914 -0.413169592618942261
0.0771305784583091736 2.48631668090820312 -0.445907443761825562
0.0863508731126785278 2.46728944778442383 -0.385891139507293701
-0.153908208012580872 3.83301615715026855 -0.42423364520072937
0.0700540691614151001 2.48219728469848633 -0.425147861242294312
0.0639613643288612366 2.49376153945922852 -0.42097008228302002
