ply
format ascii 1.0
element vertex 210
comment vertices
property float x
property float y
property float z
end_header
-0.492116838693618774 2.4480435848236084 -0.561580240726470947
3.74644923210144043 6.54685068130493164 1.47277653217315674
-3.97832322120666504 6.40673255920410156 1.26626849174499512
-0.582998573780059814 6.91530466079711914 2.2792515754699707
1.77705144882202148 3.02079582214355469 0.880961179733276367
-1.58812808990478516 3.60222339630126953 0.836092352867126465
1.41739487648010254 2.9972536563873291 -0.868819236755371094
2.15285539627075195 5.45846271514892578 -0.299631685018539429
2.08425116539001465 7.0889582633972168 0.274569660425186157
-0.476197510957717896 2.44598627090454102 -0.577366471290588379
2.17942976951599121 6.60667610168457031 2.29745626449584961
-1.84389054775238037 3.60378050804138184 -1.0068279504776001
0.311911284923553467 3.28830695152282715 1.10034120082855225
-0.50731813907623291 2.45452880859375 -0.563178300857543945
0.588930904865264893 2.72754359245300293 -0.732293844223022461
-2.73457646369934082 2.08581709861755371 -0.847470760345458984
0.347929894924163818 6.95019674301147461 2.29678583145141602
0.377025097608566284 1.73045337200164795 -0.502812027931213379
-0.498874127864837646 2.45666813850402832 -0.563695013523101807
1.2768629789352417 2.97815155982971191 -0.875775694847106934
1.92001152038574219 3.04986786842346191 -0.83346104621887207
-0.622632026672363281 2.50544929504394531 -0.572774112224578857
-0.532691240310668945 2.48105907440185547 -0.568559825420379639
1.79663050174713135 1.43219542503356934 -0.593705117702484131
-0.492876380681991577 2.46105265617370605 -0.554861366748809814
1.42924809455871582 2.96688532829284668 -0.858646035194396973
-1.15501523017883301 7.09399652481079102 2.3468928337097168
1.28021037578582764 2.96602082252502441 -0.89203190803527832
-0.746894001960754395 3.50119447708129883 0.933840692043304443
2.78987979888916016 7.26573419570922852 0.652797400951385498
1.15013277530670166 2.59820246696472168 -0.483497798442840576
-2.17660260200500488 3.81908535957336426 -0.864083290100097656
-0.481704115867614746 2.43576860427856445 -0.469647347927093506
-0.511932373046875 2.46012187004089355 -0.565384745597839355
0.308101773262023926 2.70906543731689453 -0.650715947151184082
1.18445897102355957 3.11098766326904297 1.01290833950042725
-2.23317265510559082 3.41107726097106934 -0.279369235038757324
2.91768527030944824 5.37170124053955078 -0.110518373548984528
2.31882119178771973 1.4688258171081543 -0.526017427444458008
-2.55187726020812988 2.77488541603088379 -0.521013259887695312
-0.51512300968170166 2.4479985237121582 -0.581778049468994141
1.54416811466217041 6.83011484146118164 2.25382161140441895
-0.615911483764648438 2.48595929145812988 -0.548030495643615723
-0.521448850631713867 2.46737456321716309 -0.578119933605194092
0.667649030685424805 2.34807634353637695 0.194428533315658569
-0.496385931968688965 2.43053841590881348 -0.57873767614364624
-0.494523793458938599 2.46563839912414551 -0.565173327922821045
-1.67535459995269775 3.35123753547668457 -0.77497255802154541
0.822353243827819824 3.23143196105957031 0.598264813423156738
-0.436770409345626831 2.49291872978210449 -0.644313216209411621
-0.513477504253387451 2.47126126289367676 -0.585796117782592773
-0.547716438770294189 2.47998332977294922 -0.548612773418426514
3.047027587890625 5.24410676956176758 -0.281557649374008179
-1.80656993389129639 2.698638916015625 -0.64866185188293457
-0.485394477844238281 2.45588254928588867 -0.556723952293395996
-1.92898571491241455 3.26098155975341797 0.100692629814147949
-0.533632755279541016 2.4722135066986084 -0.594184160232543945
0.0377622842788696289 6.95253372192382812 2.35843682289123535
-0.89197927713394165 -0.503718852996826172 -0.453925132751464844
-0.487478554248809814 2.44804286956787109 -0.572413027286529541
-0.491767048835754395 2.43491077423095703 -0.584282517433166504
-0.509271502494812012 2.45025825500488281 -0.56572800874710083
1.31101584434509277 2.98446846008300781 -0.871145308017730713
-0.5163726806640625 2.44633078575134277 -0.554307818412780762
1.47636950016021729 2.96088671684265137 -0.844295918941497803
-0.50273054838180542 2.42171740531921387 -0.540989995002746582
-0.55927199125289917 2.49103426933288574 -0.571092844009399414
1.28694939613342285 2.93736863136291504 -0.863306522369384766
-0.657983541488647461 2.49325680732727051 -0.522283196449279785
-0.533786892890930176 2.47269153594970703 -0.376085937023162842
-0.513484537601470947 2.46044445037841797 -0.563498198986053467
-2.64659500122070312 3.28119111061096191 -0.960031270980834961
2.43388628959655762 2.51700615882873535 -0.422436654567718506
-0.497629761695861816 2.45293927192687988 -0.576558411121368408
1.30901038646697998 2.95353460311889648 -0.893099129199981689
-0.49173969030380249 2.4716486930847168 -0.602084517478942871
1.7336113452911377 3.06538248062133789 0.436655133962631226
-0.628569960594177246 2.48538994789123535 -0.3707905113697052
-0.831498980522155762 3.58775758743286133 0.439432799816131592
-0.538144230842590332 0.343424320220947266 -0.491230130195617676
-1.31585013866424561 -0.305618762969970703 -0.86797487735748291
-0.586707949638366699 3.39664292335510254 0.411600172519683838
1.80156469345092773 3.07393431663513184 0.0764748454093933105
1.28416883945465088 2.96400070190429688 -0.886718153953552246
2.33093523979187012 2.98206019401550293 0.111295849084854126
-0.504297316074371338 2.44605016708374023 -0.578913092613220215
2.51623678207397461 7.35718107223510742 0.4884452223777771
-0.519921660423278809 2.46060395240783691 -0.581863164901733398
1.34746766090393066 2.98427963256835938 -0.862102627754211426
1.3098447322845459 2.98832488059997559 -0.875127553939819336
-0.501817286014556885 2.43325948715209961 -0.5852242112159729
-0.561383664608001709 2.4834139347076416 -0.550736069679260254
-0.499707043170928955 2.45145153999328613 -0.579699993133544922
-2.41433072090148926 3.40854430198669434 -0.705392956733703613
-4.82137680053710938 1.12100625038146973 -0.789590656757354736
-0.509087860584259033 2.44403719902038574 -0.536701202392578125
-0.555611670017242432 2.46423244476318359 -0.475663721561431885
-1.60579192638397217 2.6154472827911377 -0.676606893539428711
-0.513867855072021484 2.4618687629699707 -0.562967121601104736
1.36876845359802246 2.14945530891418457 -0.763006091117858887
-0.483252525329589844 2.41520500183105469 -0.542122244834899902
2.48682570457458496 0.93921661376953125 -0.602737724781036377
-0.51425778865814209 2.47176122665405273 -0.561277031898498535
-0.515790104866027832 2.46466636657714844 -0.537290573120117188
2.12777900695800781 3.30429363250732422 -0.607683837413787842
-0.490561395883560181 2.4514622688293457 -0.580509185791015625
1.28487884998321533 2.97039675712585449 -0.875456392765045166
-0.502357363700866699 2.43169856071472168 -0.567747831344604492
-0.51595008373260498 2.46922969818115234 -0.587946951389312744
-0.671209394931793213 3.49762678146362305 0.932562410831451416
-1.88786077499389648 3.04077720642089844 0.124328017234802246
-0.479501992464065552 2.45442748069763184 -0.59768068790435791
2.71669244766235352 5.43485832214355469 -0.239638492465019226
0.962783753871917725 3.11252999305725098 0.76928257942199707
-0.514856338500976562 2.47476983070373535 -0.571278572082519531
0.0381668433547019958 3.21228909492492676 0.809673964977264404
-0.521916866302490234 2.45650935173034668 -0.551949203014373779
1.75361239910125732 3.08905172348022461 -0.503457248210906982
0.112752377986907959 2.87429428100585938 0.183646023273468018
-1.23056602478027344 2.77152681350708008 -0.666440248489379883
1.90633857250213623 3.14674711227416992 -0.428610801696777344
-3.15549421310424805 2.81189632415771484 -0.577998042106628418
-0.486256539821624756 2.42380046844482422 -0.581771194934844971
0.456377714872360229 3.2218327522277832 0.837078392505645752
-1.59306120872497559 2.96372580528259277 -0.792510092258453369
0.573065340518951416 2.7159271240234375 -0.59122854471206665
-0.492178767919540405 2.45453381538391113 -0.592448532581329346
-1.29660701751708984 3.60088872909545898 0.96378016471862793
-0.533622980117797852 2.47533297538757324 -0.575291335582733154
0.0613608583807945251 2.74445486068725586 -0.811918497085571289
-0.534009814262390137 2.46823024749755859 -0.548169910907745361
1.28560340404510498 2.9424126148223877 -0.879207909107208252
1.86864900588989258 -0.225123167037963867 -0.824282348155975342
-1.47983300685882568 2.71704506874084473 -0.669565021991729736
-0.502864658832550049 2.45289492607116699 -0.581802070140838623
-0.549260556697845459 2.47327470779418945 -0.347154796123504639
1.41669321060180664 2.97972726821899414 -0.872525393962860107
-0.502960383892059326 2.43373584747314453 -0.579919815063476562
-0.515062928199768066 2.46214056015014648 -0.567259728908538818
-0.500159025192260742 2.45678353309631348 -0.577469050884246826
1.29453635215759277 2.98735547065734863 -0.871114730834960938
1.86813247203826904 3.00481510162353516 -0.384301245212554932
0.516077101230621338 2.69360113143920898 -0.554459333419799805
-0.607731103897094727 6.96481609344482422 2.36138296127319336
-0.528322577476501465 2.48033905029296875 -0.497390210628509521
0.0938467979431152344 -1.1336822509765625 -0.793110311031341553
1.33706212043762207 2.97721052169799805 -0.869388103485107422
1.68572700023651123 3.03617644309997559 0.918358445167541504
-0.514023303985595703 2.44553327560424805 -0.583023190498352051
-2.12002730369567871 3.00143027305603027 -0.634340405464172363
1.89752531051635742 5.58115291595458984 -0.26140141487121582
-0.554347515106201172 2.49236655235290527 -0.587048768997192383
1.8169100284576416 3.40667724609375 -0.328277766704559326
0.228528425097465515 2.64800715446472168 -0.85741734504699707
-0.509437382221221924 2.45974016189575195 -0.573540091514587402
1.2970508337020874 2.97319912910461426 -0.881873786449432373
-0.562652707099914551 2.49122095108032227 -0.591148316860198975
-0.511933386325836182 2.44644045829772949 -0.570961415767669678
1.29680252075195312 2.99265861511230469 -0.87794041633605957
2.0984196662902832 3.1002662181854248 0.143198877573013306
-0.484941840171813965 2.44959807395935059 -0.612001478672027588
-0.506294906139373779 2.43438482284545898 -0.574725985527038574
-1.89669346809387207 0.795418262481689453 -0.43122553825378418
-0.521962940692901611 2.47430682182312012 -0.540399432182312012
1.29954016208648682 2.9825284481048584 -0.864329934120178223
-0.592795014381408691 2.4861295223236084 -0.36481398344039917
0.0502539947628974915 2.79751038551330566 -0.364224135875701904
1.43506073951721191 2.95241880416870117 -0.837312877178192139
0.746841192245483398 3.02810335159301758 1.07941770553588867
-0.511808276176452637 2.45158624649047852 -0.575327634811401367
-0.50553286075592041 2.43400144577026367 -0.574368417263031006
-0.483110696077346802 2.46152448654174805 -0.583126306533813477
-0.507510542869567871 2.45606374740600586 -0.555265188217163086
0.606588959693908691 0.85749506950378418 -0.277569711208343506
-0.960900306701660156 -0.0814571380615234375 -0.756575107574462891
-0.49944499135017395 2.43118810653686523 -0.579116284847259521
-0.48882707953453064 2.45939278602600098 -0.574029147624969482
1.34151744842529297 2.98799467086791992 -0.847925186157226562
0.751245856285095215 1.08377337455749512 0.0384901762008666992
0.583448588848114014 7.07777214050292969 2.16555881500244141
-0.520232796669006348 2.4613490104675293 -0.575078070163726807
-0.495963186025619507 2.46053767204284668 -0.568334102630615234
-0.486396819353103638 2.46530604362487793 -0.587172031402587891
-0.145836889743804932 6.73677158355712891 2.24943256378173828
-0.0952848196029663086 3.11902594566345215 1.15487611293792725
-0.676810562610626221 2.4777836799621582 -0.414700865745544434
-0.485876739025115967 2.45673441886901855 -0.596020042896270752
0.137625992298126221 2.37659120559692383 -0.597464144229888916
-0.497610330581665039 2.44682574272155762 -0.585509300231933594
-0.749328255653381348 3.56924676895141602 0.663216650485992432
-0.509083151817321777 2.46290278434753418 -0.573087811470031738
1.36924493312835693 2.96197628974914551 -0.831831634044647217
2.37990427017211914 0.308488368988037109 -0.616752505302429199
-0.745583534240722656 3.55087494850158691 0.725339710712432861
-0.522491335868835449 2.46986031532287598 -0.563553571701049805
1.39820098876953125 3.08905792236328125 0.663148105144500732
-0.544648110866546631 2.47620511054992676 -0.527105093002319336
-0.763608396053314209 2.50499296188354492 -0.467613399028778076
-1.21448028087615967 2.50457048416137695 -0.635510087013244629
-0.836576461791992188 3.53526115417480469 0.847360849380493164
-0.501487791538238525 2.42654561996459961 -0.430887043476104736
1.57107102870941162 3.05358219146728516 0.92774587869644165
-0.767582297325134277 2.39596676826477051 -0.214370131492614746
0.504720985889434814 3.25485563278198242 1.06557142734527588
-0.509241819381713867 2.45781207084655762 -0.563482344150543213
-0.500260829925537109 2.45075106620788574 -0.561633944511413574
-1.7626183032989502 3.05294179916381836 -0.689179480075836182
-0.530077993869781494 2.48256564140319824 -0.578396439552307129
-2.11287593841552734 2.58415031433105469 -0.621377706527709961
2.96001434326171875 5.29652976989746094 -0.202046781778335571
