ply
format ascii 1.0
element vertex 91
comment vertices
property float x
property float y
property float z
end_header
0.270496487617492676 2.53093957901000977 -0.48418012261390686
0.273182600736618042 2.5686333179473877 -0.433512389659881592
1.45751094818115234 3.74624490737915039 -0.793096840381622314
0.25795060396194458 2.56075716018676758 -0.44069322943687439
0.282518148422241211 2.54607415199279785 -0.392379015684127808
0.273101657629013062 2.54902434349060059 -0.452528327703475952
0.2750072181224823 2.48349261283874512 -0.555582821369171143
0.279812276363372803 2.55921316146850586 -0.453769326210021973
0.20101502537727356 2.48859691619873047 -0.456683993339538574
0.323342025279998779 2.50943493843078613 -0.496070295572280884
0.194103702902793884 2.40520334243774414 -0.533603370189666748
0.266979366540908813 2.53928947448730469 -0.448862761259078979
0.268531709909439087 2.55852460861206055 -0.447472423315048218
0.271825492382049561 2.54907512664794922 -0.444746106863021851
0.277943789958953857 2.52263736724853516 -0.509437501430511475
0.281225919723510742 2.56114959716796875 -0.409475445747375488
0.266366869211196899 2.53436017036437988 -0.471364200115203857
0.257856249809265137 2.55001735687255859 -0.366874635219573975
0.274333655834197998 2.55393147468566895 -0.451653927564620972
0.224339008331298828 2.53126025199890137 -0.470720916986465454
0.321865051984786987 2.52394986152648926 -0.489846229553222656
0.265469014644622803 2.55597257614135742 -0.463529288768768311
0.258663207292556763 2.5579676628112793 -0.434802412986755371
0.261740297079086304 2.52692723274230957 -0.456061750650405884
0.275027930736541748 2.55852484703063965 -0.441162616014480591
0.269773602485656738 2.55467629432678223 -0.458819031715393066
0.278145313262939453 2.52683615684509277 -0.380327522754669189
0.281253337860107422 2.53897905349731445 -0.472121775150299072
0.273954033851623535 2.55474090576171875 -0.459579259157180786
0.276125341653823853 2.55750370025634766 -0.427176058292388916
-0.0610579326748847961 1.08592617511749268 -0.683290719985961914
0.263520181179046631 2.52343320846557617 -0.461943864822387695
0.276763260364532471 2.5450904369354248 -0.428872853517532349
0.48139655590057373 2.57470846176147461 -0.436156958341598511
-0.0235811397433280945 2.35357165336608887 -0.377327978610992432
0.449238866567611694 1.3507688045501709 -0.629455745220184326
0.271528720855712891 2.53947782516479492 -0.444373965263366699
0.272596985101699829 2.53741931915283203 -0.484899789094924927
0.236097380518913269 2.52347135543823242 -0.395973384380340576
0.257064491510391235 2.49712276458740234 -0.505564451217651367
0.159557849168777466 2.68852806091308594 -0.511937081813812256
0.282532006502151489 2.57460355758666992 -0.433149009943008423
0.270409941673278809 2.52485561370849609 -0.490526825189590454
0.271373063325881958 2.5479743480682373 -0.448968708515167236
0.220110267400741577 2.5093226432800293 -0.316105842590332031
0.27516704797744751 2.54668903350830078 -0.457214832305908203
0.270031988620758057 2.55695772171020508 -0.44823908805847168
0.276915043592453003 2.56135129928588867 -0.445697039365768433
0.2763691246509552 2.52385711669921875 -0.459303855895996094
0.262987256050109863 2.52536177635192871 -0.469542026519775391
0.267110586166381836 2.54192137718200684 -0.45383375883102417
0.270661443471908569 2.5489962100982666 -0.438212603330612183
0.263312458992004395 2.54639744758605957 -0.43942686915397644
0.26702544093132019 2.5379488468170166 -0.462045788764953613
0.270839691162109375 2.55809330940246582 -0.450707107782363892
0.271898210048675537 2.54049801826477051 -0.479183316230773926
0.271645933389663696 2.51416397094726562 -0.499819666147232056
0.224246889352798462 2.51848912239074707 -0.349517405033111572
0.262904822826385498 2.56260299682617188 -0.444045543670654297
0.566407680511474609 2.55077075958251953 -0.471672594547271729
0.366238117218017578 2.50890827178955078 -0.486247241497039795
0.258126020431518555 2.55303049087524414 -0.395366668701171875
0.266524523496627808 2.55736088752746582 -0.436882853507995605
0.395637601613998413 2.49045133590698242 -0.490425020456314087
0.265223056077957153 2.5622401237487793 -0.447976827621459961
0.238830864429473877 2.48688936233520508 -0.52004706859588623
0.277657181024551392 2.53524923324584961 -0.490662932395935059
0.0283378958702087402 2.42162442207336426 -0.444946944713592529
0.147531941533088684 2.53731656074523926 -0.307219713926315308
0.267236143350601196 2.52332353591918945 -0.476619154214859009
0.273551136255264282 2.53579545021057129 -0.452762186527252197
0.191704839468002319 2.55750846862792969 -0.482057154178619385
0.27880173921585083 2.5522913932800293 -0.466803014278411865
0.268088966608047485 2.54617762565612793 -0.449493438005447388
0.275216400623321533 2.5517432689666748 -0.467048764228820801
0.272456645965576172 2.54478764533996582 -0.468867868185043335
0.263265103101730347 2.54443645477294922 -0.390905559062957764
0.27582859992980957 2.56828474998474121 -0.420956999063491821
0.278374969959259033 2.53916788101196289 -0.47134891152381897
0.227639928460121155 2.53667044639587402 -0.384519338607788086
0.277585387229919434 2.52166891098022461 -0.470101267099380493
0.292010098695755005 2.53360080718994141 -0.396610051393508911
0.263960450887680054 2.55575275421142578 -0.446375668048858643
0.261004418134689331 2.54529285430908203 -0.439838230609893799
0.216551721096038818 2.51121807098388672 -0.341173708438873291
0.293613284826278687 2.57490968704223633 -0.414585918188095093
0.285870730876922607 2.55629158020019531 -0.473166078329086304
0.271648705005645752 2.54911470413208008 -0.43672412633895874
0.290876686573028564 2.51939034461975098 -0.414620280265808105
0.267529070377349854 2.54640698432922363 -0.457033723592758179
0.27115178108215332 2.56099700927734375 -0.431616216897964478
