ply
format ascii 1.0
element vertex 91
comment vertices
property float x
property float y
property float z
end_header
0.830927252769470215 3.40069937705993652 -0.583640396595001221
1.0586700439453125 3.26588273048400879 -0.335180401802062988
0.84563744068145752 3.46554780006408691 -0.36854138970375061
0.880283355712890625 3.41979360580444336 -0.542932689189910889
0.969451427459716797 3.40044951438903809 -0.585193395614624023
2.03789687156677246 4.82831001281738281 -0.780514240264892578
0.936726272106170654 3.41987013816833496 -0.592344880104064941
0.851795375347137451 3.43417954444885254 -0.398701757192611694
0.846899569034576416 3.42484521865844727 -0.389997363090515137
0.84247511625289917 3.44713020324707031 -0.42237505316734314
0.880723237991333008 3.41190147399902344 -0.519254088401794434
1.15651893615722656 3.64678168296813965 -0.624381899833679199
0.842364311218261719 3.43805527687072754 -0.40866696834564209
-0.887573361396789551 3.76091933250427246 -0.633431613445281982
0.824856877326965332 3.43454790115356445 -0.51778566837310791
0.894995331764221191 3.43090605735778809 -0.512154579162597656
-0.889555931091308594 3.74349761009216309 -0.584079563617706299
0.796756148338317871 3.33746433258056641 -0.579905569553375244
0.888667702674865723 3.42507100105285645 -0.44144141674041748
0.86937558650970459 3.4269711971282959 -0.481906980276107788
0.885474801063537598 3.44735980033874512 -0.514325499534606934
0.836526930332183838 3.4269874095916748 -0.42185819149017334
0.847998142242431641 3.4384315013885498 -0.434872627258300781
0.867872834205627441 3.43220424652099609 -0.46576923131942749
0.858930706977844238 3.44566917419433594 -0.458539694547653198
-0.802401363849639893 3.69046545028686523 -0.616980910301208496
0.869881212711334229 3.43141055107116699 -0.471061736345291138
-0.806793570518493652 3.71193647384643555 -0.67450481653213501
0.834240913391113281 3.46568489074707031 -0.345890313386917114
0.895220816135406494 3.42798328399658203 -0.552736461162567139
0.897519946098327637 3.44200706481933594 -0.514232516288757324
0.868861556053161621 3.44028425216674805 -0.453299045562744141
1.95299446582794189 4.62103033065795898 -0.844453096389770508
0.895938217639923096 3.40182948112487793 -0.561461448669433594
0.878640592098236084 3.43513321876525879 -0.433302491903305054
1.79300141334533691 4.66344976425170898 -0.788972318172454834
-0.799437046051025391 3.80282735824584961 -0.681325376033782959
0.848141074180603027 3.45005130767822266 -0.416490674018859863
0.846181273460388184 3.4187004566192627 -0.347318470478057861
-1.03149950504302979 3.61944341659545898 -0.61854320764541626
0.882990896701812744 3.44380736351013184 -0.447353512048721313
0.858129262924194336 3.364410400390625 -0.572824418544769287
0.875007033348083496 3.43448495864868164 -0.407123059034347534
-1.0892406702041626 3.67180252075195312 -0.673137247562408447
0.955952763557434082 3.40218877792358398 -0.537944495677947998
0.86674267053604126 3.4211268424987793 -0.478532522916793823
0.870200216770172119 3.45369577407836914 -0.439850658178329468
0.864916741847991943 3.42087745666503906 -0.467970430850982666
0.891213357448577881 3.40773320198059082 -0.435097754001617432
0.871813952922821045 3.41833233833312988 -0.491667807102203369
0.899000227451324463 3.3683319091796875 -0.587805807590484619
0.870198428630828857 3.43367099761962891 -0.455451875925064087
0.891435682773590088 3.41680645942687988 -0.460877507925033569
-0.74321436882019043 3.76103448867797852 -0.633403658866882324
0.853603243827819824 3.44982504844665527 -0.426557034254074097
-1.03601646423339844 3.66669750213623047 -0.625778555870056152
0.89704662561416626 3.42347192764282227 -0.459722548723220825
0.875627756118774414 3.44392585754394531 -0.451589435338973999
0.901804089546203613 3.44236922264099121 -0.495959371328353882
0.92201387882232666 3.4238135814666748 -0.534147083759307861
0.86108553409576416 3.44806265830993652 -0.476781308650970459
0.875703155994415283 3.43092083930969238 -0.407651215791702271
0.841132581233978271 3.43066215515136719 -0.415793180465698242
0.858008384704589844 3.38747620582580566 -0.599071025848388672
0.847356796264648438 3.4486234188079834 -0.420541256666183472
0.935702800750732422 3.47340178489685059 -0.554950058460235596
0.862643301486968994 3.4596254825592041 -0.422518908977508545
0.813004136085510254 3.39707493782043457 -0.593823134899139404
0.935798287391662598 3.3765408992767334 -0.329932749271392822
0.894340634346008301 3.42411160469055176 -0.508238613605499268
-0.850453078746795654 3.79229402542114258 -0.679607272148132324
1.70681452751159668 4.71951770782470703 -0.898236453533172607
0.838111996650695801 3.45382142066955566 -0.403542816638946533
0.849210739135742188 3.43389654159545898 -0.430828332901000977
-0.796539425849914551 3.73768901824951172 -0.644859611988067627
0.866605639457702637 3.43117475509643555 -0.467243969440460205
0.839974343776702881 3.4577641487121582 -0.416212022304534912
0.895041048526763916 3.43382453918457031 -0.515889525413513184
0.842783212661743164 3.44243717193603516 -0.430879592895507812
0.851344764232635498 3.4393165111541748 -0.428431302309036255
0.870240926742553711 3.44684243202209473 -0.494346141815185547
0.906713426113128662 3.38787007331848145 -0.571908473968505859
0.861135423183441162 3.44750547409057617 -0.444021999835968018
0.872730255126953125 3.449493408203125 -0.444095611572265625
0.86335986852645874 3.42912530899047852 -0.52173691987991333
0.848152816295623779 3.45522022247314453 -0.386605620384216309
0.874139487743377686 3.43905234336853027 -0.455743879079818726
0.84233248233795166 3.44383478164672852 -0.429954737424850464
0.821799397468566895 3.4236147403717041 -0.539858758449554443
-1.05285298824310303 3.66458010673522949 -0.632752954959869385
0.994519233703613281 3.42850589752197266 -0.480647951364517212
