ply
format ascii 1.0
element vertex 256
comment vertices
property float x
property float y
property float z
end_header
0.776656210422515869 3.37270689010620117 -0.684180915355682373
2.87614917755126953 8.02755832672119141 2.08636116981506348
-4.40931081771850586 6.32804584503173828 0.651859164237976074
3.54776811599731445 6.66340780258178711 1.9787830114364624
-0.346082031726837158 6.19869804382324219 2.18598723411560059
-1.92766809463500977 3.48953771591186523 0.87391507625579834
1.08891677856445312 3.98557567596435547 -0.369314044713973999
-1.25599813461303711 3.43203616142272949 -0.671055316925048828
-2.63725018501281738 7.02511692047119141 2.21352744102478027
-3.17394590377807617 7.98719167709350586 0.875096738338470459
1.6834709644317627 5.69961977005004883 2.1865546703338623
1.11329913139343262 3.21869063377380371 -0.288909554481506348
1.04338061809539795 7.48826980590820312 2.11633634567260742
0.821965694427490234 3.35155820846557617 -0.324370861053466797
-0.828495264053344727 7.72765254974365234 2.18697071075439453
-1.41051590442657471 2.0393836498260498 2.2854766845703125
0.156985267996788025 4.25328779220581055 0.836268424987792969
0.902450442314147949 3.38548851013183594 -0.613627076148986816
2.31872367858886719 6.88652324676513672 2.10710477828979492
2.18676590919494629 4.73906707763671875 0.807264268398284912
-1.16425812244415283 3.57537746429443359 -0.600372016429901123
-1.5531001091003418 2.22392511367797852 -0.996980488300323486
1.04073143005371094 3.32589197158813477 -0.663172423839569092
2.04667115211486816 4.89394617080688477 -0.713913321495056152
-1.09708166122436523 3.57749629020690918 -0.571524202823638916
0.779887139797210693 6.40990686416625977 2.27762579917907715
-1.17824399471282959 3.65937137603759766 0.336910635232925415
-0.00625051604583859444 7.17583274841308594 2.22834539413452148
-1.4559788703918457 7.05485105514526367 2.25899076461791992
0.996451914310455322 3.35102272033691406 -0.665986418724060059
0.75654369592666626 3.54283332824707031 -0.396966099739074707
0.931209266185760498 3.36888265609741211 -0.341615676879882812
1.92190301418304443 7.95711278915405273 2.163116455078125
0.786652684211730957 3.34466671943664551 -0.449071943759918213
1.04507720470428467 4.56209659576416016 0.854700088500976562
2.01841592788696289 4.59943151473999023 -0.313075333833694458
-2.00347590446472168 3.38066315650939941 -0.215471401810646057
-0.13820803165435791 2.97588229179382324 4.98095369338989258
1.47180235385894775 6.79718589782714844 2.19189596176147461
0.881594657897949219 5.7081751823425293 2.20008039474487305
0.910081148147583008 3.36553239822387695 -0.573684275150299072
1.21087610721588135 3.6971898078918457 -0.559361279010772705
0.293221503496170044 7.88724613189697266 2.20225667953491211
0.792689144611358643 3.48718929290771484 -0.408555537462234497
0.242812678217887878 3.53216886520385742 -0.235489398241043091
-0.995814085006713867 2.89169621467590332 -0.705607295036315918
-0.848469376564025879 3.706787109375 -0.595285117626190186
-1.26328909397125244 3.60969972610473633 -0.576325416564941406
0.718474149703979492 3.45444178581237793 -0.603272795677185059
0.053606763482093811 5.82461452484130859 2.1846616268157959
-0.750822484493255615 6.99946689605712891 2.26228475570678711
0.927331447601318359 3.40909910202026367 -0.566960036754608154
-1.46867465972900391 3.60345053672790527 0.079131782054901123
-1.54988634586334229 3.81625795364379883 -0.466618537902832031
1.72841393947601318 4.79411888122558594 0.602579832077026367
1.50688886642456055 4.35153388977050781 -0.59577101469039917
2.0060431957244873 7.35446023941040039 1.91401946544647217
1.13877296447753906 8.11626625061035156 2.15051651000976562
-1.26982271671295166 3.75931763648986816 0.914204955101013184
1.9776531457901001 4.90316486358642578 1.47001481056213379
-0.881230175495147705 3.79617047309875488 -0.43759530782699585
0.532868504524230957 6.9380955696105957 2.21085834503173828
0.673657774925231934 3.23227405548095703 -0.665237128734588623
1.01532566547393799 3.4803314208984375 -0.436686843633651733
-1.91212880611419678 7.27559661865234375 2.21694469451904297
-0.441612064838409424 4.07403182983398438 0.87258601188659668
0.843562960624694824 3.39080977439880371 -0.512634754180908203
0.921330094337463379 3.4912259578704834 -0.571623444557189941
-1.47569262981414795 3.3966529369354248 -0.808481693267822266
0.919195652008056641 3.50722455978393555 -0.416424572467803955
0.197991639375686646 6.44356393814086914 2.22934341430664062
0.783707559108734131 4.26413726806640625 0.198859691619873047
-0.308558523654937744 7.9960474967956543 2.23473644256591797
0.771565675735473633 3.43263506889343262 -0.470530658960342407
1.33928775787353516 6.10465764999389648 2.20040631294250488
-1.19855928421020508 3.57591843605041504 -0.239407092332839966
0.820408940315246582 3.38328814506530762 -0.48928380012512207
0.783261656761169434 3.3545689582824707 -0.496401876211166382
-1.23180556297302246 7.53482961654663086 2.19605731964111328
-2.79063963890075684 6.6970367431640625 2.05997800827026367
-0.452707618474960327 7.56685686111450195 2.17600703239440918
2.40853333473205566 8.06246471405029297 2.09369587898254395
-0.793739736080169678 3.58267402648925781 -0.505642056465148926
0.841812968254089355 3.40980005264282227 -0.494134634733200073
1.97232401371002197 4.63619089126586914 0.239394128322601318
-0.67588508129119873 3.54431891441345215 -0.737375497817993164
0.833711385726928711 3.38613271713256836 -0.276146471500396729
-1.21360409259796143 3.28593206405639648 -0.701637446880340576
1.54846465587615967 7.67259597778320312 2.07024383544921875
-0.614625275135040283 2.45989227294921875 0.445427298545837402
0.947521448135375977 3.4048457145690918 -0.628340601921081543
0.594773709774017334 7.52198934555053711 2.17536377906799316
1.05656218528747559 6.86541557312011719 2.19448184967041016
0.962694525718688965 3.46833038330078125 -0.569023191928863525
-1.04576230049133301 3.61809206008911133 0.318735510110855103
-0.437543183565139771 6.70375823974609375 2.28993582725524902
-1.84673213958740234 6.73378944396972656 2.27219724655151367
-1.20909595489501953 3.56433224678039551 -0.528216838836669922
0.40559309720993042 3.40785408020019531 -0.62457507848739624
0.934138476848602295 3.54042410850524902 -0.469517797231674194
-0.474390625953674316 3.29129147529602051 6.95976495742797852
1.96817576885223389 4.58014965057373047 -0.769871890544891357
-1.99679446220397949 3.46436572074890137 0.295042872428894043
1.93501043319702148 4.35475254058837891 -0.460167646408081055
-0.803373456001281738 3.71094965934753418 -0.148035824298858643
1.4058612585067749 7.24145412445068359 2.1188197135925293
2.04602503776550293 6.74530982971191406 2.17863011360168457
1.91208922863006592 4.63947868347167969 -0.52866363525390625
0.958877980709075928 3.34649014472961426 -0.636444151401519775
-0.835768818855285645 3.86900830268859863 0.86040651798248291
0.936272799968719482 3.41834449768066406 -0.412711381912231445
-1.19284427165985107 3.61634016036987305 -0.622400104999542236
1.78514766693115234 4.65943002700805664 -0.694284200668334961
1.23039889335632324 4.51804971694946289 0.255408763885498047
2.41585087776184082 7.22752094268798828 2.09355878829956055
-0.854699254035949707 7.37774133682250977 2.18990588188171387
-0.692722022533416748 3.78965210914611816 -0.693467795848846436
0.765225768089294434 3.4302971363067627 -0.439820826053619385
-1.09537506103515625 3.85850429534912109 -0.505233108997344971
0.89505314826965332 3.29778909683227539 -0.281930983066558838
-1.21226966381072998 3.70122575759887695 -0.485894322395324707
-0.94094395637512207 3.51176047325134277 -0.593969941139221191
0.916492104530334473 3.38509345054626465 -0.44946134090423584
-1.01091670989990234 6.91887044906616211 2.26988625526428223
-0.361647158861160278 3.53831243515014648 -0.670255303382873535
0.881204783916473389 3.24427270889282227 -0.649471819400787354
0.932295262813568115 3.32933187484741211 -0.408646315336227417
-1.01954483985900879 3.72819709777832031 -0.674150466918945312
1.74303841590881348 6.97780990600585938 2.11200165748596191
1.04281854629516602 3.37521886825561523 -0.597193062305450439
-1.58106410503387451 3.6153719425201416 0.565060257911682129
-1.12066864967346191 3.6781001091003418 -0.357809305191040039
1.70151257514953613 4.56248283386230469 0.0110555291175842285
0.660330653190612793 4.45277786254882812 0.905047059059143066
-1.28782737255096436 2.98723936080932617 -0.770099282264709473
0.823237299919128418 3.32690262794494629 -0.51351618766784668
-0.677858352661132812 3.77155733108520508 0.221283197402954102
-2.16949176788330078 7.0279545783996582 2.22375869750976562
1.35556936264038086 5.65737533569335938 2.19698452949523926
-0.537210226058959961 3.16190075874328613 -0.73264002799987793
0.921646595001220703 6.0192255973815918 2.17775583267211914
1.62137997150421143 4.85338497161865234 0.892646491527557373
-1.05839848518371582 3.65517950057983398 -0.367514818906784058
1.27658140659332275 3.75116205215454102 -0.595546543598175049
-0.0549865514039993286 4.00394153594970703 0.29819178581237793
0.874628841876983643 3.40001940727233887 -0.424833536148071289
0.0451736822724342346 7.7156529426574707 2.19951176643371582
0.37652626633644104 3.16817545890808105 -0.711885035037994385
1.44801974296569824 8.00116157531738281 2.1622929573059082
0.833181619644165039 3.29224133491516113 -0.494463443756103516
0.882056593894958496 3.25187897682189941 -0.452095627784729004
0.643813729286193848 5.76815414428710938 2.2030029296875
-1.56271195411682129 3.48369503021240234 0.0979419946670532227
0.863901972770690918 3.35175323486328125 -0.528724968433380127
0.950854718685150146 3.27753782272338867 -0.658330321311950684
0.839954137802124023 3.38408923149108887 -0.469801336526870728
0.449980020523071289 6.75408220291137695 2.25708341598510742
0.916550397872924805 3.31576967239379883 -0.483908355236053467
-0.667002439498901367 3.80411124229431152 -0.570469021797180176
0.74448007345199585 3.49766874313354492 -0.45787966251373291
-0.426797747611999512 7.09012269973754883 2.25096297264099121
-0.993482768535614014 3.66595935821533203 -0.59375077486038208
-0.0737998783588409424 6.12338018417358398 2.21832418441772461
1.28749299049377441 6.59791040420532227 2.23582148551940918
0.948428988456726074 3.36638355255126953 -0.477051705121994019
0.868256330490112305 3.40049982070922852 -0.468866944313049316
-0.108788102865219116 6.89123439788818359 2.28019237518310547
-1.28684496879577637 3.5319058895111084 -0.246163636445999146
0.98168790340423584 3.49916648864746094 -0.53129279613494873
1.3842242956161499 4.68442821502685547 0.795747101306915283
0.245681211352348328 7.57868242263793945 2.17061328887939453
1.00199127197265625 3.406890869140625 -0.595214247703552246
2.23615002632141113 4.82475566864013672 1.26884448528289795
0.916104495525360107 7.1674351692199707 2.15052151679992676
0.828414678573608398 3.52258086204528809 -0.527556300163269043
0.430781662464141846 6.30588912963867188 2.21705293655395508
2.44954037666320801 6.63089895248413086 2.19528627395629883
-1.27700161933898926 3.68488693237304688 -0.573835968971252441
1.77842462062835693 4.68450784683227539 0.623142600059509277
-1.09254240989685059 7.19440603256225586 2.19470071792602539
0.961394250392913818 3.35570812225341797 -0.393146812915802002
0.854388594627380371 3.50496387481689453 -0.426014989614486694
1.18689620494842529 7.84826755523681641 2.13622927665710449
0.868204236030578613 3.3161463737487793 -0.683957099914550781
1.66164398193359375 4.21344709396362305 -0.573615670204162598
2.32031512260437012 7.24290752410888672 2.13586735725402832
0.853618264198303223 3.41597843170166016 -0.416640222072601318
0.27152019739151001 4.22865104675292969 0.478659123182296753
-1.12173116207122803 3.46030569076538086 -0.768590331077575684
1.01919865608215332 3.51177501678466797 -0.598077714443206787
-0.176176190376281738 3.29665970802307129 -0.353773355484008789
0.921666860580444336 4.47966766357421875 0.441246509552001953
-1.09100949764251709 3.72687149047851562 0.590131759643554688
0.981456935405731201 3.5825963020324707 -0.382107466459274292
-1.2090153694152832 3.55530524253845215 -0.568250119686126709
-1.00425493717193604 3.29773640632629395 -0.773895263671875
0.679125428199768066 3.35022568702697754 -0.667541742324829102
0.174041420221328735 7.04062938690185547 2.1845548152923584
2.39837288856506348 7.75093984603881836 2.10004329681396484
1.0427316427230835 3.34941792488098145 -0.226803600788116455
-1.20395338535308838 3.61557531356811523 -0.61773449182510376
-1.59892487525939941 3.04770302772521973 -0.80515897274017334
0.213343769311904907 3.66251730918884277 -0.372598111629486084
-1.00189638137817383 3.78388166427612305 -0.301960974931716919
1.84553730487823486 7.67115306854248047 2.08856701850891113
0.93097841739654541 3.36518335342407227 -0.562929928302764893
0.453693807125091553 7.25018596649169922 2.16881227493286133
-0.783263206481933594 3.76727795600891113 -0.698534727096557617
-1.62019741535186768 7.32143640518188477 2.17125868797302246
1.67577171325683594 4.73466014862060547 -0.844699501991271973
1.96471035480499268 4.78964567184448242 0.984679460525512695
-0.733729839324951172 6.82857131958007812 2.26881885528564453
0.800571203231811523 3.43068456649780273 -0.395937323570251465
1.43776774406433105 4.4572291374206543 0.112951219081878662
-1.69228386878967285 3.68341875076293945 0.991005241870880127
0.89344257116317749 3.46638250350952148 -0.433363527059555054
2.65707945823669434 7.97140216827392578 2.10717964172363281
-0.70186316967010498 3.91594052314758301 0.607552766799926758
-0.745268940925598145 3.78754091262817383 -0.528489887714385986
-0.600409030914306641 2.95810866355895996 4.15689468383789062
0.810415208339691162 3.3675537109375 -0.493532419204711914
0.741156935691833496 3.30833911895751953 -0.443508505821228027
-0.228688940405845642 2.24733996391296387 -0.640119552612304688
1.8832399845123291 4.50405597686767578 -0.157717674970626831
-0.587052881717681885 7.27172088623046875 2.19148087501525879
-0.169456943869590759 6.48458242416381836 2.2287144660949707
0.925755143165588379 3.42995882034301758 -0.571907222270965576
-2.07154107093811035 3.45505499839782715 -0.415456086397171021
-1.37937068939208984 3.5319066047668457 0.140870422124862671
-1.64153468608856201 3.51852989196777344 -0.232549235224723816
1.76720309257507324 7.40617656707763672 2.06280112266540527
-0.0918276309967041016 4.14790439605712891 0.842104256153106689
0.803648531436920166 3.49956274032592773 -0.454131007194519043
1.38831925392150879 6.98265743255615234 2.19502687454223633
-1.5961766242980957 3.66174554824829102 -0.457164466381072998
0.848869442939758301 3.44001936912536621 -0.439317494630813599
-1.2340543270111084 3.57620549201965332 -0.44601362943649292
-1.7425994873046875 7.09163141250610352 2.23609709739685059
0.84170830249786377 3.47417879104614258 -0.537226021289825439
0.967196345329284668 3.31615996360778809 -0.643958151340484619
0.794834733009338379 3.34599184989929199 -0.473588854074478149
0.864181160926818848 3.37676525115966797 -0.454141974449157715
1.68047463893890381 4.36033248901367188 -0.533358514308929443
0.836564064025878906 3.43723392486572266 -0.571132183074951172
-0.476208508014678955 2.7434084415435791 3.17749929428100586
1.80172562599182129 4.05146455764770508 -0.533726930618286133
-1.08517026901245117 3.60071563720703125 -0.605257749557495117
-1.41301023960113525 3.71730637550354004 -0.649369478225708008
-1.11129307746887207 3.86737990379333496 -0.375380337238311768
0.81265723705291748 3.31583261489868164 -0.377041488885879517
0.869904398918151855 3.46305251121520996 -0.470159530639648438
0.79515993595123291 3.46481156349182129 -0.457070052623748779
0.747816264629364014 3.398223876953125 -0.63589787483215332
-0.977151274681091309 3.73062825202941895 -0.56453239917755127
0.0756741464138031006 3.16680741310119629 -0.667254269123077393
1.10116982460021973 3.41771149635314941 -0.494154781103134155
