ply
format ascii 1.0
element vertex 256
comment vertices
property float x
property float y
property float z
end_header
1.19962179660797119 3.95609903335571289 -0.551431119441986084
-1.49269735813140869 8.08090400695800781 2.32527327537536621
3.22471833229064941 7.92642116546630859 2.17737030982971191
-3.12707114219665527 4.25058269500732422 0.356377571821212769
-0.649315357208251953 2.73034524917602539 -0.732531547546386719
0.77713620662689209 6.04326868057250977 2.23356342315673828
3.13232254981994629 6.84913349151611328 -0.0856539905071258545
-0.828871250152587891 4.311614990234375 0.98757636547088623
0.0437402725219726562 3.1669471263885498 -0.738846719264984131
-1.72269678115844727 3.93859195709228516 -0.707297086715698242
2.77340912818908691 4.33947944641113281 0.651069164276123047
0.696501076221466064 8.08465194702148438 2.28381180763244629
1.96274948120117188 4.08958530426025391 -0.769860506057739258
2.79779553413391113 6.20541858673095703 2.17911100387573242
-0.276776254177093506 3.19455051422119141 -0.498428195714950562
-0.922291398048400879 6.44085502624511719 2.30523967742919922
0.631693780422210693 4.27357625961303711 0.93816530704498291
1.86725711822509766 7.20630407333374023 2.19945597648620605
-1.71209132671356201 4.11653757095336914 -0.272417455911636353
-0.128243133425712585 4.72983074188232422 -0.250430107116699219
1.98210406303405762 4.05696487426757812 -0.619627714157104492
1.16791379451751709 4.08947992324829102 -0.865234732627868652
-0.239039525389671326 7.68782567977905273 2.29725146293640137
-0.287752389907836914 3.20954799652099609 -0.606991469860076904
-1.99608850479125977 4.3280029296875 0.975282669067382812
-1.80487358570098877 6.93691396713256836 2.31217336654663086
1.75975334644317627 5.52088546752929688 2.21194815635681152
0.0170080028474330902 3.35718584060668945 -0.834026098251342773
1.79717886447906494 4.14420843124389648 0.374337732791900635
-0.50448310375213623 3.3110508918762207 -0.632599532604217529
-0.358142554759979248 3.2875058650970459 -0.56367570161819458
0.501997888088226318 7.0455322265625 2.2596125602722168
2.21473479270935059 8.12640857696533203 2.19514799118041992
-2.39044713973999023 3.99260354042053223 -0.559730708599090576
-0.136413276195526123 3.27825570106506348 -0.569926977157592773
1.91035616397857666 3.11652207374572754 -0.867315113544464111
-0.214128077030181885 3.14455032348632812 -0.637984037399291992
2.71128559112548828 7.01503419876098633 2.163299560546875
3.16614437103271484 6.68629360198974609 0.700351238250732422
-0.424860000610351562 3.13347625732421875 -0.218613475561141968
-0.114777326583862305 3.21455764770507812 -0.434338092803955078
2.04346752166748047 4.16381549835205078 -0.799623250961303711
-0.233506917953491211 3.26816082000732422 -0.644573390483856201
1.32538771629333496 6.45906305313110352 2.22386050224304199
-0.0847780629992485046 6.50451946258544922 2.31604766845703125
-0.0901917293667793274 4.39045572280883789 0.608128190040588379
-1.21261870861053467 7.27863502502441406 2.25385069847106934
-1.63235938549041748 4.04545450210571289 -0.740049421787261963
2.21887540817260742 3.89774274826049805 -0.796098947525024414
0.411234557628631592 3.77199077606201172 -0.0407811403274536133
1.61872434616088867 7.9150233268737793 2.20582747459411621
0.0210311412811279297 3.25957274436950684 -0.73903346061706543
-2.66056108474731445 4.11706638336181641 0.124919980764389038
1.50545930862426758 4.11058378219604492 -0.85068511962890625
1.9562000036239624 3.9173123836517334 -0.27601093053817749
-1.45117151737213135 4.28544902801513672 0.567371010780334473
0.995647847652435303 4.05642890930175781 -0.897724747657775879
-0.11088070273399353 3.17830228805541992 -0.607517600059509277
2.1121973991394043 6.68064308166503906 2.20974397659301758
-0.19242173433303833 3.17400074005126953 -0.669175803661346436
-0.294758647680282593 3.34668087959289551 -0.42897912859916687
1.17021679878234863 7.42860603332519531 2.22443675994873047
-2.21241426467895508 3.16209173202514648 -0.752938628196716309
2.43588471412658691 3.95815348625183105 0.235645949840545654
-1.48954248428344727 3.94501590728759766 -0.68831634521484375
1.92226099967956543 3.8825223445892334 -0.866279363632202148
0.259557425975799561 7.93502283096313477 2.27029848098754883
-0.762098431587219238 7.10260915756225586 2.33417439460754395
-2.79571008682250977 4.03670167922973633 -0.176621660590171814
-0.864409029483795166 8.0067596435546875 2.35742616653442383
1.24044764041900635 4.27287864685058594 0.91131293773651123
-1.64955997467041016 7.55827903747558594 2.29801583290100098
-0.0364711582660675049 3.84901762008666992 -0.0236154794692993164
-1.86322009563446045 3.97544527053833008 -0.7146109938621521
-0.0171772092580795288 7.13697290420532227 2.28243565559387207
-1.72779476642608643 3.90971136093139648 -0.751224279403686523
-0.197262465953826904 3.13799190521240234 -0.603590071201324463
-0.673991501331329346 3.27710056304931641 -0.664934098720550537
-0.251610815525054932 3.22633695602416992 -0.520438671112060547
0.666331350803375244 7.55104732513427734 2.23222899436950684
2.1871180534362793 6.04320526123046875 2.19330358505249023
-1.27617549896240234 3.81337499618530273 -0.686591863632202148
0.44926878809928894 6.54209232330322266 2.29715418815612793
-1.1209561824798584 3.78836870193481445 -0.231714993715286255
2.51883578300476074 7.45900392532348633 2.18799209594726562
-0.362747073173522949 3.24920558929443359 -0.538305997848510742
-2.63131999969482422 4.32698726654052734 0.881955206394195557
0.997159421443939209 6.9049220085144043 2.23654627799987793
-0.177117496728897095 3.27460575103759766 -0.587110519409179688
1.17000389099121094 2.58713030815124512 -0.843182802200317383
-0.19569551944732666 3.19829058647155762 -0.513492882251739502
2.20525050163269043 4.35375547409057617 0.77266991138458252
-0.22501760721206665 3.18618202209472656 -0.552960395812988281
-1.28493547439575195 6.9101719856262207 2.32836151123046875
-0.320527076721191406 3.26047420501708984 -0.397949486970901489
1.06789255142211914 5.82794904708862305 2.23555135726928711
1.90343749523162842 3.98901176452636719 -0.807627558708190918
-0.344447970390319824 3.23094701766967773 -0.640340149402618408
1.84755313396453857 4.10367488861083984 -0.0463127791881561279
-0.2572135329246521 3.11693000793457031 -0.645256102085113525
-0.210874795913696289 3.1374814510345459 -0.489146649837493896
1.09500610828399658 4.19137239456176758 -0.516573786735534668
1.26177299022674561 4.24454927444458008 -0.813352823257446289
-0.205112814903259277 3.101470947265625 -0.368758171796798706
-1.18304455280303955 4.19506359100341797 0.464961051940917969
-0.209728151559829712 3.20390653610229492 -0.500103652477264404
1.29147875308990479 4.04998397827148438 -0.874015867710113525
0.311718523502349854 4.02679729461669922 -0.843099236488342285
-0.23956809937953949 3.2420198917388916 -0.511057913303375244
2.0792686939239502 3.94542026519775391 -0.774232745170593262
1.97672009468078613 7.67122745513916016 2.17474460601806641
-0.298331975936889648 3.24015593528747559 -0.292615354061126709
-2.08146166801452637 3.98173046112060547 -0.573372900485992432
1.97276592254638672 4.11570596694946289 -0.682584524154663086
2.30362200736999512 6.97717666625976562 2.20456576347351074
0.88375777006149292 6.38765192031860352 2.24961328506469727
-0.0460918545722961426 3.05141973495483398 -0.746490657329559326
0.158501848578453064 4.30180549621582031 0.99618154764175415
-1.87454378604888916 4.22263145446777344 0.500993132591247559
-0.733732521533966064 7.44983816146850586 2.28364968299865723
1.59968531131744385 6.90960407257080078 2.25810790061950684
1.37478697299957275 3.95432019233703613 -0.119617670774459839
1.24818968772888184 4.13957452774047852 -0.787394702434539795
-0.214676320552825928 3.04124784469604492 -0.687183141708374023
-0.512843191623687744 6.76318264007568359 2.31720733642578125
2.7164311408996582 6.6792445182800293 2.1843564510345459
-0.183767154812812805 3.28404378890991211 -0.483169317245483398
-0.258274495601654053 3.23556137084960938 -0.497579842805862427
3.05966734886169434 7.4983067512512207 2.15748953819274902
-0.370247423648834229 4.31610202789306641 0.984365642070770264
1.22429203987121582 4.05989885330200195 -0.912614226341247559
0.961732983589172363 4.01495838165283203 -0.830538034439086914
0.181333273649215698 6.87793445587158203 2.29688405990600586
-0.524365127086639404 4.25394105911254883 0.421251982450485229
-1.46740257740020752 4.0346074104309082 -0.635606646537780762
0.164335787296295166 7.47887039184570312 2.28184676170349121
-0.892843306064605713 3.56593585014343262 -0.661559760570526123
1.0735241174697876 7.74650239944458008 2.1994481086730957
2.63682985305786133 7.84985828399658203 2.18674731254577637
1.71260201930999756 4.02457952499389648 -0.85668647289276123
1.53141570091247559 7.49819183349609375 2.21502518653869629
-2.78890228271484375 4.10516119003295898 0.0869021415710449219
-1.21856296062469482 4.32180976867675781 0.975771427154541016
-1.59374129772186279 4.35275173187255859 0.930102944374084473
-1.67641186714172363 4.08628320693969727 -0.713598012924194336
1.73289608955383301 4.31512784957885742 0.826678335666656494
0.868858695030212402 4.1973872184753418 0.625837922096252441
0.199908912181854248 3.90774822235107422 -0.821427822113037109
-2.24951171875 3.90989041328430176 -0.676277637481689453
-0.156999468803405762 3.16716670989990234 -0.634368300437927246
-2.75926589965820312 4.22990083694458008 0.531944334506988525
1.84109592437744141 4.00107622146606445 -0.744697451591491699
1.24222028255462646 4.23797845840454102 0.499012917280197144
-1.66080915927886963 4.11674785614013672 -0.776743829250335693
-0.648222446441650391 3.31821393966674805 -0.63037574291229248
-1.49829745292663574 7.17364883422851562 2.29274988174438477
-1.69266164302825928 4.1633915901184082 -0.590090095996856689
1.26755428314208984 4.01747608184814453 -0.326066136360168457
2.25582313537597656 4.12952470779418945 -0.668414950370788574
-2.21106290817260742 4.30952787399291992 0.577180743217468262
2.22678542137145996 3.96618151664733887 -0.397453069686889648
-1.97573733329772949 4.11765527725219727 -0.272367894649505615
-0.24039788544178009 3.2172081470489502 -0.57609933614730835
-0.248472109436988831 3.3282473087310791 -0.60095745325088501
1.81124448776245117 4.09050130844116211 -0.889383494853973389
1.06663906574249268 4.01703310012817383 -0.859262824058532715
-0.0366765409708023071 8.06734848022460938 2.26352477073669434
2.68983054161071777 4.05435943603515625 0.298922359943389893
1.87732040882110596 4.03155279159545898 -0.860183298587799072
-0.296437054872512817 3.24570298194885254 -0.594162225723266602
-0.251325994729995728 3.21832537651062012 -0.49244004487991333
-0.259002894163131714 3.17462348937988281 -0.63285529613494873
0.439792603254318237 4.359466552734375 0.606522440910339355
-0.345336407423019409 3.27394652366638184 -0.535492420196533203
1.83479773998260498 8.01568412780761719 2.20919895172119141
-1.41190481185913086 3.90741896629333496 -0.738836288452148438
-0.149784386157989502 3.11790776252746582 -0.420684933662414551
0.832824051380157471 7.28146648406982422 2.21763277053833008
-0.374784708023071289 3.28522634506225586 -0.60058283805847168
-0.152983695268630981 3.2053523063659668 -0.636139512062072754
-0.339034497737884521 3.18589425086975098 -0.622905910015106201
1.83123338222503662 3.72594881057739258 -0.881346583366394043
0.786851406097412109 6.70330190658569336 2.26631307601928711
0.968611538410186768 4.08415842056274414 -0.685276210308074951
-0.956853866577148438 7.01407623291015625 2.27798199653625488
2.97308802604675293 8.08644866943359375 2.17010879516601562
0.166361093521118164 2.96532058715820312 -0.722873091697692871
-0.255465954542160034 3.24661421775817871 -0.529098868370056152
-0.837077498435974121 3.39763641357421875 -0.373647570610046387
-0.174176394939422607 3.23406839370727539 -0.551883399486541748
2.17322826385498047 4.03970050811767578 -0.661026656627655029
0.479348301887512207 6.13314676284790039 2.26302742958068848
0.0802580788731575012 3.37725543975830078 -0.159431338310241699
-0.319002270698547363 6.87700414657592773 2.35007452964782715
1.89992249011993408 4.01897811889648438 -0.00673776865005493164
2.20897483825683594 4.04142093658447266 0.460634589195251465
0.361268520355224609 7.25918960571289062 2.24407696723937988
-0.290968537330627441 7.30171298980712891 2.30565333366394043
-0.226718664169311523 3.24352169036865234 -0.574895143508911133
-0.207577407360076904 3.22905254364013672 -0.556106388568878174
-1.17502164840698242 3.59272384643554688 -0.688890695571899414
0.507775366306304932 7.90823888778686523 2.21412992477416992
-0.249610602855682373 3.16936922073364258 -0.646370530128479004
1.37380290031433105 7.14373159408569336 2.20795273780822754
2.49582195281982422 4.26315212249755859 0.441587567329406738
-0.740035355091094971 6.85729551315307617 2.34598183631896973
2.03112959861755371 3.99685120582580566 -0.810697555541992188
-0.207287430763244629 3.11067605018615723 -0.365333437919616699
0.313125014305114746 3.51775026321411133 -0.800618886947631836
-0.900331556797027588 3.51456403732299805 -0.391227483749389648
-2.07129740715026855 3.98898172378540039 -0.515933096408843994
-0.264103591442108154 3.25102472305297852 -0.66595149040222168
-1.39379525184631348 7.76526546478271484 2.33292984962463379
1.9252326488494873 3.947479248046875 -0.844637155532836914
-1.79015851020812988 4.0738525390625 -0.729599297046661377
1.21637427806854248 4.14667510986328125 -0.451339602470397949
-0.165545552968978882 3.24427556991577148 -0.6803855299949646
-0.017210155725479126 3.6923677921295166 -0.117404341697692871
-0.819534778594970703 3.42622566223144531 -0.671267211437225342
-0.203358322381973267 3.27204775810241699 -0.548472821712493896
-1.75628697872161865 4.01655244827270508 -0.638758182525634766
1.79746794700622559 4.06157064437866211 -0.844194173812866211
-0.0810201466083526611 3.2090146541595459 -0.428077220916748047
0.155946493148803711 6.31106996536254883 2.27836370468139648
-0.28229224681854248 3.27459239959716797 -0.617718338966369629
-0.150479167699813843 3.28150391578674316 -0.405348241329193115
-0.375414729118347168 3.31039094924926758 -0.32316434383392334
-1.62327289581298828 3.99921846389770508 -0.789935827255249023
-1.98459243774414062 3.47694087028503418 -0.687148332595825195
-0.14741438627243042 3.23754549026489258 -0.573533415794372559
-1.80498111248016357 4.11400032043457031 0.0653821229934692383
-0.246705234050750732 3.23774838447570801 -0.466283559799194336
-0.362284272909164429 3.2824089527130127 -0.38142123818397522
2.03520727157592773 4.05587673187255859 -0.702569007873535156
2.15125203132629395 7.27025270462036133 2.16395044326782227
-0.215169548988342285 3.20879697799682617 -0.616850018501281738
1.93860888481140137 4.01128482818603516 -0.805320501327514648
1.23582136631011963 2.4071044921875 -0.748157083988189697
2.05441045761108398 6.89073562622070312 2.20928597450256348
0.8158072829246521 5.82222223281860352 2.23195171356201172
1.40791964530944824 4.04683780670166016 -0.852318346500396729
-0.209284842014312744 3.34374046325683594 -0.573311209678649902
0.0827855467796325684 3.7041172981262207 -0.0116460323333740234
-0.21497306227684021 3.2071070671081543 -0.656150698661804199
1.14763200283050537 3.94605875015258789 -0.352353096008300781
1.24487864971160889 7.99003124237060547 2.23718523979187012
-0.216802477836608887 3.33860349655151367 -0.608316898345947266
-0.227659851312637329 3.23930811882019043 -0.661519706249237061
-0.130852207541465759 7.84933805465698242 2.28314042091369629
-0.0495280995965003967 4.36323165893554688 0.923879265785217285
-0.181639254093170166 3.23578643798828125 -0.558818817138671875
2.50507712364196777 6.87370538711547852 2.16913771629333496
-1.77452898025512695 3.96063065528869629 -0.697488188743591309
-0.239896893501281738 3.19325542449951172 -0.360639840364456177
-0.354117989540100098 3.12088418006896973 -0.635282635688781738
2.47170615196228027 8.09639358520507812 2.18759846687316895
