ply
format ascii 1.0
element vertex 256
comment vertices
property float x
property float y
property float z
end_header
0.00558894872665405273 2.52880120277404785 -0.531132221221923828
-3.9124903678894043 8.01790714263916016 2.01079916954040527
-0.479307979345321655 3.76569604873657227 1.03184163570404053
1.36137032508850098 1.99098658561706543 -0.132863044738769531
-1.95387780666351318 6.15384197235107422 -0.615024328231811523
-0.0940111279487609863 3.8716588020324707 -0.700753211975097656
-2.73501205444335938 5.03890419006347656 1.34762191772460938
0.0763238072395324707 2.48882961273193359 -0.479179024696350098
-0.961129605770111084 6.26919937133789062 0.387056261301040649
0.953738808631896973 2.48239636421203613 0.536548197269439697
-2.33184480667114258 6.01190853118896484 1.60959374904632568
-1.77710354328155518 3.08736681938171387 -0.619551479816436768
0.072277851402759552 2.4931488037109375 -0.429164379835128784
0.0729052349925041199 2.47338628768920898 -0.391824543476104736
-0.925231277942657471 4.97112178802490234 -0.394648134708404541
-3.20850491523742676 5.00681781768798828 -0.0110951438546180725
0.0992760062217712402 2.47300338745117188 -0.371559232473373413
-1.2874901294708252 4.05658340454101562 0.746139645576477051
-1.13231253623962402 2.00005459785461426 -0.239235103130340576
-0.564208507537841797 1.1738123893737793 -0.591495394706726074
0.0800185650587081909 2.48245716094970703 -0.416498243808746338
-1.40821540355682373 1.8559415340423584 -0.0518579483032226562
-1.80031251907348633 3.02463531494140625 -0.599125921726226807
0.0773138776421546936 2.48552489280700684 -0.434451699256896973
0.0791955366730690002 2.47649765014648438 -0.405560106039047241
-1.36896991729736328 4.28643941879272461 -0.633880138397216797
1.36095273494720459 2.7217257022857666 0.832276821136474609
0.253466993570327759 3.11267375946044922 0.84686964750289917
-0.802908957004547119 4.46279573440551758 -0.57876962423324585
0.45303913950920105 2.70718908309936523 -0.586393773555755615
0.152627438306808472 2.44769811630249023 -0.475142061710357666
-0.376317799091339111 3.11730766296386719 -0.308258205652236938
0.0796876251697540283 2.48969841003417969 -0.460556745529174805
-2.09419012069702148 1.75308871269226074 -0.512104809284210205
-2.22007632255554199 5.47538852691650391 1.40664458274841309
-3.34324550628662109 5.54931974411010742 -0.431646138429641724
1.55449831485748291 2.29228043556213379 -0.600167453289031982
-0.791119158267974854 4.23798513412475586 -0.385494470596313477
0.0913638696074485779 2.50491499900817871 -0.482826977968215942
0.0812795907258987427 2.48645853996276855 -0.43852531909942627
-0.394445896148681641 3.39338588714599609 -0.286613762378692627
-2.92959380149841309 6.35158395767211914 1.69381082057952881
0.0586024895310401917 2.4727330207824707 -0.361802816390991211
-2.7007591724395752 4.99786949157714844 0.320470958948135376
-1.79266726970672607 3.04562234878540039 -0.588008463382720947
-0.662296593189239502 0.676348686218261719 -0.245186865329742432
-0.0548816919326782227 -0.570895195007324219 -0.491339325904846191
1.08151364326477051 2.17011666297912598 -0.361542403697967529
-0.912931323051452637 4.42827606201171875 1.22368049621582031
-2.40668034553527832 5.1772150993347168 0.179011613130569458
0.406136095523834229 -0.963222265243530273 -0.355097711086273193
-1.75919115543365479 5.63222360610961914 1.06368422508239746
0.0744888633489608765 2.49115610122680664 -0.433987230062484741
-0.228076577186584473 4.53728771209716797 -0.401698082685470581
-3.08404350280761719 4.92280006408691406 0.407409846782684326
0.0596933029592037201 2.48993349075317383 -0.399553775787353516
0.259945809841156006 0.555467128753662109 -0.350297749042510986
-0.283469021320343018 4.12818670272827148 -0.442161470651626587
-0.838330924510955811 1.69785189628601074 -0.211722075939178467
-0.942245125770568848 5.67139148712158203 -0.359449386596679688
0.0779261738061904907 2.47330451011657715 -0.407424181699752808
0.0670916736125946045 2.49243402481079102 -0.42200133204460144
-0.532246232032775879 1.19950294494628906 -0.90856093168258667
-1.79184675216674805 3.04035305976867676 -0.577140390872955322
1.57303917407989502 2.26053810119628906 -0.622114896774291992
0.0702320709824562073 2.49175143241882324 -0.398676753044128418
-0.738719940185546875 4.35001564025878906 -0.517068564891815186
-2.0005958080291748 5.58171319961547852 -0.628254413604736328
-0.466311395168304443 0.832424163818359375 -0.000826120376586914062
0.0778725817799568176 2.4838099479675293 -0.436867207288742065
0.00858491659164428711 2.56591629981994629 -0.529594659805297852
-1.68517577648162842 2.57085323333740234 -0.218653351068496704
0.0272362977266311646 2.51263284683227539 -0.404536187648773193
0.0753924176096916199 2.49274754524230957 -0.414773374795913696
1.56440699100494385 2.27699112892150879 -0.636412382125854492
-1.80198180675506592 3.0406649112701416 -0.584476947784423828
2.1677238941192627 0.0980687141418457031 -0.152082979679107666
-2.4972987174987793 5.32189559936523438 -0.0426175892353057861
0.071753479540348053 2.48833131790161133 -0.440790295600891113
-0.346892118453979492 4.16037750244140625 -0.892660379409790039
0.0674611032009124756 2.47380709648132324 -0.397100150585174561
-2.52661633491516113 6.03728485107421875 0.975033164024353027
-3.14091038703918457 5.11103391647338867 -0.515127182006835938
-1.76646816730499268 3.01794815063476562 -0.601139247417449951
0.0393802225589752197 2.48034930229187012 -0.480623930692672729
-3.51360940933227539 5.36637783050537109 -0.435857445001602173
-0.581556081771850586 3.94715094566345215 -0.230681419372558594
1.77453398704528809 1.80975377559661865 0.314579606056213379
0.207297176122665405 2.26928520202636719 0.403863072395324707
-2.48007774353027344 5.23686647415161133 1.22548460960388184
0.402268350124359131 2.59064340591430664 0.672418534755706787
-1.53509402275085449 3.79609990119934082 0.0720934271812438965
0.995489954948425293 0.0531826019287109375 -0.281256914138793945
0.870001673698425293 2.36071586608886719 -0.0600018873810768127
-2.07171893119812012 4.92688083648681641 -0.325465023517608643
1.58026266098022461 2.24313759803771973 -0.664299130439758301
0.0820162445306777954 2.50850582122802734 -0.428632378578186035
-2.7213904857635498 5.24484586715698242 0.156784161925315857
-1.32078242301940918 1.68570446968078613 0.0469694137573242188
0.0769034475088119507 2.48297357559204102 -0.417646467685699463
0.0711818486452102661 2.4878389835357666 -0.416543781757354736
-0.621735215187072754 1.24825477600097656 -0.598165512084960938
-0.73048853874206543 3.68912601470947266 -0.412219524383544922
0.0710688754916191101 2.48991847038269043 -0.417643487453460693
-0.461555629968643188 3.75151801109313965 -0.0834746956825256348
0.0708388984203338623 2.49527502059936523 -0.436374068260192871
-1.72721552848815918 5.12796688079833984 1.34790956974029541
-1.77244091033935547 3.05071067810058594 -0.595228493213653564
0.0646341517567634583 2.49574899673461914 -0.424151450395584106
-2.70223760604858398 4.9970698356628418 0.579540252685546875
0.0904679149389266968 2.46452736854553223 -0.368752658367156982
-1.66906619071960449 5.61592197418212891 1.05832409858703613
0.0795015245676040649 2.46080255508422852 -0.381952941417694092
-0.322441756725311279 4.32759523391723633 -0.522664666175842285
0.642641544342041016 2.33263111114501953 -0.21762731671333313
0.0825869813561439514 2.4732511043548584 -0.388498067855834961
-2.43473625183105469 5.59642791748046875 -0.568693161010742188
0.0712601840496063232 2.48531317710876465 -0.404943883419036865
-1.60488295555114746 5.78593587875366211 1.70261621475219727
-2.13661432266235352 5.23200511932373047 0.458581656217575073
0.0865038409829139709 2.48218512535095215 -0.43528178334236145
-2.26111316680908203 3.60966730117797852 -0.37224993109703064
0.255672454833984375 2.39251255989074707 -0.421778112649917603
0.0781178176403045654 2.4872586727142334 -0.425794214010238647
-1.49959349632263184 4.50401735305786133 1.31552529335021973
-1.84835934638977051 5.81508636474609375 -0.77763521671295166
-2.22017550468444824 3.35375046730041504 -0.183832943439483643
0.0782075896859169006 2.49697136878967285 -0.4481925368309021
-1.21213865280151367 1.80866003036499023 -0.111430883407592773
1.895751953125 -0.929281711578369141 -0.451182007789611816
-1.78503155708312988 3.05072259902954102 -0.618356704711914062
0.0835677981376647949 2.48090815544128418 -0.436339795589447021
0.0628965198993682861 2.47263717651367188 -0.352377474308013916
-3.34848880767822266 5.2296905517578125 -0.288568109273910522
-0.43542325496673584 3.48680233955383301 -0.284511208534240723
0.0426643118262290955 0.657578229904174805 -0.404651939868927002
-0.711549103260040283 3.26172780990600586 -0.541299700736999512
-0.636321961879730225 6.0874781608581543 0.102875284850597382
-1.7057417631149292 5.65184354782104492 1.07321929931640625
-0.823818325996398926 3.95448946952819824 -0.270651400089263916
-2.2343604564666748 4.11724615097045898 -0.593106329441070557
0.0832420811057090759 2.4969933032989502 -0.470714598894119263
1.55935859680175781 2.26444911956787109 -0.648038506507873535
2.00256252288818359 0.374641180038452148 -0.211626589298248291
0.0563436597585678101 2.47606110572814941 -0.420831918716430664
-2.12957978248596191 5.93392372131347656 1.11633670330047607
-0.763666689395904541 4.67226982116699219 -0.232773467898368835
-1.79379153251647949 3.04939770698547363 -0.598282337188720703
-0.806828975677490234 3.75136113166809082 0.915383517742156982
-0.794474482536315918 1.27629947662353516 -0.791761398315429688
0.0742715001106262207 1.37315702438354492 0.109978079795837402
-0.54551386833190918 0.79698634147644043 -0.314916431903839111
-1.26882195472717285 2.66489529609680176 -0.0448337793350219727
0.0752771049737930298 2.49377155303955078 -0.435275554656982422
0.0785735622048377991 2.49268460273742676 -0.460628807544708252
0.103892184793949127 2.48374128341674805 -0.456104099750518799
0.0763472467660903931 2.50356221199035645 -0.491783231496810913
-3.0811455249786377 4.46487617492675781 -0.554255902767181396
0.0745332315564155579 2.4893803596496582 -0.442510306835174561
0.0722359046339988708 2.48893570899963379 -0.410371005535125732
0.0874323099851608276 2.48205351829528809 -0.452883720397949219
1.38569200038909912 0.224686384201049805 -0.235145628452301025
0.0731989741325378418 2.48576903343200684 -0.415276944637298584
-0.373691856861114502 1.28881454467773438 -0.0479738116264343262
1.28781425952911377 0.359168767929077148 -0.0137408971786499023
-0.347785055637359619 5.44932985305786133 -0.44541439414024353
-0.249908685684204102 3.95573592185974121 -0.528796911239624023
-0.0888486504554748535 2.86932754516601562 -0.286610007286071777
0.164578258991241455 0.615981340408325195 -0.274224519729614258
0.0717939436435699463 2.47897672653198242 -0.419951200485229492
-0.354785412549972534 3.95136356353759766 -0.326125025749206543
-1.03061938285827637 4.59955215454101562 -0.442932695150375366
0.0979929566383361816 2.47123503684997559 -0.390608251094818115
-1.78445827960968018 3.06290841102600098 -0.590677857398986816
-0.543405532836914062 4.60171699523925781 -0.0390375256538391113
0.289671480655670166 2.29651308059692383 -0.312815994024276733
0.0613261386752128601 2.478363037109375 -0.393767714500427246
0.0769457072019577026 2.48795056343078613 -0.444704592227935791
-2.36533832550048828 5.09088993072509766 0.0164557434618473053
-2.59660983085632324 4.225860595703125 -0.570504546165466309
-3.08998560905456543 4.67955112457275391 -0.583872795104980469
-0.764458119869232178 3.99579954147338867 -0.650296688079833984
0.0547602921724319458 2.47565436363220215 -0.417107105255126953
0.970486760139465332 2.1879117488861084 -0.166651368141174316
1.58453190326690674 2.29074835777282715 -0.615778803825378418
1.55143392086029053 2.25926399230957031 -0.662672638893127441
0.0720017403364181519 2.48442387580871582 -0.41362801194190979
1.57701241970062256 2.20734477043151855 -0.7014656662940979
-1.79071438312530518 3.04848885536193848 -0.582386493682861328
0.0668837130069732666 2.48630785942077637 -0.413649082183837891
-1.36450433731079102 2.5533912181854248 0.0829510688781738281
1.55252552032470703 2.27015924453735352 -0.647760987281799316
-2.94471430778503418 5.15350484848022461 -0.0487104058265686035
-1.54917585849761963 2.62882089614868164 -0.661438643932342529
0.0817341580986976624 2.49218559265136719 -0.451600044965744019
-0.545524001121520996 2.54573369026184082 -0.627829194068908691
-2.3253936767578125 6.28122997283935547 1.96872997283935547
-2.13447761535644531 5.07564878463745117 0.0126884281635284424
1.5952073335647583 2.26051735877990723 -0.614844441413879395
0.0840108990669250488 2.46400737762451172 -0.39471784234046936
0.0694159418344497681 2.49270939826965332 -0.427606880664825439
0.0784332677721977234 2.48539209365844727 -0.422262668609619141
-1.7168806791305542 2.97752881050109863 -0.606946647167205811
1.44353055953979492 -0.470771312713623047 -0.34973907470703125
-1.79988718032836914 3.7314910888671875 -0.33901524543762207
0.247903347015380859 -0.000862360000610351562 -0.553751826286315918
-2.84705901145935059 4.83118391036987305 0.819958865642547607
-2.0327451229095459 1.79594135284423828 -0.0726761817932128906
-0.14597618579864502 3.84783840179443359 0.809808254241943359
0.0753053575754165649 2.48468947410583496 -0.433673650026321411
-2.18783283233642578 6.14134407043457031 -0.605896174907684326
-2.66240096092224121 5.14890480041503906 0.972458779811859131
0.136304855346679688 6.06491374969482422 -0.220511108636856079
1.53519153594970703 2.27073860168457031 -0.629303693771362305
0.0744022578001022339 2.54977226257324219 -0.383955061435699463
0.070690542459487915 2.47776317596435547 -0.412857472896575928
1.16236710548400879 1.52509188652038574 0.293695986270904541
-1.82079696655273438 3.04446673393249512 -0.588508784770965576
0.680598914623260498 1.35687732696533203 0.145962059497833252
1.59438717365264893 2.25807023048400879 -0.644130408763885498
-1.92607402801513672 5.47738409042358398 0.815169334411621094
0.888573765754699707 2.46485137939453125 0.932375013828277588
0.0696309506893157959 2.4942626953125 -0.420569807291030884
2.17457318305969238 1.52483320236206055 -0.108057618141174316
1.54674303531646729 2.28183221817016602 -0.623543083667755127
-0.0634022653102874756 3.07436561584472656 -0.476883590221405029
-2.2622988224029541 5.22965908050537109 0.615845680236816406
-0.0387977361679077148 2.07744574546813965 -0.823739886283874512
0.032031036913394928 2.50463223457336426 -0.294222354888916016
0.0866901129484176636 2.49355125427246094 -0.461022496223449707
-0.279388070106506348 0.0106000900268554688 -0.47591865062713623
-3.23579192161560059 5.88404703140258789 1.15247213840484619
-0.700576543807983398 3.90190219879150391 -0.387576699256896973
-0.807610452175140381 4.07252883911132812 -0.538472652435302734
0.0720625892281532288 2.4625093936920166 -0.402830630540847778
0.0986190512776374817 2.48655796051025391 -0.459869295358657837
0.0707624033093452454 2.48928928375244141 -0.41682472825050354
0.0792761147022247314 2.61914682388305664 -0.305543124675750732
-0.369334936141967773 1.09572601318359375 -0.860899031162261963
-0.61693340539932251 3.44295191764831543 -0.304655700922012329
-1.63793885707855225 5.35364818572998047 1.18549215793609619
-1.78531002998352051 3.04934024810791016 -0.610278904438018799
0.0757170990109443665 2.49321460723876953 -0.433742672204971313
-0.0810692310333251953 0.634866952896118164 0.102614820003509521
-2.85003781318664551 5.08637619018554688 0.287544488906860352
0.0609764233231544495 2.48744821548461914 -0.413169592618942261
0.0771305784583091736 2.48631668090820312 -0.445907443761825562
-0.196280539035797119 2.16932058334350586 0.294056177139282227
-3.75327682495117188 5.02434349060058594 -0.306608378887176514
0.00485932826995849609 1.60070562362670898 -0.390266656875610352
-0.0205585956573486328 -0.645595550537109375 -0.292388200759887695
0.0863508731126785278 2.46728944778442383 -0.385891139507293701
1.63838398456573486 2.6220860481262207 0.598817884922027588
-0.153908208012580872 3.83301615715026855 -0.42423364520072937
0.0700540691614151001 2.48219728469848633 -0.425147861242294312
0.0639613643288612366 2.49376153945922852 -0.42097008228302002
