ply
format ascii 1.0
element vertex 256
comment vertices
property float x
property float y
property float z
end_header
-0.967333436012268066 1.90343356132507324 -0.327164232730865479
2.61696481704711914 7.96355819702148438 2.35837793350219727
2.99654889106750488 4.92981338500976562 -0.646308243274688721
-1.12127482891082764 5.48731136322021484 1.26461946964263916
0.586826503276824951 4.07550716400146484 -0.71298062801361084
1.6531975269317627 5.1410675048828125 0.963724613189697266
-0.0997391492128372192 7.86032962799072266 2.41410684585571289
0.828652679920196533 2.48061275482177734 -0.846161246299743652
-1.06046724319458008 3.42846250534057617 0.384360015392303467
0.39469677209854126 4.58513593673706055 -0.391441881656646729
0.144530922174453735 2.61742782592773438 -0.66623985767364502
0.972711443901062012 3.91669011116027832 -0.51736903190612793
1.4075319766998291 6.9448084831237793 2.41700959205627441
3.12749958038330078 4.99407529830932617 0.091046750545501709
-1.49969768524169922 5.28722810745239258 -0.141648739576339722
1.27685809135437012 3.92095327377319336 -0.601188778877258301
-0.567821502685546875 5.22951698303222656 -0.617474377155303955
1.00543618202209473 3.44797945022583008 -0.570388555526733398
2.8930966854095459 6.88711786270141602 2.24751067161560059
-0.732365608215332031 4.41958332061767578 -0.345657527446746826
1.13121235370635986 8.1427459716796875 2.41050314903259277
-0.978265106678009033 3.4107058048248291 -0.594822704792022705
-1.07821011543273926 1.67208492755889893 -0.456487178802490234
2.20789647102355957 4.79622316360473633 -0.568325936794281006
0.570374608039855957 5.39945554733276367 1.02505350112915039
-1.45024073123931885 4.82920074462890625 0.570229649543762207
-1.04783284664154053 2.49676823616027832 -0.0545294284820556641
0.951268315315246582 4.01809883117675781 -0.213475614786148071
1.15167117118835449 3.33966445922851562 -0.639957547187805176
1.20819211006164551 4.01762962341308594 -0.548177242279052734
-0.98562246561050415 2.28855347633361816 -0.293729543685913086
0.893368124961853027 2.38809776306152344 -0.888785123825073242
-1.03344058990478516 5.23364877700805664 0.310036659240722656
0.655156373977661133 7.36488628387451172 2.32337570190429688
1.12512826919555664 4.12240266799926758 -0.528348386287689209
1.21409928798675537 4.03865194320678711 -0.489764809608459473
-0.466933250427246094 4.23887491226196289 -0.707574963569641113
2.42251920700073242 4.86874675750732422 -0.0649799704551696777
-0.83547133207321167 5.07980775833129883 -0.440211266279220581
3.67145991325378418 5.0954594612121582 -0.557672321796417236
-1.74925267696380615 5.39793586730957031 0.485233038663864136
0.896640241146087646 2.52403140068054199 -0.751158952713012695
2.25804448127746582 7.17584753036499023 2.32591152191162109
0.646346449851989746 3.11820626258850098 -0.742890477180480957
-1.07960224151611328 3.30671024322509766 -0.453094542026519775
0.447007089853286743 4.30020475387573242 -0.656897604465484619
0.976812481880187988 3.51211261749267578 -0.678494930267333984
2.89347600936889648 5.10497808456420898 0.71440732479095459
-0.523829638957977295 4.43094015121459961 -0.559103131294250488
-0.338497847318649292 2.03110909461975098 -0.729543626308441162
0.939906060695648193 4.14233064651489258 -0.368874073028564453
0.717370927333831787 4.73904180526733398 -0.520395636558532715
1.85184633731842041 7.9159698486328125 2.40422725677490234
-0.178734838962554932 5.44205284118652344 0.898964762687683105
-0.953368544578552246 5.01608943939208984 0.184175282716751099
0.810018599033355713 2.50140833854675293 -0.781208992004394531
-1.22776913642883301 4.0658879280090332 0.217307150363922119
2.94650387763977051 4.86919927597045898 -0.26525270938873291
-1.21276843547821045 1.93549823760986328 -0.563620924949645996
-0.934570789337158203 3.1414487361907959 -0.186360090970993042
-0.910860121250152588 4.12938690185546875 -0.431593209505081177
1.10599923133850098 5.22600173950195312 0.694850265979766846
1.12425053119659424 7.43309259414672852 2.27641916275024414
1.01042842864990234 3.53765296936035156 -0.593080103397369385
-1.20452392101287842 4.42441892623901367 0.628379583358764648
1.12143480777740479 4.02861881256103516 -0.443729639053344727
1.19540834426879883 4.23173046112060547 -0.551620125770568848
-1.07170355319976807 2.40508890151977539 -0.344462871551513672
0.758967876434326172 5.13502979278564453 0.0763802528381347656
2.22632980346679688 4.94026565551757812 -0.384919166564941406
1.04201960563659668 4.60300445556640625 -0.0673755407333374023
-1.18016648292541504 5.04595518112182617 0.709570229053497314
-0.948259115219116211 2.11994051933288574 -0.253599643707275391
-0.773960411548614502 4.414703369140625 -0.635105550289154053
2.37470459938049316 4.30630254745483398 -0.712289154529571533
2.47841858863830566 4.94462394714355469 -0.731810331344604492
0.772749483585357666 3.99531412124633789 -0.614567875862121582
0.679803729057312012 2.55794835090637207 -0.848333597183227539
-0.229176312685012817 4.55785989761352539 -0.494154632091522217
-0.937237381935119629 5.03955554962158203 0.00929227471351623535
-0.0139856766909360886 5.31647109985351562 0.159992694854736328
-0.940323293209075928 5.23645925521850586 -0.122940853238105774
-0.988769650459289551 3.73497772216796875 -0.539193868637084961
0.810459256172180176 6.82008790969848633 2.39879083633422852
1.19908237457275391 4.16440916061401367 -0.469261258840560913
2.3499298095703125 5.18818426132202148 0.869671821594238281
0.707369685173034668 2.41666364669799805 -0.869732022285461426
-0.746081709861755371 5.45153570175170898 0.867494344711303711
0.83536374568939209 2.4092707633972168 -0.834788918495178223
-0.659565269947052002 4.02279281616210938 -0.653758108615875244
1.13022339344024658 3.97598505020141602 -0.509145736694335938
-0.748404860496520996 5.16286563873291016 -0.264898121356964111
2.81815075874328613 4.87389326095581055 -0.18125385046005249
2.93465089797973633 4.90097618103027344 -0.54087907075881958
-0.921651601791381836 3.24814558029174805 -0.516548752784729004
1.05181431770324707 3.38223934173583984 -0.684501051902770996
1.7785944938659668 7.13854742050170898 2.41145896911621094
1.0004889965057373 4.05157136917114258 -0.455288112163543701
-1.79200685024261475 5.33549880981445312 0.152884364128112793
1.56808292865753174 4.16819381713867188 -0.369172394275665283
-0.427231818437576294 3.24496316909790039 -0.710905015468597412
0.344808101654052734 4.00352621078491211 -0.723982155323028564
-1.03249609470367432 1.85776424407958984 -0.700294792652130127
-0.852159202098846436 3.47224307060241699 -0.594889640808105469
0.897395849227905273 2.4837038516998291 -0.857901811599731445
0.347970515489578247 4.94905805587768555 -0.446688145399093628
-0.711763978004455566 2.70401692390441895 -0.298067808151245117
0.801547765731811523 2.92746138572692871 -0.728795349597930908
-0.15849459171295166 4.91683864593505859 -0.687274694442749023
-1.25733113288879395 2.19273185729980469 -0.664033055305480957
-1.04689121246337891 5.06768417358398438 0.280930161476135254
2.73814797401428223 4.90654420852661133 0.358499199151992798
0.947576344013214111 2.66558480262756348 -0.826787471771240234
0.845416605472564697 2.7655491828918457 -0.748281538486480713
0.831456840038299561 3.33791685104370117 -0.586990237236022949
1.11215877532958984 4.01631879806518555 -0.453286230564117432
1.9804542064666748 5.01775407791137695 0.416538447141647339
-0.988522946834564209 3.47277259826660156 -0.383279889822006226
-0.992074728012084961 3.20787310600280762 -0.397397667169570923
-1.2261803150177002 4.65759849548339844 0.795003831386566162
-0.666343331336975098 4.54455423355102539 -0.507567048072814941
-1.01978421211242676 4.84665060043334961 -0.553510963916778564
-1.16763222217559814 3.71527671813964844 0.471880257129669189
-1.04432201385498047 1.76910650730133057 -0.41319572925567627
-1.53568017482757568 5.40249252319335938 0.169838011264801025
0.686319649219512939 2.2944636344909668 -0.858964800834655762
0.815268278121948242 2.56734395027160645 -0.813463032245635986
0.849534273147583008 3.42136144638061523 -0.705016434192657471
-1.0131828784942627 2.12126398086547852 -0.481904506683349609
1.19349145889282227 3.94693398475646973 -0.531071066856384277
-1.01354742050170898 5.08773088455200195 -0.0019448697566986084
1.03351175785064697 4.1012272834777832 -0.371919959783554077
2.51661348342895508 6.87532520294189453 2.28456997871398926
-1.00165534019470215 4.17124843597412109 -0.29081454873085022
1.00675463676452637 4.02966117858886719 -0.286545395851135254
-1.05481863021850586 3.45535039901733398 -0.539552867412567139
0.234794408082962036 5.44623041152954102 0.803965747356414795
2.78937029838562012 5.00261211395263672 -0.258899569511413574
-0.755952596664428711 2.31514883041381836 -0.717223048210144043
-0.885993480682373047 3.58916211128234863 -0.575708150863647461
-0.9661141037940979 2.72176933288574219 -0.274041175842285156
1.08837103843688965 4.43690299987792969 -0.299267977476119995
-0.969485223293304443 1.92109525203704834 -0.171699315309524536
0.983591675758361816 4.41416788101196289 -0.420632869005203247
0.967388749122619629 3.28441262245178223 -0.628134012222290039
0.689640283584594727 3.47284245491027832 -0.732858061790466309
0.853473424911499023 5.35929298400878906 0.547223210334777832
-0.380865812301635742 5.456390380859375 0.55060046911239624
-0.692713797092437744 4.3851618766784668 -0.69618833065032959
0.251904398202896118 7.30083036422729492 2.31965804100036621
-0.720306754112243652 4.08391141891479492 -0.502586126327514648
0.850873768329620361 4.38867473602294922 -0.054935753345489502
-1.12287330627441406 3.73000097274780273 -0.719922363758087158
1.25091946125030518 4.17776203155517578 -0.573157012462615967
1.03891396522521973 3.55311989784240723 -0.636482477188110352
-0.976837635040283203 4.30034017562866211 -0.0370970368385314941
-1.06443655490875244 5.33613920211791992 0.659675717353820801
0.783809065818786621 4.35948324203491211 0.0153903365135192871
1.23424148559570312 4.01428794860839844 -0.613707065582275391
1.51099526882171631 4.34081506729125977 -0.459613442420959473
1.54736077785491943 8.02534008026123047 2.36527681350708008
0.843688070774078369 2.59515380859375 -0.777161598205566406
2.49880075454711914 5.11626100540161133 0.430676817893981934
-1.04627823829650879 4.23038339614868164 -0.338960826396942139
0.8314361572265625 3.30616021156311035 -0.566795766353607178
1.26956737041473389 5.10223484039306641 0.63708794116973877
1.0049746036529541 3.51411128044128418 -0.50166773796081543
0.468992263078689575 4.22790956497192383 -0.664869189262390137
3.25912570953369141 5.07326555252075195 0.374913930892944336
1.33398246765136719 7.21541452407836914 2.40389370918273926
-1.20831692218780518 4.8673701286315918 0.272268354892730713
0.609380245208740234 4.54342222213745117 -0.194178462028503418
3.08923602104187012 4.86176872253417969 -0.202251464128494263
-1.02024126052856445 1.89901649951934814 -0.310096889734268188
2.61975240707397461 7.16588878631591797 2.31641983985900879
0.846351802349090576 3.09113550186157227 -0.626634895801544189
-0.552726805210113525 5.20044279098510742 -0.0105224847793579102
-1.24996483325958252 1.85073554515838623 -0.300556600093841553
-0.953631579875946045 2.34627962112426758 -0.362346529960632324
2.17304205894470215 4.87405538558959961 -0.501087725162506104
1.2333751916885376 4.12305259704589844 -0.525606393814086914
0.560373485088348389 2.46577048301696777 -0.837804257869720459
1.81545519828796387 6.98955535888671875 2.40335297584533691
1.12650120258331299 4.05758905410766602 -0.325402170419692993
-1.27485895156860352 4.96919107437133789 0.465916812419891357
-0.912083268165588379 5.39007854461669922 1.28054392337799072
-0.803690433502197266 5.14456462860107422 -0.279569834470748901
0.473350733518600464 5.37819051742553711 0.524399280548095703
-0.0847022086381912231 5.26145362854003906 -0.123295515775680542
-0.874321579933166504 2.12391424179077148 -0.224479183554649353
0.657597243785858154 2.59072732925415039 -0.859910845756530762
-0.705294132232666016 4.50478839874267578 -0.766218125820159912
-1.03067159652709961 2.32471585273742676 -0.230598360300064087
0.95402979850769043 5.35612726211547852 0.954037070274353027
1.01477944850921631 3.32026147842407227 -0.679337799549102783
0.918978393077850342 3.48645448684692383 -0.626456677913665771
-0.823953390121459961 5.32529783248901367 0.160135090351104736
0.929449081420898438 4.26372575759887695 -0.350619852542877197
0.906156182289123535 2.46030902862548828 -0.800133943557739258
2.62080621719360352 4.86183261871337891 -0.254159688949584961
-1.18408739566802979 4.28569793701171875 0.210971951484680176
-1.07383573055267334 3.72847461700439453 -0.616361260414123535
1.07654500007629395 4.02801752090454102 -0.515953719615936279
-1.27056097984313965 1.89221835136413574 -0.740767180919647217
0.866531193256378174 2.52341127395629883 -0.852811932563781738
0.37700963020324707 4.61719179153442383 -0.529886007308959961
1.22960162162780762 7.12902069091796875 2.36897850036621094
-0.736869335174560547 4.80041074752807617 -0.420044362545013428
-0.332141369581222534 5.0743250846862793 -0.590506076812744141
-1.280059814453125 4.54423427581787109 0.490497887134552002
1.2903892993927002 4.11348772048950195 -0.568891406059265137
0.144684731960296631 3.87413501739501953 -0.66684490442276001
3.21942615509033203 5.10771369934082031 0.737056851387023926
0.997572720050811768 4.22539949417114258 -0.311300754547119141
1.34805083274841309 5.25241899490356445 0.961163163185119629
-0.943118095397949219 3.6226193904876709 -0.537011623382568359
0.840922057628631592 2.54068207740783691 -0.772681593894958496
2.98442840576171875 4.98804187774658203 0.148276567459106445
1.03760671615600586 4.1719517707824707 -0.463332444429397583
0.830291807651519775 2.56225824356079102 -0.803004145622253418
0.843664586544036865 2.54182648658752441 -0.764199793338775635
0.831624388694763184 7.51029634475708008 2.33384847640991211
0.800673484802246094 7.26700544357299805 2.33162593841552734
2.67394304275512695 4.98038148880004883 -0.494950950145721436
-0.247691437602043152 4.087677001953125 -0.70915752649307251
-1.0315098762512207 3.30720114707946777 -0.568608283996582031
-1.00638341903686523 4.73836612701416016 -0.191058605909347534
-0.287395298480987549 4.58741092681884766 -0.48019111156463623
1.10356831550598145 4.02358913421630859 -0.379113197326660156
-1.09585809707641602 5.35829448699951172 0.934974431991577148
-1.01854348182678223 3.33510279655456543 0.270779967308044434
0.847014129161834717 3.85484790802001953 -0.542899012565612793
2.90674543380737305 4.87641334533691406 -0.314805448055267334
2.34066963195800781 4.98122930526733398 -0.676141738891601562
-0.988817334175109863 2.70137500762939453 -0.295885384082794189
-1.0076289176940918 5.07509374618530273 0.00165832042694091797
2.6326146125793457 5.1162261962890625 0.844130277633666992
1.6735999584197998 5.09288454055786133 0.577291131019592285
0.849989116191864014 2.49662470817565918 -0.883407235145568848
-0.0471208952367305756 5.49004316329956055 0.669929325580596924
2.02240657806396484 5.15903282165527344 0.818395614624023438
0.839756369590759277 3.15222406387329102 -0.768863558769226074
1.19029486179351807 4.21979236602783203 -0.486086070537567139
2.94130277633666992 5.11096286773681641 0.417675435543060303
0.990537345409393311 3.9780278205871582 -0.455221176147460938
-0.40116584300994873 5.52948236465454102 0.820175766944885254
0.0419744253158569336 3.66404986381530762 -0.665116429328918457
-1.1043320894241333 3.27809739112854004 -0.21703752875328064
0.829569041728973389 2.42279434204101562 -0.863360047340393066
-1.65652728080749512 5.50666666030883789 0.767767190933227539
-0.927917718887329102 3.25421428680419922 -0.60184025764465332
-0.624413490295410156 4.20756673812866211 -0.517049193382263184
2.93649578094482422 4.81693124771118164 -0.226996570825576782
2.42993497848510742 4.84427070617675781 -0.0646846592426300049
2.65518689155578613 4.94454860687255859 0.0810534358024597168
0.935178041458129883 4.29259967803955078 -0.196876198053359985
