ply
format ascii 1.0
element vertex 256
comment vertices
property float x
property float y
property float z
end_header
-1.09280931949615479 2.47634577751159668 -1.11237251758575439
0.246236860752105713 4.87810564041137695 -0.129178047180175781
1.29478704929351807 3.56590175628662109 -1.14036440849304199
-1.15373742580413818 3.26283001899719238 -1.18885111808776855
1.31244981288909912 4.22730064392089844 -0.00107287615537643433
0.697190344333648682 2.16995406150817871 -1.10557377338409424
-2.27861475944519043 1.55700147151947021 -0.813328325748443604
0.0140869207680225372 2.9006500244140625 -1.17252612113952637
0.565484762191772461 4.34969568252563477 -0.79188072681427002
0.173558041453361511 1.36714577674865723 -1.12655377388000488
-2.22952532768249512 2.53144359588623047 -1.1425020694732666
-1.01938211917877197 3.03545260429382324 -0.807210087776184082
0.729856669902801514 3.78336906433105469 -1.08341169357299805
1.08645641803741455 2.66331982612609863 -1.06679761409759521
-0.0192793868482112885 2.57481145858764648 -1.16245639324188232
0.17431361973285675 4.80109071731567383 -0.639608442783355713
1.74808669090270996 3.49713301658630371 -1.03246891498565674
-0.951074719429016113 2.750396728515625 -1.2448354959487915
0.734075486660003662 3.54736042022705078 -1.12766170501708984
-0.266268134117126465 3.90816569328308105 -1.12200915813446045
-0.0556815415620803833 3.49930500984191895 -0.812614619731903076
-0.0896516069769859314 2.60389566421508789 -1.11871325969696045
1.16667568683624268 2.64068031311035156 -1.10200679302215576
-0.516211032867431641 2.04740309715270996 -1.19716691970825195
0.673309087753295898 2.16992831230163574 -1.10706138610839844
-0.24751618504524231 3.26387882232666016 -1.07804417610168457
0.751656770706176758 3.55907535552978516 -1.09913444519042969
0.950463235378265381 4.10521459579467773 -1.01390910148620605
0.234601736068725586 2.63102006912231445 -1.15068566799163818
-0.0166427996009588242 2.4275057315826416 -1.15220427513122559
-0.681342899799346924 4.34041070938110352 -0.317359954118728638
-2.4090874195098877 1.27889347076416016 -1.04367232322692871
-0.93834388256072998 2.56041955947875977 -0.652355432510375977
0.0837803855538368225 2.75074100494384766 -1.16887366771697998
0.751645922660827637 3.57401609420776367 -1.12666308879852295
0.765506625175476074 4.34735202789306641 -0.439824402332305908
-0.144611865282058716 2.80361676216125488 -1.22348189353942871
-1.89865350723266602 2.47203636169433594 -1.20868289470672607
-1.21914577484130859 3.33387851715087891 -0.916992664337158203
0.19140547513961792 1.39199304580688477 -1.11098873615264893
1.11081349849700928 2.64219117164611816 -1.08019840717315674
-1.12476396560668945 1.68762397766113281 -1.11640918254852295
0.469500958919525146 4.23615121841430664 -0.52654576301574707
-1.11088907718658447 3.55958676338195801 -1.17380392551422119
1.69483542442321777 2.87793970108032227 -0.447441339492797852
0.214339494705200195 1.36779367923736572 -1.11075365543365479
-0.0146237611770629883 2.65698742866516113 -1.12996244430541992
-1.10146760940551758 2.47920608520507812 -1.0644601583480835
-0.142862081527709961 2.5602264404296875 -1.1451338529586792
0.096401214599609375 2.69197607040405273 -1.08102154731750488
0.731914103031158447 3.94699192047119141 -1.08710300922393799
0.855333685874938965 2.67160511016845703 -1.10710418224334717
0.669009089469909668 2.17395544052124023 -1.12268257141113281
1.52999305725097656 3.75041913986206055 -0.738859951496124268
-1.2260897159576416 1.57609796524047852 -1.20490348339080811
0.748244345188140869 3.54393219947814941 -1.10634505748748779
1.13064336776733398 2.63998150825500488 -1.09385156631469727
-0.201059475541114807 3.21088337898254395 -1.16021966934204102
0.766593813896179199 4.4490361213684082 -0.574948370456695557
-0.901810050010681152 4.22394943237304688 -0.423752486705780029
1.69708943367004395 4.14680099487304688 -1.04427778720855713
0.407007277011871338 4.75695610046386719 -0.43518829345703125
-1.83679342269897461 3.10969805717468262 -0.929522514343261719
1.09593939781188965 2.63989782333374023 -1.08076107501983643
0.403840184211730957 3.4020230770111084 -1.03531980514526367
0.761120080947875977 3.54534363746643066 -1.11893367767333984
-1.01880526542663574 3.16160845756530762 -0.695947110652923584
-0.656402051448822021 1.86862850189208984 -1.15194177627563477
-0.341492682695388794 2.01137757301330566 -1.19395816326141357
-1.10965335369110107 2.4719851016998291 -1.12345445156097412
0.00615311600267887115 2.42562770843505859 -1.17932844161987305
0.086207464337348938 2.57649803161621094 -1.15647375583648682
0.152593493461608887 2.78421115875244141 -1.17117226123809814
1.1199263334274292 4.31827688217163086 -0.815561413764953613
1.08770382404327393 3.00270223617553711 -1.1615900993347168
0.753098070621490479 3.55952239036560059 -1.10264480113983154
-0.765479922294616699 3.36763238906860352 -1.13305175304412842
-0.985639452934265137 4.19060945510864258 -1.08222746849060059
-0.858502030372619629 2.60902142524719238 -1.15525698661804199
-0.188291698694229126 2.48958468437194824 -1.3914177417755127
-0.236336052417755127 2.29298782348632812 -1.19050586223602295
-0.391328901052474976 4.75301694869995117 -0.159904852509498596
0.811119496822357178 4.58507108688354492 -0.367608606815338135
-0.295184910297393799 3.92793560028076172 -1.12635123729705811
-1.93919634819030762 -0.685413599014282227 -1.12123274803161621
0.759524881839752197 3.54604935646057129 -1.09742832183837891
-1.02285909652709961 3.4526207447052002 -1.20834910869598389
-0.942350447177886963 3.18738746643066406 -0.806109786033630371
0.85705411434173584 4.73781538009643555 0.115438848733901978
0.112686604261398315 2.60241174697875977 -1.23132669925689697
0.0276389922946691513 2.53642487525939941 -1.18675291538238525
1.08801674842834473 4.30972814559936523 -1.00649571418762207
-1.41256189346313477 3.41699600219726562 -1.14486193656921387
-0.146070897579193115 2.13472771644592285 -1.18477869033813477
-0.953444063663482666 1.20225000381469727 -1.09427142143249512
0.777850449085235596 2.8832094669342041 -1.09878802299499512
-0.515999555587768555 1.88352072238922119 -1.21470868587493896
0.990616917610168457 4.10062646865844727 -0.99678349494934082
0.0881020873785018921 2.58526444435119629 -1.15562987327575684
-1.10877060890197754 2.47572565078735352 -1.13049864768981934
0.671590328216552734 2.16980147361755371 -1.10436773300170898
-1.09665083885192871 3.01756477355957031 -0.75952613353729248
0.662332713603973389 2.20364785194396973 -1.10243117809295654
0.244897201657295227 2.6759026050567627 -1.11842119693756104
1.89803743362426758 1.11189818382263184 -1.10764181613922119
1.45351672172546387 2.90194177627563477 -1.15539824962615967
-0.00650206208229064941 2.74152135848999023 -1.16035878658294678
-0.751162827014923096 2.38988471031188965 -1.21753501892089844
1.76666927337646484 1.67205321788787842 -0.856195449829101562
0.984685897827148438 4.32872676849365234 -0.578772008419036865
-0.216968715190887451 2.3830265998840332 -1.18439900875091553
-1.09423434734344482 2.47582507133483887 -1.07478904724121094
-0.133127272129058838 3.15021491050720215 -1.15166425704956055
1.13346576690673828 2.63525009155273438 -1.0970454216003418
-0.413402974605560303 1.83106684684753418 -1.32475638389587402
0.001743316650390625 2.68179130554199219 -1.15555751323699951
0.0327019058167934418 2.57915687561035156 -1.15502619743347168
0.403201669454574585 2.03069949150085449 -1.25950050354003906
-1.60157918930053711 2.26701450347900391 -1.1442941427230835
0.634408771991729736 2.14585041999816895 -1.08047795295715332
-1.74197220802307129 3.94962000846862793 -1.18407046794891357
-0.240738570690155029 1.11515593528747559 -1.33871936798095703
-1.85843896865844727 4.18349075317382812 -0.944339513778686523
-0.295323878526687622 3.90549778938293457 -1.11149561405181885
1.48776078224182129 3.66089916229248047 -0.455287575721740723
0.207288533449172974 1.34621751308441162 -1.12360048294067383
1.03868043422698975 4.08952188491821289 -1.04118728637695312
1.51406514644622803 3.78794479370117188 -0.658214569091796875
0.212565034627914429 1.35218322277069092 -1.13468015193939209
-0.479179859161376953 3.05585718154907227 -1.3125154972076416
0.546990454196929932 4.53579521179199219 -0.824698269367218018
0.41110578179359436 4.67664241790771484 -0.233514577150344849
0.339256614446640015 4.60475635528564453 -0.588892638683319092
1.94656693935394287 2.09246635437011719 -1.09207260608673096
0.71493840217590332 3.65463852882385254 -1.14745283126831055
1.2925264835357666 4.32362842559814453 0.150856196880340576
0.675819754600524902 2.16890764236450195 -1.0934607982635498
0.673185288906097412 2.20035743713378906 -1.12516963481903076
0.0869363248348236084 2.60196852684020996 -1.16532742977142334
0.527274012565612793 2.82970547676086426 -1.09118163585662842
-0.64407116174697876 2.91162610054016113 -1.11083877086639404
-1.2346724271774292 2.96344232559204102 -1.0462268590927124
-1.72462964057922363 4.07716655731201172 -1.11690723896026611
0.241066232323646545 2.9763340950012207 -1.12413275241851807
0.76535797119140625 3.53595733642578125 -1.1020057201385498
1.09572207927703857 2.68030571937561035 -1.10506701469421387
-0.479626715183258057 1.9982597827911377 -1.2139885425567627
0.20431111752986908 1.36335849761962891 -1.102103590965271
0.0937240570783615112 2.71123647689819336 -1.16010773181915283
-0.347611844539642334 2.042266845703125 -1.2126849889755249
0.0100168026983737946 2.78630256652832031 -1.16883492469787598
-0.275367259979248047 3.17703723907470703 -0.941267430782318115
-0.282151281833648682 3.90706896781921387 -1.09755551815032959
1.10638892650604248 2.63932633399963379 -1.06479883193969727
1.50957167148590088 2.9659268856048584 -1.12260925769805908
0.719211459159851074 3.56387543678283691 -1.10036754608154297
0.67264866828918457 2.19530725479125977 -1.09911990165710449
0.676794350147247314 2.16945505142211914 -1.1141897439956665
1.23982083797454834 3.29593276977539062 -1.13772916793823242
-0.707864761352539062 3.84155869483947754 -1.18977701663970947
0.904432535171508789 4.24261617660522461 -0.36053466796875
-0.708417952060699463 3.65302705764770508 -0.619496345520019531
-1.59007596969604492 2.49845242500305176 -1.0807267427444458
0.301559388637542725 2.68506455421447754 -1.26739621162414551
0.198229536414146423 1.43641507625579834 -1.10654377937316895
2.03464484214782715 3.23215818405151367 -0.549650251865386963
0.783451080322265625 4.54461526870727539 -0.395464599132537842
-1.118133544921875 2.44896245002746582 -1.12591743469238281
0.415495812892913818 3.60791921615600586 -1.11887276172637939
-1.62414097785949707 1.9595102071762085 -1.24074649810791016
1.33648812770843506 3.54456973075866699 -1.09071600437164307
-2.10628747940063477 0.991111516952514648 -1.05164647102355957
1.10443210601806641 2.62919020652770996 -1.07568061351776123
0.404568403959274292 3.5830230712890625 -1.12507891654968262
-0.331718027591705322 2.21274995803833008 -1.18146610260009766
0.735543906688690186 2.23877048492431641 -1.10144197940826416
-1.13267135620117188 3.73668789863586426 -0.691663384437561035
-1.83334255218505859 2.41898226737976074 -1.25158452987670898
-0.267868131399154663 2.47267866134643555 -1.15798413753509521
0.676708519458770752 2.17003417015075684 -1.11066555976867676
1.1172482967376709 2.68051505088806152 -1.08578753471374512
-1.12957358360290527 3.29019570350646973 -1.13316059112548828
0.965386867523193359 3.9648902416229248 -0.394853889942169189
0.862400531768798828 4.42332649230957031 -0.434867888689041138
0.627939224243164062 3.88894748687744141 -1.1623382568359375
-1.22124576568603516 3.07268857955932617 -0.605625569820404053
-0.917824268341064453 3.73583078384399414 -1.16270482540130615
-0.255521178245544434 4.12374258041381836 -0.795231044292449951
0.186699852347373962 3.78971076011657715 -0.826524019241333008
-0.221235543489456177 3.39569592475891113 -1.06564867496490479
-1.35912954807281494 3.36384296417236328 -0.987725019454956055
0.221121251583099365 3.31013345718383789 -1.19749879837036133
0.206389084458351135 1.34586226940155029 -1.12658226490020752
1.21933591365814209 4.38910579681396484 -0.991369366645812988
-1.19511675834655762 3.4979248046875 -0.716282665729522705
0.73438417911529541 3.72464394569396973 -1.07615745067596436
1.11843085289001465 2.62861275672912598 -1.07923614978790283
0.0373345129191875458 2.60494041442871094 -1.16409623622894287
-1.17220616340637207 3.26551938056945801 -1.18539571762084961
-1.47171235084533691 2.96190309524536133 -0.867992818355560303
-2.2425529956817627 1.71886098384857178 -0.989415287971496582
-1.01714801788330078 3.18534326553344727 -0.852845907211303711
1.27678120136260986 4.20749998092651367 -0.0488269180059432983
2.59095573425292969 3.82798886299133301 -1.12459456920623779
-0.47418859601020813 2.12987422943115234 -1.18293190002441406
-1.02528607845306396 3.3644564151763916 -0.570112287998199463
0.67377549409866333 2.17692971229553223 -1.10827779769897461
0.591611862182617188 4.41427707672119141 -0.328378170728683472
0.130445584654808044 2.78536081314086914 -1.1808847188949585
-0.651108980178833008 3.10475039482116699 -1.09678232669830322
-0.722362637519836426 3.45946145057678223 -0.615468382835388184
-0.476285010576248169 2.06317853927612305 -1.16629457473754883
0.645516276359558105 4.28382492065429688 -0.970054864883422852
-1.08999598026275635 2.48350977897644043 -1.11035454273223877
-0.287201017141342163 2.04036235809326172 -1.21420407295227051
-0.122738197445869446 2.38131451606750488 -1.15063536167144775
-0.00815514475107192993 2.5771639347076416 -1.17781603336334229
-0.260366916656494141 2.20526361465454102 -1.21206581592559814
0.90643608570098877 4.76608896255493164 -0.631683707237243652
0.184195607900619507 1.39703333377838135 -1.11706948280334473
1.04833841323852539 3.84848380088806152 -0.52372366189956665
-1.99355864524841309 2.27399849891662598 -0.801517784595489502
0.758532941341400146 3.54601216316223145 -1.10487782955169678
-1.10418319702148438 1.7485194206237793 -0.92304682731628418
0.546247005462646484 3.66495442390441895 -1.03667402267456055
-0.473500192165374756 1.9362257719039917 -1.20770466327667236
1.08643817901611328 2.65755796432495117 -1.06554162502288818
0.757676184177398682 3.54748988151550293 -1.11212003231048584
0.937963664531707764 3.64471554756164551 -1.0861213207244873
0.779220104217529297 2.5771784782409668 -1.04171609878540039
-1.81606459617614746 4.06326866149902344 -0.905981838703155518
0.060099676251411438 2.67510533332824707 -1.15812039375305176
-1.10203993320465088 3.67463469505310059 -1.10907542705535889
0.0560911074280738831 2.68007254600524902 -1.16694653034210205
-0.116998232901096344 2.40950989723205566 -1.18177711963653564
0.679767131805419922 3.81602025032043457 -0.755436062812805176
1.11991715431213379 2.63122296333312988 -1.07143378257751465
0.840575098991394043 4.06520462036132812 -1.0393834114074707
1.01814103126525879 4.11089229583740234 -1.01842355728149414
-0.280896604061126709 3.90474939346313477 -1.1065516471862793
0.748901724815368652 3.55859780311584473 -1.10633742809295654
-0.284481316804885864 3.92230796813964844 -1.12356460094451904
-0.402721136808395386 4.00645971298217773 -0.451264917850494385
-1.10541582107543945 2.47688388824462891 -1.10561907291412354
-1.74389731884002686 2.02869749069213867 -0.725925803184509277
0.988792538642883301 4.16942214965820312 -1.00018000602722168
-0.268600195646286011 2.15784573554992676 -1.20429205894470215
0.645676493644714355 4.52822780609130859 -0.458299547433853149
-0.0136646032333374023 2.66444611549377441 -1.14692139625549316
-0.137879818677902222 2.25193142890930176 -1.19898092746734619
0.103272676467895508 2.95235490798950195 -1.30013597011566162
-1.51778888702392578 2.84925389289855957 -1.21111094951629639
0.665055036544799805 3.75720596313476562 -1.20206522941589355
0.0440113060176372528 3.0218207836151123 -1.16720545291900635
0.0489360243082046509 2.71169042587280273 -1.16296863555908203
-0.22906339168548584 2.77972984313964844 -1.1878664493560791
