ply
format ascii 1.0
element vertex 116
comment vertices
property float x
property float y
property float z
end_header
-1.09280931949615479 2.47634577751159668 -1.11237251758575439
0.697190344333648682 2.16995406150817871 -1.10557377338409424
0.0140869207680225372 2.9006500244140625 -1.17252612113952637
0.173558041453361511 1.36714577674865723 -1.12655377388000488
1.08645641803741455 2.66331982612609863 -1.06679761409759521
-0.0192793868482112885 2.57481145858764648 -1.16245639324188232
0.734075486660003662 3.54736042022705078 -1.12766170501708984
-0.266268134117126465 3.90816569328308105 -1.12200915813446045
-0.0896516069769859314 2.60389566421508789 -1.11871325969696045
1.16667568683624268 2.64068031311035156 -1.10200679302215576
-0.516211032867431641 2.04740309715270996 -1.19716691970825195
0.673309087753295898 2.16992831230163574 -1.10706138610839844
0.751656770706176758 3.55907535552978516 -1.09913444519042969
0.234601736068725586 2.63102006912231445 -1.15068566799163818
-0.0166427996009588242 2.4275057315826416 -1.15220427513122559
0.0837803855538368225 2.75074100494384766 -1.16887366771697998
0.751645922660827637 3.57401609420776367 -1.12666308879852295
0.19140547513961792 1.39199304580688477 -1.11098873615264893
1.11081349849700928 2.64219117164611816 -1.08019840717315674
0.214339494705200195 1.36779367923736572 -1.11075365543365479
-0.0146237611770629883 2.65698742866516113 -1.12996244430541992
-1.10146760940551758 2.47920608520507812 -1.0644601583480835
-0.142862081527709961 2.5602264404296875 -1.1451338529586792
0.855333685874938965 2.67160511016845703 -1.10710418224334717
0.669009089469909668 2.17395544052124023 -1.12268257141113281
0.748244345188140869 3.54393219947814941 -1.10634505748748779
1.13064336776733398 2.63998150825500488 -1.09385156631469727
-0.201059475541114807 3.21088337898254395 -1.16021966934204102
1.09593939781188965 2.63989782333374023 -1.08076107501983643
0.761120080947875977 3.54534363746643066 -1.11893367767333984
-0.656402051448822021 1.86862850189208984 -1.15194177627563477
-0.341492682695388794 2.01137757301330566 -1.19395816326141357
-1.10965335369110107 2.4719851016998291 -1.12345445156097412
0.00615311600267887115 2.42562770843505859 -1.17932844161987305
0.086207464337348938 2.57649803161621094 -1.15647375583648682
0.152593493461608887 2.78421115875244141 -1.17117226123809814
0.753098070621490479 3.55952239036560059 -1.10264480113983154
-0.858502030372619629 2.60902142524719238 -1.15525698661804199
-0.236336052417755127 2.29298782348632812 -1.19050586223602295
-0.295184910297393799 3.92793560028076172 -1.12635123729705811
0.759524881839752197 3.54604935646057129 -1.09742832183837891
0.0276389922946691513 2.53642487525939941 -1.18675291538238525
-0.146070897579193115 2.13472771644592285 -1.18477869033813477
0.777850449085235596 2.8832094669342041 -1.09878802299499512
-0.515999555587768555 1.88352072238922119 -1.21470868587493896
0.0881020873785018921 2.58526444435119629 -1.15562987327575684
-1.10877060890197754 2.47572565078735352 -1.13049864768981934
0.671590328216552734 2.16980147361755371 -1.10436773300170898
0.662332713603973389 2.20364785194396973 -1.10243117809295654
0.244897201657295227 2.6759026050567627 -1.11842119693756104
-0.00650206208229064941 2.74152135848999023 -1.16035878658294678
-0.216968715190887451 2.3830265998840332 -1.18439900875091553
-1.09423434734344482 2.47582507133483887 -1.07478904724121094
-0.133127272129058838 3.15021491050720215 -1.15166425704956055
1.13346576690673828 2.63525009155273438 -1.0970454216003418
0.001743316650390625 2.68179130554199219 -1.15555751323699951
0.0327019058167934418 2.57915687561035156 -1.15502619743347168
0.634408771991729736 2.14585041999816895 -1.08047795295715332
-0.295323878526687622 3.90549778938293457 -1.11149561405181885
0.207288533449172974 1.34621751308441162 -1.12360048294067383
0.212565034627914429 1.35218322277069092 -1.13468015193939209
0.675819754600524902 2.16890764236450195 -1.0934607982635498
0.673185288906097412 2.20035743713378906 -1.12516963481903076
0.0869363248348236084 2.60196852684020996 -1.16532742977142334
0.527274012565612793 2.82970547676086426 -1.09118163585662842
0.241066232323646545 2.9763340950012207 -1.12413275241851807
0.76535797119140625 3.53595733642578125 -1.1020057201385498
1.09572207927703857 2.68030571937561035 -1.10506701469421387
-0.479626715183258057 1.9982597827911377 -1.2139885425567627
0.20431111752986908 1.36335849761962891 -1.102103590965271
0.0937240570783615112 2.71123647689819336 -1.16010773181915283
-0.347611844539642334 2.042266845703125 -1.2126849889755249
0.0100168026983737946 2.78630256652832031 -1.16883492469787598
-0.282151281833648682 3.90706896781921387 -1.09755551815032959
1.10638892650604248 2.63932633399963379 -1.06479883193969727
0.719211459159851074 3.56387543678283691 -1.10036754608154297
0.67264866828918457 2.19530725479125977 -1.09911990165710449
0.676794350147247314 2.16945505142211914 -1.1141897439956665
0.198229536414146423 1.43641507625579834 -1.10654377937316895
-1.118133544921875 2.44896245002746582 -1.12591743469238281
1.10443210601806641 2.62919020652770996 -1.07568061351776123
-0.331718027591705322 2.21274995803833008 -1.18146610260009766
0.735543906688690186 2.23877048492431641 -1.10144197940826416
-0.267868131399154663 2.47267866134643555 -1.15798413753509521
0.676708519458770752 2.17003417015075684 -1.11066555976867676
1.1172482967376709 2.68051505088806152 -1.08578753471374512
0.206389084458351135 1.34586226940155029 -1.12658226490020752
1.11843085289001465 2.62861275672912598 -1.07923614978790283
0.0373345129191875458 2.60494041442871094 -1.16409623622894287
-0.47418859601020813 2.12987422943115234 -1.18293190002441406
0.67377549409866333 2.17692971229553223 -1.10827779769897461
0.130445584654808044 2.78536081314086914 -1.1808847188949585
-0.476285010576248169 2.06317853927612305 -1.16629457473754883
-1.08999598026275635 2.48350977897644043 -1.11035454273223877
-0.287201017141342163 2.04036235809326172 -1.21420407295227051
-0.122738197445869446 2.38131451606750488 -1.15063536167144775
-0.00815514475107192993 2.5771639347076416 -1.17781603336334229
-0.260366916656494141 2.20526361465454102 -1.21206581592559814
0.184195607900619507 1.39703333377838135 -1.11706948280334473
0.758532941341400146 3.54601216316223145 -1.10487782955169678
-0.473500192165374756 1.9362257719039917 -1.20770466327667236
1.08643817901611328 2.65755796432495117 -1.06554162502288818
0.757676184177398682 3.54748988151550293 -1.11212003231048584
0.060099676251411438 2.67510533332824707 -1.15812039375305176
0.0560911074280738831 2.68007254600524902 -1.16694653034210205
-0.116998232901096344 2.40950989723205566 -1.18177711963653564
1.11991715431213379 2.63122296333312988 -1.07143378257751465
-0.280896604061126709 3.90474939346313477 -1.1065516471862793
0.748901724815368652 3.55859780311584473 -1.10633742809295654
-0.284481316804885864 3.92230796813964844 -1.12356460094451904
-1.10541582107543945 2.47688388824462891 -1.10561907291412354
-0.268600195646286011 2.15784573554992676 -1.20429205894470215
-0.0136646032333374023 2.66444611549377441 -1.14692139625549316
-0.137879818677902222 2.25193142890930176 -1.19898092746734619
0.0440113060176372528 3.0218207836151123 -1.16720545291900635
0.0489360243082046509 2.71169042587280273 -1.16296863555908203
