ply
format ascii 1.0
element vertex 256
comment vertices
property float x
property float y
property float z
end_header
-1.027671217918396 2.40544652938842773 -1.10687017440795898
0.0342418178915977478 5.03876304626464844 -0.335902929306030273
1.32348537445068359 3.5420839786529541 -1.15762054920196533
-1.11734330654144287 3.78624653816223145 -1.19075119495391846
1.26230192184448242 4.2676091194152832 -0.124749302864074707
0.746443033218383789 2.1408696174621582 -1.10381054878234863
-1.87285828590393066 3.1365211009979248 -0.44789731502532959
-0.0420381426811218262 2.92799901962280273 -1.18529903888702393
0.454958736896514893 4.62094449996948242 -0.694957077503204346
0.0501966178417205811 1.3953787088394165 -1.15143728256225586
-1.76451194286346436 2.67569112777709961 -1.1428680419921875
-1.14345908164978027 4.22467899322509766 -0.622709751129150391
0.59593808650970459 4.2498774528503418 -0.805851161479949951
1.07462859153747559 2.70347499847412109 -1.04099273681640625
-0.0719772875308990479 2.62726807594299316 -1.17809820175170898
0.237822055816650391 4.70614242553710938 -0.6103668212890625
1.43102562427520752 3.77596831321716309 -0.981617927551269531
-1.06679081916809082 3.16724777221679688 -1.21510124206542969
0.616174280643463135 3.34026765823364258 -1.23251807689666748
-0.352032124996185303 3.93096303939819336 -1.08778202533721924
-0.271850049495697021 4.62511301040649414 -0.445837438106536865
-0.141414523124694824 2.62962746620178223 -1.1231834888458252
1.32285451889038086 2.77405762672424316 -1.16535854339599609
-0.406075030565261841 2.12616705894470215 -1.2256244421005249
0.680022895336151123 2.20218610763549805 -1.10782241821289062
-0.520081162452697754 4.1918635368347168 -0.939097285270690918
0.774866819381713867 3.49694180488586426 -1.08428192138671875
0.716782510280609131 4.30070400238037109 -0.764257431030273438
0.31299746036529541 2.61332058906555176 -1.23506486415863037
-0.0222344249486923218 2.40722012519836426 -1.1817624568939209
-0.772266745567321777 4.74177932739257812 -0.318580001592636108
-1.93775057792663574 2.78526043891906738 -0.73889005184173584
-1.28065943717956543 3.86948060989379883 -0.403373867273330688
0.088274836540222168 2.81929278373718262 -1.17155838012695312
0.83279043436050415 3.83664131164550781 -1.00805199146270752
0.590543925762176514 4.70775699615478516 -0.506212949752807617
0.164559066295623779 4.34415340423583984 -0.695503950119018555
-1.35382342338562012 3.38348293304443359 -1.05674242973327637
-1.0367351770401001 4.1467747688293457 -0.784824848175048828
0.1760520339012146 1.50241541862487793 -1.12355589866638184
1.11625432968139648 2.66933226585388184 -1.06594979763031006
-1.3145679235458374 3.58722209930419922 -0.668084621429443359
0.0745407938957214355 4.65345430374145508 -0.399652630090713501
-1.12701606750488281 3.74726343154907227 -1.17329525947570801
0.885250329971313477 4.30381059646606445 -0.24343407154083252
0.23409976065158844 1.4391627311706543 -1.09453868865966797
-0.100593388080596924 2.71632838249206543 -1.10783493518829346
-1.07121682167053223 2.5361626148223877 -1.02939343452453613
-0.202025502920150757 2.58243846893310547 -1.17851710319519043
-0.510858535766601562 4.36276865005493164 -0.576561570167541504
0.864813387393951416 4.08304166793823242 -0.993185698986053467
0.717980384826660156 2.64957070350646973 -1.18334674835205078
0.667095005512237549 2.24305343627929688 -1.15876340866088867
1.1803901195526123 4.10641098022460938 -0.574633657932281494
-1.26350259780883789 2.86458277702331543 -1.03119826316833496
0.729942023754119873 3.32845401763916016 -1.14139962196350098
1.11561155319213867 2.49883604049682617 -1.11655151844024658
-0.138218820095062256 3.2389521598815918 -1.14666974544525146
0.630010128021240234 4.59805488586425781 -0.610022246837615967
-0.874478459358215332 4.71750259399414062 -0.447266280651092529
1.35558867454528809 4.21213436126708984 -0.945219695568084717
0.344289690256118774 4.83765077590942383 -0.499655961990356445
-1.33916151523590088 4.1168975830078125 -0.73201519250869751
1.07780420780181885 2.64674901962280273 -1.06303608417510986
0.788456201553344727 3.84109187126159668 -0.856998443603515625
0.70565563440322876 3.56060504913330078 -1.10433065891265869
-1.10976874828338623 4.19803094863891602 -0.461375534534454346
-0.470388710498809814 2.0029151439666748 -1.15729713439941406
-0.280540317296981812 2.05236339569091797 -1.20632767677307129
-1.12131762504577637 2.43126583099365234 -1.13065016269683838
0.0289314985275268555 2.39198613166809082 -1.22836005687713623
0.135433971881866455 2.58114147186279297 -1.17679786682128906
0.220353066921234131 2.86031794548034668 -1.12911796569824219
0.914711296558380127 4.37078952789306641 -0.647748768329620361
0.635230422019958496 4.24756002426147461 -0.688161671161651611
0.703483760356903076 3.46108675003051758 -1.10957789421081543
-0.966170907020568848 4.03917837142944336 -0.890026330947875977
-0.726195991039276123 4.32970190048217773 -0.992592871189117432
-0.760092079639434814 2.6662595272064209 -1.16357183456420898
0.165788829326629639 4.2679753303527832 -0.858573734760284424
-0.250664949417114258 2.34445953369140625 -1.20032656192779541
-0.588456869125366211 4.95477819442749023 -0.334133625030517578
0.815435945987701416 4.7624053955078125 -0.497068226337432861
-0.295235991477966309 3.91585183143615723 -1.12038731575012207
-2.01953721046447754 2.53961181640625 -0.585773229598999023
0.770516574382781982 3.5749049186706543 -1.08846473693847656
-0.91399461030960083 4.02208328247070312 -1.16285836696624756
-0.981338739395141602 4.32566976547241211 -0.594362139701843262
0.659496903419494629 4.91746854782104492 -0.0956553518772125244
0.189611613750457764 4.2701106071472168 -0.63339078426361084
0.043425828218460083 2.51937985420227051 -1.22291707992553711
1.09793353080749512 4.34466552734375 -0.932912647724151611
-1.27153146266937256 3.64887404441833496 -1.03550946712493896
-0.134302005171775818 2.11600637435913086 -1.20298290252685547
-1.60807275772094727 3.5182952880859375 -0.504763364791870117
0.800251126289367676 2.95445060729980469 -1.15778088569641113
-0.389725834131240845 1.98416924476623535 -1.25267481803894043
0.73633420467376709 4.32332849502563477 -0.755567193031311035
0.141827583312988281 2.59482860565185547 -1.17184710502624512
-1.09517383575439453 2.48877310752868652 -1.15911459922790527
0.673551440238952637 2.20817780494689941 -1.09949970245361328
-1.14191281795501709 4.06789493560791016 -0.563217461109161377
0.572788596153259277 2.37572383880615234 -1.15143024921417236
0.341122567653656006 2.67954468727111816 -1.13596427440643311
1.27152729034423828 3.61067724227905273 -0.601584851741790771
0.917754650115966797 4.00200557708740234 -0.661771774291992188
-0.0769177377223968506 2.81167197227478027 -1.15304446220397949
-1.02306234836578369 3.27622032165527344 -0.955448627471923828
1.31718862056732178 3.58622026443481445 -0.375802099704742432
0.568340063095092773 4.66060018539428711 -0.582626581192016602
-0.250464200973510742 2.42512798309326172 -1.20520901679992676
-1.06035995483398438 2.43989133834838867 -1.04741549491882324
-0.0809899792075157166 3.18445682525634766 -1.137306809425354
1.17240333557128906 2.66945385932922363 -1.09414255619049072
-1.02496170997619629 2.98230624198913574 -1.18447768688201904
-0.0554937273263931274 2.74990653991699219 -1.15654003620147705
-0.0075740814208984375 2.62152314186096191 -1.1592947244644165
0.387133002281188965 4.10114765167236328 -0.692753076553344727
-1.35774660110473633 3.58758950233459473 -0.834901750087738037
0.504734814167022705 2.0418856143951416 -1.10114383697509766
-1.32561290264129639 4.04352617263793945 -1.10480916500091553
0.162011265754699707 4.00982666015625 -0.711527645587921143
-1.31020796298980713 4.29316043853759766 -0.791941285133361816
-0.363454520702362061 3.8900301456451416 -1.17338371276855469
0.916154801845550537 4.58268880844116211 -0.403944432735443115
0.173021227121353149 1.35920250415802002 -1.10201358795166016
1.06748116016387939 4.15849113464355469 -0.970736980438232422
0.907871901988983154 4.48540067672729492 -0.550503849983215332
0.227272599935531616 1.4109032154083252 -1.13043618202209473
0.0577527284622192383 4.35754251480102539 -0.805303812026977539
0.451839238405227661 4.6774592399597168 -0.735159158706665039
-0.00283958762884140015 4.82101249694824219 -0.280389755964279175
0.273603886365890503 4.67173624038696289 -0.606899738311767578
1.0744699239730835 3.83847355842590332 -0.538555026054382324
0.921305060386657715 3.8877570629119873 -1.09763896465301514
1.27340936660766602 4.19141244888305664 0.0946979522705078125
0.685280144214630127 2.23911070823669434 -1.07469689846038818
0.592099487781524658 2.30146002769470215 -1.18961763381958008
0.157888010144233704 2.61114025115966797 -1.19330394268035889
0.557344377040863037 2.81260538101196289 -1.13782346248626709
-0.634366989135742188 4.12168502807617188 -0.892703413963317871
-1.08122539520263672 4.30857133865356445 -0.767065525054931641
-1.26104176044464111 4.19153738021850586 -1.03377008438110352
0.289913475513458252 3.01485252380371094 -1.08015096187591553
0.732304990291595459 3.58309793472290039 -1.12664306163787842
1.02356243133544922 2.71913433074951172 -1.13755559921264648
-0.389111191034317017 2.08113622665405273 -1.24833619594573975
0.204421773552894592 1.41872644424438477 -1.07148087024688721
0.121603228151798248 2.74520468711853027 -1.13100087642669678
-0.284880489110946655 2.09718942642211914 -1.23730039596557617
-0.0391336008906364441 2.87524151802062988 -1.16654586791992188
-0.607050418853759766 4.39729404449462891 -0.544012904167175293
-0.317371517419815063 3.91205263137817383 -1.14260661602020264
1.10913693904876709 2.65717625617980957 -1.0331960916519165
1.3670649528503418 3.07459068298339844 -1.17602634429931641
0.838199079036712646 3.65103292465209961 -0.853262007236480713
0.46631234884262085 2.37218403816223145 -1.1559450626373291
0.692014873027801514 2.21544027328491211 -1.13352978229522705
1.27652192115783691 3.28682804107666016 -1.16711890697479248
-0.252677232027053833 4.6309819221496582 -0.88159477710723877
0.70022350549697876 4.69370174407958984 -0.43969234824180603
-0.890058398246765137 4.47343158721923828 -0.484005600214004517
-1.53622853755950928 2.72783374786376953 -0.96847987174987793
0.470972359180450439 4.16542816162109375 -0.729759335517883301
0.192035242915153503 1.60836529731750488 -1.15146124362945557
1.49317800998687744 3.7927243709564209 -0.417676001787185669
0.767831981182098389 4.7681279182434082 -0.521610081195831299
-1.09804642200469971 2.34185910224914551 -1.13293468952178955
0.826241016387939453 3.91390800476074219 -1.00797367095947266
-1.40393781661987305 2.8477632999420166 -1.16211354732513428
1.30321359634399414 3.71415281295776367 -1.08906698226928711
-1.87108993530273438 2.92011737823486328 -0.54199594259262085
0.944313526153564453 2.44488024711608887 -1.16428303718566895
0.817456305027008057 3.95640945434570312 -1.0136873722076416
-0.300043165683746338 2.26145648956298828 -1.17588067054748535
0.911387205123901367 2.37835192680358887 -1.15450024604797363
-1.06301975250244141 4.58794641494750977 -0.566697597503662109
-1.34714365005493164 3.41325044631958008 -1.1019291877746582
-0.274995535612106323 2.49508905410766602 -1.14370179176330566
0.690352439880371094 2.23366713523864746 -1.12471890449523926
0.998397529125213623 2.64216375350952148 -1.08423638343811035
-1.14228129386901855 3.6902310848236084 -0.928828597068786621
0.71310347318649292 4.53970623016357422 -0.356467187404632568
0.773578107357025146 4.59914112091064453 -0.504401326179504395
0.748827576637268066 4.20288181304931641 -0.966302037239074707
-1.26174342632293701 4.00986623764038086 -0.428835868835449219
-0.7862204909324646 4.13286352157592773 -1.10821378231048584
-0.107449859380722046 4.67521572113037109 -0.571295738220214844
-0.0105031728744506836 4.53141593933105469 -0.509887576103210449
0.101800739765167236 4.45434665679931641 -0.566786050796508789
-1.03525590896606445 4.49561882019042969 -0.735986053943634033
0.445334255695343018 4.30001974105834961 -0.773472070693969727
0.197867661714553833 1.38129103183746338 -1.10881924629211426
1.16946077346801758 4.32903623580932617 -0.920154750347137451
-1.08952057361602783 4.54881095886230469 -0.55402076244354248
0.610712051391601562 4.22638082504272461 -0.794790565967559814
1.13253772258758545 2.60842227935791016 -1.06513595581054688
-0.00429749488830566406 2.64127421379089355 -1.19039297103881836
-1.13180148601531982 3.68718385696411133 -1.13046836853027344
-1.38180422782897949 3.76016688346862793 -0.639799118041992188
-1.8675687313079834 2.90788650512695312 -0.658605456352233887
-1.07578229904174805 4.17979145050048828 -0.676741361618041992
1.20195591449737549 4.25159120559692383 -0.177645862102508545
1.61663591861724854 4.17666721343994141 -0.988238990306854248
-0.370942354202270508 2.17034125328063965 -1.20144760608673096
-1.06900918483734131 4.25872802734375 -0.39738774299621582
0.66349637508392334 2.18020057678222656 -1.1054232120513916
0.390557646751403809 4.669769287109375 -0.334031462669372559
0.191159725189208984 2.85985589027404785 -1.18931698799133301
-1.00882148742675781 3.78673696517944336 -0.78313755989074707
-0.965227305889129639 4.47308826446533203 -0.442282378673553467
-0.375157475471496582 2.13960409164428711 -1.16573131084442139
0.547961652278900146 4.52988529205322266 -0.755016803741455078
-1.02660524845123291 2.50263643264770508 -1.11995267868041992
-0.227001592516899109 2.05604457855224609 -1.24321663379669189
-0.131451427936553955 2.37950801849365234 -1.15326690673828125
-0.0507341921329498291 2.61805057525634766 -1.22243058681488037
-0.233296334743499756 2.2240602970123291 -1.22630405426025391
0.608573377132415771 4.7827448844909668 -0.513716816902160645
0.150414466857910156 1.5075376033782959 -1.14203345775604248
0.731937170028686523 4.53973245620727539 -0.479072809219360352
-1.79163026809692383 3.4619591236114502 -0.505819201469421387
0.757967531681060791 3.57586503028869629 -1.14308404922485352
-1.45758497714996338 3.5888216495513916 -0.438836097717285156
0.372836530208587646 4.45886993408203125 -0.673819780349731445
-0.374413013458251953 2.01963949203491211 -1.23512518405914307
1.07290244102478027 2.68681144714355469 -1.03453445434570312
0.727204442024230957 3.55579447746276855 -1.10118794441223145
0.992750108242034912 3.85717320442199707 -0.983046114444732666
0.813887238502502441 3.71240735054016113 -0.744390785694122314
-1.1670076847076416 4.78444147109985352 -0.550132870674133301
0.0719276964664459229 2.69032168388366699 -1.15322208404541016
-1.08373117446899414 3.82059407234191895 -0.967104315757751465
0.0682674646377563477 2.69362330436706543 -1.17469000816345215
-0.151845484972000122 2.4190976619720459 -1.20263576507568359
0.555056452751159668 4.41675329208374023 -0.579738259315490723
1.14148426055908203 2.64594697952270508 -1.03623473644256592
0.851949751377105713 4.20621061325073242 -0.891498029232025146
1.00817525386810303 4.19488954544067383 -0.928513169288635254
-0.290431827306747437 3.87396407127380371 -1.1489100456237793
0.722606956958770752 3.41932082176208496 -1.12710726261138916
-0.318383365869522095 3.9056401252746582 -1.09926164150238037
-0.633686661720275879 4.59092283248901367 -0.305392414331436157
-1.07031691074371338 2.46810221672058105 -1.10273754596710205
-1.74499857425689697 3.43395447731018066 -0.405051440000534058
0.701617777347564697 4.54816913604736328 -0.779983758926391602
-0.232604950666427612 2.18369865417480469 -1.21982276439666748
0.617200374603271484 4.64163541793823242 -0.517808258533477783
-0.0951497405767440796 2.71986246109008789 -1.14206016063690186
-0.153099223971366882 2.25744175910949707 -1.20921468734741211
0.135441780090332031 4.36596202850341797 -0.771491050720214844
-1.28213298320770264 3.52608251571655273 -1.19105339050292969
0.538717746734619141 4.34823322296142578 -0.81440126895904541
0.00103098154067993164 3.04898786544799805 -1.17750096321105957
0.033866293728351593 2.78755950927734375 -1.16925930976867676
-0.000487029552459716797 4.38469314575195312 -0.577846050262451172
